SplineFontDB: 3.2
FontName: font10856
FullName: font10856
FamilyName: Hypnogogia
Weight: Regular
ItalicAngle: 0
UnderlinePosition: 0
UnderlineWidth: 0
Ascent: 819
Descent: 205
InvalidEm: 0
LayerCount: 2
Layer: 0 0 "Back" 1
Layer: 1 0 "Fore" 0
XUID: [1021 307 1127429350 13575]
OS2Version: 0
OS2_WeightWidthSlopeOnly: 0
OS2_UseTypoMetrics: 0
CreationTime: 1633090140
ModificationTime: 1633090571
PfmFamily: 17
TTFWeight: 400
TTFWidth: 5
LineGap: 92
VLineGap: 92
OS2TypoAscent: 0
OS2TypoAOffset: 1
OS2TypoDescent: 0
OS2TypoDOffset: 1
OS2TypoLinegap: 92
OS2WinAscent: 0
OS2WinAOffset: 1
OS2WinDescent: 0
OS2WinDOffset: 1
HheadAscent: 0
HheadAOffset: 1
HheadDescent: 0
HheadDOffset: 1
OS2Vendor: 'PfEd'
DEI: 91125
Encoding: Original
UnicodeInterp: none
NameList: ΤεΧ Names
DisplaySize: -48
AntiAlias: 1
FitToEm: 0
WidthSeparation: 154
WinInfo: 0 38 14
BeginChars: 102 102

StartChar: uni0000
Encoding: 0 0 0
Width: 278
VWidth: 824
Flags: HW
LayerCount: 2
Fore
SplineSet
149.45703125 460.001953125 m 0
 159.44921875 491.266601562 110.366210938 506.837890625 100.405273438 475.6796875 c 1
 90.435546875 461.662109375 81.248046875 447.034179688 72.9580078125 431.94140625 c 1
 67.27734375 434.032226562 61.5166015625 435.876953125 55.6123046875 437.283203125 c 0
 25.876953125 451.353515625 3.767578125 404.62890625 33.5029296875 390.55859375 c 0
 37.6767578125 388.313476562 41.896484375 386.157226562 46.1513671875 384.0703125 c 1
 42.19921875 376.963867188 38.3330078125 369.810546875 34.6591796875 362.546875 c 0
 28.5 348.849609375 19.3310546875 336.489257812 13.1767578125 322.796875 c 0
 1.0302734375 303.008789062 26.0419921875 273.275390625 48.8837890625 289.384765625 c 0
 52.8662109375 294.447265625 56.84765625 299.509765625 60.8291015625 304.572265625 c 0
 75.6796875 321.177734375 85.2177734375 343.400390625 96.3115234375 362.732421875 c 1
 111.522460938 356.741210938 126.865234375 351.049804688 142.39453125 345.951171875 c 0
 143.666015625 345.2109375 171.790039062 335.889648438 167.733398438 340.494140625 c 1
 195.393554688 325.639648438 218.735351562 369.102539062 191.075195312 383.95703125 c 0
 182.115234375 389.774414062 172.185546875 392.926757812 162.131835938 396.42578125 c 0
 148.931640625 400.86328125 135.926757812 405.891601562 123.028320312 411.158203125 c 1
 132.032226562 427.329101562 141.349609375 443.3671875 149.45703125 460.001953125 c 0
208.284179688 265.068359375 m 0
 214.358398438 254.271484375 221.495117188 233.921875 212.938476562 221.421875 c 1
 200.927734375 221.27734375 189.120117188 236.111328125 181.838867188 243.359375 c 0
 173.79296875 252.278320312 165.689453125 261.229492188 159.512695312 271.59765625 c 0
 148.733398438 287.372070312 112.6953125 260.298828125 111.444335938 254.5 c 0
 110.5234375 250.23046875 113.01953125 245.870117188 112.608398438 241.572265625 c 0
 113.84765625 225.219726562 111.806640625 208.568359375 105.364257812 196.453125 c 0
 104.56640625 194.951171875 102.745117188 192.072265625 102.745117188 192.072265625 c 1
 104.202148438 193.572265625 105.333984375 194.791015625 106.258789062 195.822265625 c 1
 103.610351562 190.209960938 103.037109375 184.681640625 95.6689453125 185.640625 c 0
 75.7119140625 190.700195312 77.3134765625 227.42578125 73.0185546875 247.564453125 c 0
 67.3955078125 279.784179688 16.7666015625 270.948242188 22.3896484375 238.728515625 c 1
 21.685546875 218.67578125 25.6083984375 199.301757812 31.5068359375 180.267578125 c 0
 45.0439453125 145.213867188 86.7373046875 120.524414062 127.764648438 145.572265625 c 0
 142.822265625 157.248046875 152.461914062 173.297851562 158.799804688 190.748046875 c 1
 181.583007812 172.54296875 211.610351562 162.395507812 242.159179688 181.5859375 c 0
 279.0625 209.510742188 271.454101562 259.235351562 251.442382812 294.3046875 c 0
 246.209960938 302.029296875 239.034179688 305.26953125 231.836914062 305.32421875 c 0
 213.4453125 305.46484375 194.911132812 284.80859375 208.284179688 265.068359375 c 0
220.008789062 231.109375 m 0
 222.954101562 230.14453125 216.258789062 224.109375 216.108398438 223.998046875 c 0
 215.412109375 222.791992188 219.045898438 221.524414062 213.114257812 221.423828125 c 1
 218.0859375 227.444335938 219.653320312 231.225585938 220.008789062 231.109375 c 0
EndSplineSet
Validated: 524329
EndChar

StartChar: A
Encoding: 1 65 1
Width: 320
VWidth: 824
Flags: HW
LayerCount: 2
Fore
SplineSet
118.244140625 694.805664062 m 1
 98.7900390625 665.494140625 92.2939453125 626.435546875 83.6083984375 589.096679688 c 0
 67.62890625 528.841796875 61.67578125 457.978515625 48.2685546875 395.549804688 c 0
 36.3759765625 343.022460938 25.9189453125 292.940429688 23.3955078125 232.205078125 c 0
 19.349609375 189.067382812 10.890625 145.15625 10.1845703125 100.784179688 c 0
 6.1640625 60.6328125 69.2255859375 54.30859375 73.2470703125 94.4599609375 c 1
 83.0244140625 137.955078125 84.751953125 183.91015625 89.322265625 231.296875 c 0
 88.751953125 250.340820312 90.486328125 269.875976562 93.59765625 288.396484375 c 1
 133.7578125 296.638671875 178.93359375 300.618164062 219.576171875 308.711914062 c 0
 220.010742188 308.982421875 220.428710938 309.296875 220.883789062 309.56640625 c 1
 225.815429688 269.104492188 233.7265625 227.26171875 233.823242188 181.885742188 c 0
 235.248046875 148.283203125 242.064453125 116.258789062 245.985351562 85.384765625 c 0
 246.772460938 81.20703125 247.711914062 77.0517578125 248.75390625 72.935546875 c 0
 247.146484375 34.3818359375 307.7109375 31.865234375 309.318359375 70.41796875 c 0
 311.416015625 79.0810546875 310.870117188 88.0419921875 308.833007812 96.6787109375 c 0
 302.30859375 140.7734375 297.00390625 190.340820312 294.969726562 238.623046875 c 0
 292.404296875 269.776367188 286.469726562 300.517578125 283.34375 331.697265625 c 0
 277.197265625 383.048828125 271.4765625 430.670898438 263.065429688 479.9296875 c 0
 254.368164062 544.3125 244.642578125 605.229492188 222.2578125 657.046875 c 0
 207.8203125 694.22265625 163.536132812 743.440429688 118.244140625 694.805664062 c 1
174.07421875 664.500976562 m 0
 175.04296875 658.123046875 171.969726562 655.298828125 167.626953125 654.260742188 c 1
 169.521484375 659.658203125 171.616210938 664.211914062 174.07421875 664.500976562 c 0
162.71484375 635.03125 m 1
 168.845703125 619.729492188 172.025390625 603.458007812 175.46484375 587.3984375 c 0
 186.47265625 549.458984375 191.698242188 510.049804688 198.76171875 467.676757812 c 0
 203.303710938 434.813476562 210.4921875 402.498046875 214.946289062 370.297851562 c 1
 179.87109375 364.03515625 141.942382812 361.686523438 105.846679688 356.483398438 c 1
 118.16015625 413.344726562 124.834960938 473.905273438 136.908203125 532.603515625 c 0
 139.461914062 549.228515625 144.537109375 565.340820312 147.674804688 581.828125 c 0
 151.353515625 597.516601562 154.946289062 613.216796875 160.662109375 628.315429688 c 0
 160.967773438 629.3125 162.17578125 632.659179688 162.71484375 635.03125 c 1
EndSplineSet
Validated: 524329
EndChar

StartChar: B
Encoding: 2 66 2
Width: 351
VWidth: 824
Flags: HW
LayerCount: 2
Fore
SplineSet
230.4453125 672.33984375 m 0
 207.428710938 698.140625 164.668945312 724.283203125 118.470703125 719.135742188 c 0
 95.1796875 715.629882812 72.2333984375 709.290039062 51.3134765625 698.365234375 c 1
 32.2431640625 705.51953125 5.1787109375 691.900390625 10.73828125 666.090820312 c 1
 12.646484375 622.96484375 24.6328125 580.579101562 28.9599609375 538.067382812 c 0
 30.087890625 509.037109375 33.955078125 479.282226562 33.4853515625 447.541015625 c 0
 36.669921875 395.893554688 41.2392578125 347.477539062 44.3046875 295.715820312 c 0
 48.603515625 266.18359375 51.037109375 235.39453125 52.89453125 204.288085938 c 0
 53.9052734375 188.625976562 53.1015625 172.92578125 53.7431640625 157.2578125 c 0
 53.091796875 147.021484375 53.01953125 136.772460938 53.0166015625 126.53125 c 1
 48.595703125 117.71484375 51.072265625 107.416992188 55.16015625 99.3984375 c 0
 56.5400390625 88.1240234375 63.2724609375 81.130859375 71.701171875 78.0166015625 c 0
 88.0654296875 64.142578125 116.49609375 51.0537109375 140.495117188 48.4521484375 c 0
 156.690429688 47.583984375 172.396484375 50.50390625 188.484375 52.09765625 c 0
 251.224609375 72.9130859375 312.864257812 103.001953125 328.830078125 170.715820312 c 0
 336.678710938 201.983398438 341.881835938 233.080078125 341.235351562 272.346679688 c 0
 341.47265625 306.225585938 338.546875 335.651367188 335.014648438 365.22265625 c 0
 325.439453125 419.803710938 297.72265625 461.247070312 260.9765625 489.69140625 c 0
 250.41796875 499.05859375 239.11328125 507.083007812 226.8125 513.689453125 c 1
 252.346679688 537.55859375 269.264648438 581.26953125 254.403320312 627.860351562 c 0
 249.041015625 643.930664062 241.853515625 659.594726562 230.4453125 672.33984375 c 0
152.611328125 654.484375 m 0
 182.530273438 643.409179688 205.303710938 620.831054688 198.288085938 576.0859375 c 0
 194.239257812 557.595703125 176.6171875 544.143554688 159.270507812 538.745117188 c 2
 159.270507812 538.745117188 142.932617188 534.485351562 139.778320312 532.139648438 c 0
 105.346679688 520.20703125 109.94140625 529.446289062 136.603515625 474.534179688 c 0
 137.040039062 473.609375 148.799804688 476.150390625 151.157226562 476.1015625 c 0
 196.17578125 473.31640625 225.629882812 443.877929688 248.944335938 418.09765625 c 0
 256.15234375 409.283203125 261.634765625 399.098632812 266.65625 388.915039062 c 0
 273.34375 377.94140625 273.813476562 365.10546875 276.020507812 352.802734375 c 0
 276.904296875 339.140625 281.530273438 325.778320312 281.234375 312.051757812 c 0
 284.489257812 264.16796875 279.9296875 216.853515625 269.334960938 179.615234375 c 0
 258.56640625 143.583984375 219.235351562 123.515625 185.0546875 111.352539062 c 0
 174.862304688 108.603515625 164.170898438 107.237304688 153.663085938 106.276367188 c 0
 139.2109375 106.225585938 122.653320312 114.654296875 112.52734375 122.729492188 c 1
 112.749023438 135.973632812 113.518554688 149.192382812 113.719726562 162.443359375 c 0
 113.2734375 212.311523438 107.91796875 257.984375 103.697265625 302.370117188 c 0
 100.004882812 369.551757812 93.3798828125 432.6875 91.8837890625 501.276367188 c 0
 86.9111328125 551.493164062 85.78125 601.123046875 76.25 646.084960938 c 0
 76.3203125 646.147460938 76.384765625 646.19140625 76.51953125 646.236328125 c 0
 102.034179688 655.151367188 84.9091796875 649.740234375 114.918945312 657.793945312 c 0
 127.959960938 661.52734375 140.212890625 658.974609375 152.611328125 654.484375 c 0
EndSplineSet
Validated: 524329
EndChar

StartChar: C
Encoding: 3 67 3
Width: 233
VWidth: 824
Flags: HW
LayerCount: 2
Fore
SplineSet
142.3671875 584.895507812 m 1
 137.260742188 610.250976562 144.1171875 653.493164062 120.234375 661.24609375 c 0
 112.58984375 664.038085938 102.956054688 664.736328125 94.9228515625 662.767578125 c 0
 88.9169921875 658.23046875 91.640625 660.432617188 103.71484375 663.622070312 c 1
 81.908203125 653.541992188 78.1123046875 615.666015625 75.8017578125 588.08984375 c 0
 73.4052734375 555.254882812 74.5693359375 521.563476562 75.6015625 489.405273438 c 0
 76.0908203125 440.974609375 76.6455078125 392.263671875 76.771484375 345.091796875 c 0
 76.630859375 330.013671875 77.8115234375 315.016601562 79.07421875 300.009765625 c 0
 81.685546875 285.692382812 80.947265625 271.103515625 81.90625 256.65234375 c 0
 82.654296875 241.372070312 84.46875 226.157226562 86.57421875 211.0078125 c 0
 88.8271484375 196.365234375 90.6533203125 182.208984375 98.5185546875 169.455078125 c 0
 102.364257812 164.469726562 125.809570312 120.81640625 138.85546875 138.791015625 c 1
 106.342773438 129.26171875 135.373046875 138.813476562 142.393554688 144.81640625 c 0
 154.544921875 155.80078125 156.928710938 174.271484375 158.982421875 194.115234375 c 0
 159.939453125 235.044921875 224.251953125 233.543945312 223.295898438 192.615234375 c 1
 219.669921875 159.450195312 213.940429688 131.141601562 195.315429688 110.318359375 c 0
 167.922851562 80.685546875 116.002929688 58.458984375 76.619140625 94.158203125 c 0
 49.0263671875 118.950195312 26.880859375 156.399414062 21.947265625 201.16796875 c 0
 20.72265625 216.90625 20.0185546875 232.686523438 18.6025390625 248.387695312 c 0
 17.3125 262.846679688 18.3310546875 277.401367188 15.484375 291.698242188 c 0
 11.7861328125 339.56640625 10.0078125 389.958007812 11.6875 439.708984375 c 0
 11.6279296875 453.965820312 11.13671875 468.188476562 11.7958984375 482.422851562 c 0
 10.640625 499.0234375 12.017578125 515.635742188 10.0244140625 532.192382812 c 0
 9.8134765625 570.05859375 10.7998046875 605.051757812 18.9052734375 636.8671875 c 0
 23.052734375 654.139648438 27.8271484375 671.752929688 38.0595703125 686.557617188 c 0
 54.8056640625 710.016601562 76.5673828125 724.93359375 107.149414062 725.129882812 c 0
 125.848632812 724.129882812 144.2890625 721.3984375 160.305664062 710.829101562 c 0
 179.829101562 696.927734375 194.244140625 678.950195312 200.241210938 655.288085938 c 0
 205.106445312 633.223632812 206.756835938 610.6484375 205.4609375 588.071289062 c 0
 207.484375 547.919921875 144.389648438 544.743164062 142.3671875 584.895507812 c 1
EndSplineSet
Validated: 524325
EndChar

StartChar: D
Encoding: 4 68 4
Width: 296
VWidth: 824
Flags: HW
LayerCount: 2
Fore
SplineSet
72.4697265625 668.495117188 m 1
 87.78125 609.364257812 85.5400390625 538.501953125 92.357421875 472.421875 c 0
 94.9658203125 422.595703125 98.9150390625 374.532226562 100.646484375 323.6015625 c 0
 100.313476562 287.4375 96.482421875 251.7421875 94.8369140625 216.491210938 c 0
 94.6015625 199.401367188 93.642578125 182.350585938 92.4990234375 165.302734375 c 0
 90.8916015625 152.03515625 92.4794921875 138.729492188 92.4990234375 125.450195312 c 0
 91.7841796875 99.93359375 82.072265625 115.31640625 32.17578125 124.395507812 c 1
 36.75390625 156.96484375 41.3818359375 194.185546875 38.904296875 229.80078125 c 0
 34.392578125 282.333007812 37.2333984375 335.514648438 31.7548828125 388.306640625 c 0
 25.626953125 435.259765625 26.4501953125 481.176757812 20.7919921875 528.248046875 c 0
 16.658203125 559.237304688 13.3583984375 591.827148438 12.5830078125 624.510742188 c 0
 10.7451171875 643.548828125 14.00390625 661.23046875 21.697265625 678.595703125 c 0
 38.13671875 705.870117188 53.892578125 710.5859375 83.88671875 719.82421875 c 0
 128.584960938 728.8046875 162.4296875 714.049804688 187.7421875 694.411132812 c 0
 203.251953125 682.778320312 217.6015625 670.163085938 229.34765625 654.69921875 c 0
 248.400390625 628.442382812 260.6328125 598.293945312 270.645507812 563.607421875 c 0
 277.842773438 535.239257812 281.91015625 505.328125 285.145507812 472.770507812 c 0
 289.698242188 405.333007812 281.454101562 341.64453125 271.6484375 283.677734375 c 0
 267.896484375 266.741210938 264.392578125 249.872070312 258.6953125 233.459960938 c 0
 244.265625 195.07421875 220.759765625 160.888671875 194.077148438 133.438476562 c 0
 180.052734375 119.213867188 163.208007812 108.755859375 146.192382812 98.603515625 c 0
 123.290039062 84.1513671875 97.744140625 74.501953125 70.734375 79.115234375 c 0
 61.51953125 81.755859375 66.775390625 79.791015625 55.4130859375 86.0703125 c 0
 23.1552734375 107.716796875 57.1748046875 158.405273438 89.4267578125 136.758789062 c 1
 84.2880859375 140.034179688 83.552734375 139.2421875 88.466796875 139.841796875 c 0
 91.6318359375 141.587890625 95.24609375 141.87109375 98.44140625 143.649414062 c 1
 75.865234375 135.987304688 95.3017578125 141.013671875 98.966796875 143.267578125 c 0
 112.951171875 152.709960938 128.376953125 159.86328125 141.133789062 171.045898438 c 0
 153.678710938 180.321289062 163.143554688 193.034179688 171.25 206.229492188 c 0
 180.05078125 220.001953125 188.873046875 233.830078125 195.924804688 248.604492188 c 0
 212.284179688 285.743164062 212.625 334.86328125 220.12109375 379.888671875 c 0
 221.420898438 393.390625 222.2578125 406.84375 222.791015625 420.373046875 c 0
 222.22265625 449.98046875 221.631835938 478.595703125 217.98046875 505.591796875 c 0
 211.932617188 532.162109375 208.28515625 558.41796875 197.739257812 581.053710938 c 0
 191.271484375 593.610351562 184.752929688 606.327148438 176.169921875 617.58203125 c 0
 156.793945312 640.780273438 126.70703125 670.254882812 81.4423828125 656.534179688 c 1
 112.760742188 668.385742188 88.802734375 660.08203125 81.7685546875 657.959960938 c 1
 75.1044921875 649.3515625 75.38671875 639.071289062 76.4443359375 628.514648438 c 0
 75.6708984375 613.884765625 80.111328125 599.462890625 79.7666015625 584.796875 c 0
 82.55859375 552.791015625 87.8232421875 520.427734375 88.552734375 487.885742188 c 0
 89.45703125 472.315429688 90.609375 456.819335938 92.0341796875 441.296875 c 0
 91.826171875 408.46484375 99.240234375 375.84375 99.5126953125 342.614257812 c 0
 100.811523438 307.965820312 100.806640625 273.278320312 102.486328125 238.611328125 c 0
 105.977539062 204.334960938 103.533203125 168.936523438 97.255859375 138.518554688 c 0
 96.9794921875 135.443359375 97.2158203125 115.178710938 94.30859375 114.600585938 c 0
 39.4638671875 103.752929688 35.62109375 89.591796875 30.17578125 115.580078125 c 0
 24.4638671875 147.787109375 29.296875 181.545898438 30.1298828125 214.827148438 c 0
 30.9443359375 232.30859375 32.052734375 249.729492188 32.93359375 267.216796875 c 0
 35.087890625 284.151367188 34.216796875 301.319335938 35.951171875 318.315429688 c 0
 35.73828125 350.712890625 34.490234375 382.422851562 31.9189453125 412.958007812 c 0
 29.546875 429.653320312 28.3974609375 446.548828125 27.94921875 463.393554688 c 0
 26.416015625 482.297851562 22.96875 500.963867188 21.7373046875 519.8984375 c 0
 19.2158203125 543.56640625 18.4365234375 567.390625 16.46484375 591.11328125 c 0
 14.1181640625 612.39453125 11.3095703125 633.870117188 10.7939453125 655.209960938 c 0
 2.3408203125 694.4609375 64.0146484375 707.74609375 72.4697265625 668.495117188 c 1
EndSplineSet
Validated: 524325
EndChar

StartChar: E
Encoding: 5 69 5
Width: 291
VWidth: 824
Flags: HW
LayerCount: 2
Fore
SplineSet
125.556640625 306.04296875 m 1
 138.595703125 305.717773438 151.454101562 306.801757812 164.127929688 307.953125 c 1
 202.905273438 296.600585938 220.743164062 357.53125 181.965820312 368.883789062 c 0
 161.797851562 372.000976562 138.901367188 368.890625 117.51171875 371.317382812 c 1
 114.609375 394.706054688 111.0859375 420.622070312 111.119140625 445.803710938 c 0
 108.70703125 477.875976562 112.465820312 510.1328125 111.521484375 542.853515625 c 0
 111.431640625 560.849609375 111.34375 578.845703125 110.21484375 596.814453125 c 0
 109.768554688 612.497070312 107.9140625 628.196289062 109.112304688 643.895507812 c 0
 109.599609375 652.231445312 109.241210938 661.838867188 113.706054688 669.143554688 c 1
 107.4375 667.037109375 98.5419921875 664.198242188 113.029296875 669.653320312 c 0
 113.470703125 669.653320312 113.9296875 669.5625 114.385742188 669.546875 c 0
 119.184570312 671.084960938 117.991210938 670.608398438 114.681640625 669.505859375 c 1
 133.237304688 668.845703125 151.126953125 662.583007812 169.766601562 662.270507812 c 0
 190.770507812 659.94921875 213.206054688 658.671875 233.875976562 663.081054688 c 1
 268.107421875 654.9765625 283.5234375 701.018554688 260.635742188 718.86328125 c 0
 246.360351562 730.171875 210.616210938 725.001953125 188.032226562 725.581054688 c 0
 168.760742188 726.741210938 149.772460938 730.172851562 130.573242188 732.053710938 c 0
 98.1220703125 733.651367188 72.83203125 722.9453125 56.2861328125 695.24609375 c 0
 41.7763671875 665.487304688 45.8564453125 631.603515625 45.2490234375 592.182617188 c 0
 47.744140625 557.185546875 46.162109375 522.109375 45.8662109375 486.845703125 c 0
 44.8251953125 470.827148438 46.66796875 454.856445312 47.1435546875 438.84375 c 0
 46.4267578125 419.3046875 48.65625 398.180664062 51.2724609375 379.328125 c 1
 14.5947265625 392.540039062 -8.123046875 335.05078125 28.876953125 320.161132812 c 0
 38.548828125 316.67578125 48.54296875 314.309570312 58.6611328125 312.428710938 c 1
 59.7900390625 301.172851562 61.05078125 289.93359375 62.7958984375 278.74609375 c 0
 68.556640625 229.611328125 67.220703125 178.74609375 75.0859375 131.321289062 c 0
 83.5693359375 90.6953125 125.015625 68.904296875 170.787109375 65.7470703125 c 0
 196.75390625 63.94921875 223.991210938 57.4287109375 250.6640625 60.74609375 c 1
 290.702148438 59.6318359375 292.432617188 122.540039062 252.395507812 123.654296875 c 1
 248.6171875 118.053710938 238.342773438 122.45703125 233.578125 122.977539062 c 0
 218.474609375 124.663085938 203.3515625 125.74609375 188.279296875 127.518554688 c 0
 171.544921875 128.696289062 141.453125 128.392578125 137.856445312 143.640625 c 0
 130.727539062 191.711914062 133.625 241.421875 127.118164062 290.174804688 c 0
 126.51953125 295.454101562 126.052734375 300.750976562 125.556640625 306.04296875 c 1
114.458984375 669.538085938 m 1
 113.7890625 669.305664062 113.864257812 669.461914062 113.805664062 669.135742188 c 1
 114.038085938 669.232421875 114.241210938 669.473632812 114.458984375 669.538085938 c 1
EndSplineSet
Validated: 524325
EndChar

StartChar: F
Encoding: 6 70 6
Width: 241
VWidth: 824
Flags: HW
LayerCount: 2
Fore
SplineSet
91.607421875 400.998046875 m 0
 109.42578125 406.461914062 127.735351562 411.481445312 146.122070312 416.48046875 c 1
 186.674804688 415.994140625 187.44140625 479.70703125 146.888671875 480.1953125 c 1
 126.776367188 475.446289062 106.94140625 471.522460938 88.2900390625 466.42578125 c 1
 87.0078125 476.618164062 85.6005859375 486.811523438 84.4736328125 497.024414062 c 0
 82.1201171875 511.107421875 78.9599609375 525.06640625 79.048828125 539.409179688 c 0
 75.015625 571.840820312 73.5400390625 609.0859375 78.0166015625 642.125976562 c 1
 101.359375 647.55078125 130.65234375 648.411132812 157.6640625 649.1640625 c 0
 169.387695312 648.056640625 181.155273438 647.494140625 192.920898438 647.079101562 c 0
 228.255859375 639.223632812 243.47265625 686.817382812 219.670898438 704.854492188 c 0
 216.267578125 707.420898438 212.0390625 709.39453125 206.993164062 710.518554688 c 0
 195.999023438 709.947265625 185.063476562 711.051757812 174.048828125 710.866210938 c 0
 158.53125 712.23828125 143.369140625 709.866210938 127.833984375 710.5390625 c 0
 114.78125 709.453125 101.963867188 706.744140625 88.994140625 705.163085938 c 0
 63.9365234375 704.141601562 38.7119140625 696.72265625 24.4052734375 674.965820312 c 0
 -7.5302734375 610.270507812 23.267578125 508.63671875 25.556640625 435.122070312 c 0
 22.701171875 427.905273438 23.283203125 420.233398438 26.1328125 413.249023438 c 0
 28.435546875 343.037109375 20.5654296875 275.553710938 19.4765625 204.96484375 c 0
 18.720703125 182.075195312 18.298828125 158.856445312 20.931640625 136.107421875 c 0
 22.955078125 95.9560546875 86.0263671875 99.1455078125 84.0048828125 139.296875 c 1
 87.3388671875 161.880859375 85.5576171875 184.682617188 86.2900390625 207.416992188 c 0
 85.3173828125 227.754882812 85.669921875 248.147460938 87.4970703125 268.423828125 c 0
 86.8798828125 309.294921875 93.79296875 350.048828125 91.8828125 390.963867188 c 0
 91.9326171875 394.313476562 91.6552734375 397.649414062 91.607421875 400.998046875 c 0
82.1474609375 647.330078125 m 2
 82.1474609375 647.330078125 87.8359375 647.560546875 86.263671875 646.795898438 c 0
 81.1044921875 644.272460938 80.8935546875 644.462890625 78.2724609375 643.397460938 c 1
 78.9716796875 647.627929688 80.029296875 651.170898438 82.220703125 650.516601562 c 1
 82.1875 649.458984375 81.3671875 648.021484375 82.1474609375 647.330078125 c 2
EndSplineSet
Validated: 524329
EndChar

StartChar: G
Encoding: 7 71 7
Width: 382
VWidth: 824
Flags: HW
LayerCount: 2
Fore
SplineSet
11.0576171875 230.317382812 m 0
 9.138671875 262.11328125 9.9609375 292.75390625 12.4775390625 323.849609375 c 0
 12.4267578125 340.44921875 15.419921875 356.65625 16.12109375 373.213867188 c 0
 18.71484375 389.982421875 18.21484375 407.090820312 21.4951171875 423.811523438 c 0
 26.3896484375 470.764648438 33.2451171875 516.540039062 40.3115234375 563.374023438 c 0
 44.42578125 603.334960938 48.9140625 633.577148438 65.888671875 662.033203125 c 0
 93.1083984375 707.516601562 147.602539062 739.880859375 223.430664062 727.916015625 c 0
 265.637695312 720.391601562 301.774414062 705.481445312 322.875 674.868164062 c 0
 335.78515625 654.466796875 344.197265625 631.974609375 347.299804688 607.9296875 c 0
 355.752929688 568.678710938 294.079101562 555.393554688 285.624023438 594.64453125 c 1
 278.259765625 610.004882812 276.169921875 627.170898438 266.46875 641.327148438 c 0
 253.533203125 659.499023438 225.791015625 663.719726562 200.751953125 668.08203125 c 0
 188.66015625 668.69921875 176.837890625 666.5546875 164.7890625 666.017578125 c 0
 159.245117188 664.552734375 155.032226562 662.821289062 149.080078125 660.997070312 c 1
 153.6875 662.659179688 158.935546875 664.141601562 152.489257812 661.314453125 c 0
 131.040039062 649.239257812 117.20703125 626.9453125 109.387695312 601.71875 c 0
 106.3671875 588.897460938 105.288085938 575.658203125 104.161132812 562.547851562 c 0
 96.673828125 498.026367188 88.2666015625 435.872070312 80.724609375 370.424804688 c 0
 79.77734375 355.946289062 77.0068359375 341.654296875 76.34765625 327.158203125 c 0
 73.5693359375 283.444335938 70.2412109375 234.793945312 79.2158203125 194.559570312 c 0
 79.6748046875 180.92578125 86.876953125 171.590820312 93.2041015625 160.326171875 c 0
 97.9716796875 150.489257812 107.28515625 145.517578125 116.001953125 139.611328125 c 0
 129.541015625 133.919921875 142.515625 127.428710938 156.380859375 122.56640625 c 0
 167.848632812 118.250976562 180.762695312 114.756835938 193.090820312 116.489257812 c 0
 205.4453125 115.78125 216.37109375 121.778320312 228.486328125 123.969726562 c 0
 230.255859375 124.614257812 233.802734375 125.90234375 233.802734375 125.90234375 c 1
 207.876953125 118.662109375 228.545898438 123.693359375 234.705078125 129.731445312 c 0
 246.373046875 147.388671875 246.860351562 175.588867188 248.62109375 201.211914062 c 0
 249.119140625 216.921875 250.155273438 232.590820312 251.33203125 248.26171875 c 0
 250.650390625 256.352539062 255.862304688 269.499023438 249.435546875 276.19140625 c 1
 245.28515625 274.653320312 238.279296875 275.483398438 232.120117188 276.51953125 c 0
 219.887695312 276.849609375 208.102539062 276.705078125 196.109375 273.926757812 c 0
 150.825195312 270.717773438 163.444335938 269.8203125 180.931640625 335.33203125 c 1
 194.659179688 335.939453125 208.229492188 337.951171875 221.94921875 338.432617188 c 0
 235.392578125 338.122070312 249.515625 336.743164062 262.749023438 339.672851562 c 0
 277.579101562 340.787109375 291.72265625 344.059570312 306.711914062 343.583984375 c 0
 330.4375 342.248046875 347.393554688 329.989257812 360.329101562 310.872070312 c 0
 373.259765625 282.9921875 372.64453125 252.036132812 372.163085938 214.250976562 c 0
 372.370117188 197.365234375 371.537109375 180.512695312 370.506835938 163.669921875 c 0
 369.045898438 148.649414062 370.662109375 133.6171875 370.482421875 118.583007812 c 0
 370.997070312 106.19140625 370.298828125 94.02734375 368.947265625 81.751953125 c 0
 366.549804688 43.23828125 306.034179688 47.001953125 308.4296875 85.5146484375 c 1
 308.403320312 84.5712890625 308.366210938 82.697265625 308.366210938 82.697265625 c 1
 304.432617188 93.18359375 308.197265625 105.740234375 306.559570312 116.530273438 c 0
 307.8828125 131.442382812 304.19921875 146.442382812 306.118164062 161.391601562 c 0
 306.640625 192.544921875 309.721679688 223.940429688 308.485351562 255.497070312 c 0
 309.296875 263.116210938 306.149414062 273.416015625 306.244140625 278.688476562 c 0
 303.926757812 281.352539062 298.958007812 281.095703125 293.66796875 281.149414062 c 0
 267.83984375 278.018554688 240.951171875 275.564453125 211.194335938 275.723632812 c 0
 200.114257812 274.686523438 188.94140625 275.145507812 177.9375 273.56640625 c 1
 180.53515625 292.940429688 185.177734375 312.1484375 185.71875 331.6875 c 0
 185.801757812 333.842773438 180.2265625 331.71484375 179.606445312 333.779296875 c 0
 179.571289062 333.897460938 199.153320312 337.71875 202.912109375 337.872070312 c 0
 247.750976562 341.267578125 285.463867188 334.71484375 304.9609375 306.805664062 c 0
 321.970703125 275.153320312 314.959960938 242.62109375 312.578125 201.2734375 c 0
 309.073242188 160.903320312 307.732421875 128.563476562 290.702148438 99.36328125 c 0
 274.28125 77.359375 254.248046875 64.7587890625 226.118164062 60.2822265625 c 0
 167.08203125 42.98046875 109.853515625 67.4072265625 73.0244140625 92.0166015625 c 0
 59.048828125 102.795898438 45.154296875 114.265625 36.6669921875 130.094726562 c 0
 20.619140625 157.254882812 9.7451171875 190.234375 11.0576171875 230.317382812 c 0
EndSplineSet
Validated: 524325
EndChar

StartChar: H
Encoding: 8 72 8
Width: 356
VWidth: 824
Flags: HW
LayerCount: 2
Fore
SplineSet
280.034179688 502.272460938 m 0
 280.995117188 543.83984375 282.578125 585.494140625 282.87109375 627.1796875 c 0
 282.46484375 654.724609375 283.90234375 702.501953125 266.37890625 717.423828125 c 0
 246.768554688 733.87890625 207.556640625 719.267578125 214.41015625 687.452148438 c 1
 213.99609375 665.703125 215.407226562 643.931640625 215.685546875 622.172851562 c 0
 215.29296875 600.186523438 216.548828125 578.211914062 215.463867188 556.234375 c 0
 215.880859375 537.20703125 215.444335938 518.1875 215.177734375 499.16796875 c 0
 216.348632812 482.046875 216.489257812 464.883789062 216.556640625 447.736328125 c 0
 216.063476562 438.569335938 216.180664062 429.40234375 216.466796875 420.250976562 c 1
 183.4609375 413.302734375 147.961914062 415.859375 113.556640625 412.049804688 c 0
 109.869140625 412.049804688 106.157226562 411.9296875 102.458984375 411.908203125 c 1
 102.71875 418.029296875 103.015625 424.155273438 102.818359375 430.287109375 c 0
 104.708984375 467.21875 104.299804688 504.3515625 103.040039062 541.873046875 c 0
 103.372070312 584.088867188 103.900390625 624.768554688 97.693359375 662.961914062 c 1
 95.708984375 701.3671875 32.4970703125 701.314453125 34.5888671875 659.793945312 c 0
 33.1181640625 638.40625 36.22265625 617.155273438 36.341796875 595.7734375 c 0
 37.7900390625 576.483398438 37.9306640625 557.108398438 38.001953125 537.77734375 c 0
 37.4306640625 501.583984375 40.1357421875 465.432617188 38.24609375 428.880859375 c 0
 38.650390625 422.678710938 38.4658203125 416.505859375 38.28125 410.328125 c 1
 6.44140625 408.686523438 -2.783203125 356.569335938 33.0400390625 348.090820312 c 0
 35.53125 347.72265625 38.0390625 347.567382812 40.53515625 347.301757812 c 0
 43.8369140625 312.678710938 46.0185546875 276.68359375 47.7890625 241.05078125 c 0
 50.251953125 210.811523438 57.1669921875 180.403320312 55.47265625 146.4921875 c 0
 55.3154296875 129.490234375 57.4267578125 112.659179688 58.6796875 95.748046875 c 0
 58.4462890625 91.228515625 58.4462890625 93.7060546875 58.912109375 88.33203125 c 0
 59.6435546875 48.833984375 121.702148438 49.9521484375 120.970703125 89.4501953125 c 0
 122.4375 97.3115234375 121.75390625 92.5595703125 122.310546875 103.82421875 c 0
 121.115234375 119.0390625 120.067382812 134.259765625 120.291015625 149.538085938 c 0
 120.271484375 183.623046875 114.401367188 216.236328125 112.401367188 247.939453125 c 0
 110.62890625 280.259765625 106.873046875 312.592773438 104.997070312 345.857421875 c 0
 104.916992188 346.387695312 104.899414062 346.881835938 104.803710938 347.408203125 c 1
 143.67578125 350.706054688 181.946289062 351.966796875 218.3671875 357.4453125 c 1
 220.1640625 320.814453125 223.685546875 285.099609375 226.0703125 249.962890625 c 0
 227.59375 200.58203125 236.034179688 154.275390625 245.3203125 110.342773438 c 0
 247.928710938 98.107421875 249.0703125 85.9189453125 249.05859375 73.41796875 c 0
 247.875 71.6337890625 245.611328125 60.5986328125 247.418945312 70.392578125 c 1
 230.935546875 35.05859375 286.424804688 9.1494140625 302.909179688 44.482421875 c 0
 308.212890625 55.541015625 312.709960938 66.095703125 312.645507812 78.7041015625 c 0
 310.854492188 124.484375 299.150390625 164.986328125 294.19921875 209.124023438 c 0
 292.16796875 225.717773438 291.576171875 242.432617188 290.3671875 259.098632812 c 0
 286.134765625 293.10546875 283.814453125 328.524414062 282.602539062 364.712890625 c 1
 291.124023438 364.9453125 300.28125 364.84375 308.118164062 365.659179688 c 0
 347.596679688 355.948242188 362.857421875 417.965820312 323.379882812 427.676757812 c 0
 320.4765625 428.00390625 317.543945312 428.348632812 314.641601562 428.676757812 c 0
 303.547851562 427.811523438 292.381835938 427.799804688 281.219726562 427.598632812 c 1
 281.153320312 452.772460938 280.87890625 477.458984375 280.034179688 502.272460938 c 0
EndSplineSet
Validated: 524329
EndChar

StartChar: I
Encoding: 9 73 9
Width: 214
VWidth: 824
Flags: HW
LayerCount: 2
Fore
SplineSet
120.633789062 647.412109375 m 1
 136.502929688 648.192382812 152.4140625 647.588867188 166.272460938 651.959960938 c 1
 197.822265625 644.120117188 212.553710938 686.533203125 191.5859375 703.256835938 c 0
 180.927734375 711.620117188 162.11328125 709.346679688 146.060546875 706.67578125 c 0
 129.614257812 706.453125 113.189453125 705.366210938 96.724609375 705.068359375 c 0
 77.830078125 701.961914062 57.5458984375 702.892578125 39.935546875 694.715820312 c 1
 2.8876953125 697.334960938 -1.240234375 639.13671875 35.8076171875 636.51953125 c 0
 43.669921875 637.517578125 51.509765625 638.763671875 59.3486328125 639.9609375 c 1
 63.8095703125 568.564453125 58.77734375 494.825195312 69.5732421875 428.720703125 c 0
 70.9345703125 414.748046875 70.880859375 400.732421875 72.439453125 386.76953125 c 0
 75.1455078125 344.486328125 79.46875 297.956054688 82.7431640625 253.44140625 c 0
 85.6923828125 225.400390625 92.267578125 198.287109375 95.8310546875 171.288085938 c 0
 96.3583984375 158.125976562 97.80859375 145.03515625 98.7099609375 131.892578125 c 1
 84.37890625 132.911132812 70.046875 133.573242188 55.6669921875 132.6484375 c 1
 19.4794921875 141.21484375 6.0244140625 84.3740234375 42.2119140625 75.806640625 c 0
 83.5361328125 69.6259765625 127.170898438 69.67578125 170.045898438 68.4482421875 c 1
 206.966796875 60.9599609375 218.712890625 118.981445312 181.79296875 126.469726562 c 0
 175.692382812 125.756835938 169.869140625 126.71484375 163.743164062 126.458007812 c 0
 161.548828125 126.747070312 159.349609375 126.756835938 157.158203125 126.948242188 c 1
 157.868164062 130.096679688 158.209960938 133.48828125 157.75 137.271484375 c 0
 154.432617188 181.38671875 145.737304688 218.630859375 142.047851562 260.688476562 c 0
 139.944335938 291.8203125 137.502929688 322.951171875 135.841796875 354.161132812 c 0
 132.275390625 382.075195312 132.314453125 411.271484375 127.662109375 440.018554688 c 0
 123.782226562 466.434570312 123.553710938 494.197265625 122.3359375 521.719726562 c 0
 121.961914062 536.193359375 123.25390625 550.661132812 122.19140625 565.127929688 c 0
 122.409179688 592.745117188 122.388671875 620.78125 120.633789062 647.412109375 c 1
EndSplineSet
Validated: 524329
EndChar

StartChar: J
Encoding: 10 74 10
Width: 283
VWidth: 824
Flags: HW
LayerCount: 2
Fore
SplineSet
246.795898438 707.927734375 m 1
 224.512695312 703.0390625 198.215820312 699.551757812 173.180664062 699.109375 c 0
 153.485351562 699.680664062 133.735351562 699.569335938 114.041992188 698.802734375 c 0
 90.42578125 699.041992188 66.4169921875 697.602539062 43.3017578125 692.830078125 c 1
 5.21875 698.388671875 -3.5166015625 638.548828125 34.5673828125 632.990234375 c 0
 71.34375 631.505859375 108.455078125 637.174804688 146.376953125 638.014648438 c 1
 153.280273438 586.7578125 172.567382812 542.870117188 172.096679688 484.569335938 c 0
 174.52734375 448.921875 171.23828125 413.442382812 174.748046875 378.408203125 c 0
 174.946289062 344.016601562 175.615234375 310.5859375 179.463867188 278.092773438 c 0
 181.470703125 262.201171875 182.920898438 246.376953125 182.9765625 230.350585938 c 0
 180.860351562 187.53515625 178.827148438 150.55078125 149.875 131.541015625 c 0
 148.481445312 131.517578125 147.022460938 131.80078125 145.856445312 132.736328125 c 0
 129.420898438 147.2421875 121.124023438 168.038085938 114.021484375 191.287109375 c 0
 112.704101562 195.275390625 113.02734375 198.740234375 113.8203125 202.725585938 c 0
 112.958007812 241.411132812 52.162109375 240.055664062 53.0302734375 201.370117188 c 0
 52.966796875 172.58984375 61.6611328125 149.134765625 72.759765625 128.9296875 c 0
 81.8408203125 114.166992188 91.4326171875 99.1640625 104.950195312 88.0390625 c 0
 131.650390625 68.47265625 150.141601562 67.490234375 181.049804688 82.095703125 c 1
 227.133789062 111.840820312 245.857421875 159.017578125 244.21875 234.6015625 c 0
 243.916992188 270.874023438 238.9609375 305.590820312 236.711914062 339.732421875 c 0
 235.736328125 372.5546875 236.055664062 405.087890625 234.696289062 437.387695312 c 0
 234.99609375 475.921875 234.470703125 511.717773438 229.048828125 546.1796875 c 0
 223.6484375 578.697265625 217.577148438 611.306640625 210.424804688 642.717773438 c 1
 221.517578125 644.046875 232.5234375 645.926757812 243.491210938 648.046875 c 0
 281.598632812 645.944335938 284.903320312 705.82421875 246.795898438 707.927734375 c 1
154.284179688 132.97265625 m 1
 154.284179688 132.97265625 152.840820312 131.590820312 149.885742188 131.5390625 c 1
 152.362304688 132.533203125 153.73828125 132.927734375 154.284179688 132.97265625 c 1
149.858398438 131.52734375 m 1
 146.727539062 129.473632812 143.354492188 127.85546875 139.729492188 126.90625 c 1
 144.282226562 129.147460938 147.543945312 130.596679688 149.858398438 131.52734375 c 1
EndSplineSet
Validated: 524329
EndChar

StartChar: K
Encoding: 11 75 11
Width: 317
VWidth: 824
Flags: HW
LayerCount: 2
Fore
SplineSet
72.4697265625 691.642578125 m 1
 86.685546875 656.177734375 86.013671875 615.0078125 88.3974609375 572.211914062 c 0
 89.564453125 555.215820312 89.4306640625 538.182617188 89.978515625 521.161132812 c 0
 89.46875 504.60546875 89.7900390625 488.060546875 90.7158203125 471.52734375 c 0
 91.36328125 411.526367188 93.009765625 350.12890625 99.70703125 295.32421875 c 0
 101.68359375 264.303710938 104.892578125 232.358398438 103.993164062 199.803710938 c 0
 103.4140625 185.321289062 104.334960938 170.900390625 105.42578125 156.47265625 c 0
 108.768554688 137.256835938 110.22265625 114.859375 108.140625 94.541015625 c 0
 106.26171875 80.2265625 52.6015625 67.1806640625 44.923828125 89.6005859375 c 0
 29.9365234375 143.012695312 29.5546875 209.403320312 29.986328125 276.879882812 c 0
 30.4453125 293.1875 31.7451171875 309.415039062 31.7978515625 325.737304688 c 0
 30.4482421875 339.68359375 31.630859375 353.685546875 31.068359375 367.653320312 c 0
 29.03125 396.942382812 31.818359375 425.723632812 30.8720703125 454.645507812 c 0
 30.248046875 473.169921875 33.4375 489.96875 42.626953125 506.08203125 c 1
 68.44921875 533.627929688 76.9912109375 529.717773438 99.9931640625 536.907226562 c 0
 102.66015625 537.880859375 118.912109375 541.87890625 118.912109375 541.87890625 c 1
 114.552734375 540.69921875 105.927734375 538.024414062 105.927734375 538.024414062 c 1
 109.973632812 539.608398438 118.92578125 542.552734375 118.92578125 542.552734375 c 2
 132.380859375 547.36328125 144.220703125 555.546875 155.833007812 563.686523438 c 0
 170.01953125 571.751953125 181.653320312 583.137695312 194.030273438 593.572265625 c 0
 205.912109375 603.1171875 216.668945312 613.46875 224.924804688 626.271484375 c 0
 227.708984375 630.049804688 245.833007812 667.299804688 246.661132812 667.048828125 c 0
 247.6484375 666.752929688 246.149414062 664.4609375 247.120117188 663.987304688 c 0
 263.578125 655.416992188 281.135742188 649.083984375 297.608398438 640.541015625 c 1
 283.209960938 624.486328125 271.529296875 604.80859375 258.364257812 587.364257812 c 0
 235.25 558.774414062 207.145507812 533.901367188 171.424804688 518.353515625 c 0
 162.859375 515.19921875 154.28125 512.068359375 145.721679688 508.891601562 c 0
 133.459960938 504.33984375 120.607421875 506.35546875 111.051757812 501.91796875 c 1
 121.97265625 506.073242188 137.24609375 508.466796875 135.2578125 525.856445312 c 0
 132.303710938 551.731445312 112.888671875 558.064453125 132.903320312 550.637695312 c 1
 146.4375 551.618164062 161.822265625 543.021484375 172.770507812 535.893554688 c 0
 186.522460938 525.170898438 201.084960938 515.387695312 213.338867188 502.951171875 c 0
 235.833984375 479.557617188 248.928710938 449.797851562 259.33984375 415.081054688 c 0
 266.025390625 387.026367188 262.869140625 358.1953125 265.911132812 326.602539062 c 0
 266.91796875 312.516601562 269.166015625 298.560546875 271.067382812 284.572265625 c 0
 273.362304688 253.254882812 276.240234375 223.702148438 280.302734375 194.90625 c 0
 281.516601562 179.559570312 281.87890625 164.139648438 283.767578125 148.852539062 c 0
 284.71484375 121.857421875 303.131835938 96.423828125 294.1015625 66.087890625 c 0
 283.385742188 29.794921875 226.35546875 46.6328125 237.071289062 82.92578125 c 1
 236.649414062 81.2490234375 235.686523438 73.2666015625 235.686523438 73.2666015625 c 2
 235.170898438 73.29296875 232.872070312 92.4541015625 231.048828125 92.615234375 c 0
 227.395507812 107.577148438 221.247070312 122.087890625 220.659179688 137.673828125 c 0
 218.391601562 153.291015625 217.200195312 169.115234375 216.872070312 184.876953125 c 0
 213.330078125 227.157226562 205.684570312 273.827148438 202.892578125 317.091796875 c 0
 201.311523438 331.407226562 200.865234375 345.94140625 201.68359375 360.301757812 c 0
 199.553710938 404.608398438 188.908203125 437.40625 165.032226562 460.408203125 c 0
 154.936523438 469.227539062 144.48046875 477.763671875 133.639648438 485.637695312 c 0
 123.017578125 490.251953125 111.939453125 493.099609375 101.04296875 496.946289062 c 0
 73.03125 509.838867188 70.8056640625 524.900390625 82.5537109375 549.587890625 c 0
 88.333984375 561.584960938 113.375976562 564.834960938 127.807617188 567.448242188 c 0
 134.361328125 568.63671875 158.116210938 579.372070312 130.73828125 567.663085938 c 1
 143.173828125 573.311523438 155.890625 577.766601562 166.668945312 586.66796875 c 0
 180.97265625 593.99609375 189.9609375 608.130859375 201.266601562 619.087890625 c 0
 213.252929688 631.1015625 221.053710938 646.688476562 231.926757812 659.693359375 c 0
 233.762695312 662.08984375 245.897460938 680.169921875 248.712890625 679.7265625 c 0
 299.873046875 671.940429688 311.840820312 679.893554688 306.602539062 649.341796875 c 0
 301.52734375 632.591796875 294.280273438 616.358398438 284.764648438 601.668945312 c 0
 274.026367188 583.720703125 262.784179688 566.662109375 245.805664062 553.857421875 c 0
 231.740234375 542.2890625 218.350585938 529.864257812 203.211914062 519.671875 c 0
 187.6640625 510.521484375 174.159179688 497.904296875 156.946289062 491.44140625 c 0
 130.182617188 481.97265625 137.001953125 483.319335938 99.3212890625 473.733398438 c 1
 103.7421875 475.328125 112.578125 478.51953125 112.578125 478.51953125 c 1
 105.098632812 475.733398438 97.9228515625 471.84765625 90.0966796875 470.294921875 c 0
 85.0244140625 469.287109375 99.4951171875 474.616210938 104.157226562 476.848632812 c 0
 106.255859375 477.846679688 96.134765625 474.426757812 97.1171875 476.1953125 c 0
 96.7138671875 487.97265625 93.4794921875 460.372070312 94.95703125 459.20703125 c 0
 94.6611328125 431.102539062 92.3828125 403.194335938 94.5537109375 374.770507812 c 0
 95.5908203125 359.693359375 94.1083984375 344.658203125 95.8896484375 329.625 c 0
 95.775390625 313.638671875 95.9912109375 297.697265625 94.8076171875 281.748046875 c 0
 96.072265625 234.29296875 94.1396484375 185.916015625 98.62890625 141.36328125 c 0
 100.805664062 130.782226562 102.338867188 120.041992188 104.147460938 109.443359375 c 0
 111.684570312 85.4208984375 108.76953125 100.557617188 47.587890625 86.0263671875 c 0
 46.5419921875 85.8056640625 44.6689453125 103.262695312 44.8046875 105.411132812 c 0
 43.55078125 119.881835938 44.6787109375 134.4296875 41.919921875 148.756835938 c 0
 40.83984375 165.315429688 38.9443359375 181.802734375 39.5693359375 198.442382812 c 0
 43.6533203125 243.80859375 33.5634765625 286.247070312 32.435546875 329.431640625 c 0
 31.34375 343.88671875 32.6962890625 358.33984375 30.48828125 372.70703125 c 0
 29.7177734375 404.276367188 25.7060546875 434.856445312 26.4306640625 465.248046875 c 0
 25.994140625 482.236328125 24.35546875 499.211914062 25.43359375 516.196289062 c 0
 25.369140625 551.357421875 26.439453125 585.91796875 19.619140625 616.377929688 c 0
 17.119140625 637.095703125 13.8134765625 657.706054688 10.79296875 678.357421875 c 0
 2.3408203125 717.608398438 64.0146484375 730.893554688 72.4697265625 691.642578125 c 1
EndSplineSet
Validated: 524325
EndChar

StartChar: L
Encoding: 12 76 12
Width: 206
VWidth: 824
Flags: HW
LayerCount: 2
Fore
SplineSet
14.33203125 510.291015625 m 0
 16.3818359375 546.936523438 11.2421875 582.874023438 11.4482421875 618.615234375 c 0
 10.40625 641.318359375 8.4853515625 664.125976562 12.11328125 686.725585938 c 1
 10.08984375 726.876953125 73.1845703125 730.052734375 75.205078125 689.901367188 c 1
 79.8955078125 650.118164062 76.7724609375 608.823242188 78.341796875 567.279296875 c 0
 79.0283203125 549.094726562 79.6435546875 530.854492188 79.3740234375 512.653320312 c 0
 79.4853515625 460.736328125 81.2861328125 409.43359375 79.861328125 357.608398438 c 0
 79.861328125 340.130859375 79.4853515625 322.66796875 79.171875 305.193359375 c 0
 79.5361328125 270.713867188 84.51171875 236.834960938 87.2373046875 203.357421875 c 0
 90.072265625 167.828125 88.7548828125 133.307617188 88.2451171875 97.2333984375 c 0
 88.16796875 92.26953125 89.4912109375 96.537109375 90.6904296875 96.4423828125 c 1
 90.345703125 99.6171875 92.1328125 97.3193359375 94.3310546875 97.546875 c 0
 101.067382812 98.2548828125 108.337890625 98.603515625 115.650390625 98.025390625 c 0
 130.694335938 93.8759765625 141.504882812 96.345703125 155.779296875 97.9853515625 c 0
 167.05078125 97.958984375 162.036132812 97.4931640625 170.853515625 98.8447265625 c 0
 211.103515625 93.142578125 202.14453125 29.8955078125 161.89453125 35.59765625 c 1
 127.885742188 33.6884765625 75.318359375 32.166015625 49.896484375 48.876953125 c 0
 33.236328125 62.4638671875 23.46484375 79.912109375 24.267578125 101.916015625 c 0
 26.8974609375 133.653320312 23.6455078125 163.729492188 22.943359375 194.626953125 c 0
 19.625 229.926757812 16.7724609375 265.5078125 14.376953125 301.9296875 c 0
 14.6474609375 319.854492188 15.0283203125 337.776367188 14.666015625 355.709960938 c 0
 15.7470703125 373.341796875 14.67578125 390.969726562 15.1123046875 408.608398438 c 0
 14.9716796875 425.764648438 14.388671875 442.895507812 15.455078125 460.053710938 c 0
 15.03125 476.799804688 15.2568359375 493.528320312 14.33203125 510.291015625 c 0
EndSplineSet
Validated: 524321
EndChar

StartChar: M
Encoding: 13 77 13
Width: 338
VWidth: 824
Flags: HW
LayerCount: 2
Fore
SplineSet
246.63671875 108.263671875 m 0
 249.6875 134.788085938 248.580078125 162.374023438 251.569335938 190.33203125 c 0
 251.064453125 206.497070312 251.125976562 222.63671875 249.836914062 238.803710938 c 0
 250.484375 255.407226562 248.413085938 271.892578125 248.21484375 288.484375 c 0
 249.030273438 305.66015625 247.159179688 322.76953125 247.651367188 339.950195312 c 0
 251.952148438 389.654296875 250.918945312 441.462890625 253.291015625 493.41796875 c 0
 252.795898438 548.455078125 261.495117188 601.927734375 263.104492188 655.34765625 c 0
 263.659179688 658.963867188 263.586914062 689.431640625 269.713867188 677.956054688 c 0
 273.599609375 674.762695312 276.377929688 668.961914062 281.374023438 668.375 c 0
 318.03515625 664.0703125 319.858398438 688.998046875 307.837890625 667.315429688 c 0
 287.143554688 636.354492188 266.579101562 604.495117188 250.741210938 569.100585938 c 0
 243.233398438 553.744140625 233.3125 539.813476562 225.543945312 524.572265625 c 0
 218.63671875 510.515625 214.22265625 495.173828125 203.921875 483.068359375 c 0
 179.868164062 451.803710938 150.198242188 450.9140625 127.787109375 482.654296875 c 0
 120.8125 496.668945312 117.434570312 512.077148438 109.940429688 525.901367188 c 0
 88.490234375 570.223632812 59.3291015625 610.169921875 39.41015625 656.943359375 c 0
 38.453125 659.399414062 27.0498046875 679.057617188 34.296875 671.69921875 c 1
 47.34375 674.612304688 61.0615234375 675.384765625 73.4365234375 680.440429688 c 0
 79.3564453125 682.857421875 75.94140625 695.244140625 75.640625 683.561523438 c 0
 75.5732421875 680.860351562 75.6533203125 678.155273438 75.66015625 675.456054688 c 0
 75.6484375 660.978515625 76.0771484375 646.541015625 75.0771484375 632.094726562 c 0
 75.859375 615.674804688 73.9072265625 599.357421875 75.1748046875 582.954101562 c 0
 74.541015625 566.342773438 76.6728515625 549.853515625 76.9443359375 533.255859375 c 0
 76.2265625 516.016601562 78.259765625 498.869140625 78.181640625 481.631835938 c 0
 77.1689453125 464.174804688 78.3271484375 446.734375 78.130859375 429.2734375 c 0
 78.5849609375 412.428710938 79.4248046875 395.614257812 79.0419921875 378.741210938 c 0
 79.8095703125 362.811523438 77.9013671875 346.9921875 79.16796875 331.084960938 c 0
 78.4931640625 315.879882812 80.7294921875 300.826171875 80.8857421875 285.6328125 c 0
 79.064453125 251.094726562 79.23828125 216.23046875 82.8017578125 183.13671875 c 0
 85.189453125 159.724609375 88.806640625 136.3125 87.2998046875 112.700195312 c 1
 92.853515625 72.66015625 29.9365234375 63.93359375 24.3828125 103.97265625 c 1
 19.2265625 127.025390625 18.392578125 150.891601562 16.826171875 174.401367188 c 0
 13.5966796875 210.544921875 15.412109375 247.354492188 16.75 283.856445312 c 0
 16.9091796875 298.331054688 15.1064453125 312.697265625 14.802734375 327.153320312 c 0
 13.5322265625 342.407226562 15.33203125 357.65625 15.181640625 372.916015625 c 0
 14.1044921875 424.208007812 12.2216796875 477.823242188 12.04296875 529.9765625 c 0
 12.1435546875 546.446289062 10.5517578125 562.849609375 10.3583984375 579.306640625 c 0
 9.2294921875 595.01171875 11.134765625 610.688476562 11.05078125 626.391601562 c 0
 11.1982421875 641.274414062 12.0244140625 656.10546875 11.810546875 670.998046875 c 0
 10.78125 679.388671875 14.5234375 712.763671875 24.1572265625 716.099609375 c 0
 38.34765625 721.012695312 53.9296875 720.065429688 68.81640625 722.047851562 c 1
 82.6201171875 712.322265625 91.203125 696.80859375 98.029296875 681.69140625 c 0
 111.000976562 653.677734375 125.6328125 627.596679688 141.282226562 602.219726562 c 0
 151.524414062 586.33984375 161.170898438 569.831054688 169.073242188 552.642578125 c 0
 176.637695312 538.87890625 179.604492188 523.295898438 185.380859375 508.849609375 c 1
 180.892578125 524.470703125 164.482421875 519.2421875 150.911132812 514.970703125 c 1
 156.766601562 523.3828125 159.918945312 533.083984375 163.860351562 542.515625 c 0
 170.584960938 559.01953125 180.263671875 574.020507812 188.631835938 589.676757812 c 0
 205.72265625 626.944335938 225.998046875 661.03125 247.698242188 693.900390625 c 0
 262.828125 714.307617188 276.854492188 729.2734375 307.104492188 723.024414062 c 0
 313.547851562 721.694335938 316.65625 713.971679688 321.431640625 709.4453125 c 0
 330.46875 692.223632812 329.26171875 672.8046875 327.90625 653.995117188 c 0
 324.024414062 584.220703125 316.680664062 518.15234375 316.987304688 444.5 c 0
 316.565429688 410.065429688 314.264648438 375.329101562 312.590820312 340.649414062 c 0
 309.797851562 292.033203125 315.673828125 244.592773438 315.520507812 195.32421875 c 0
 314.45703125 159.368164062 312.319335938 114.6640625 306.072265625 92.2783203125 c 0
 296.440429688 54.7978515625 237.546875 69.931640625 247.177734375 107.412109375 c 1
 246.510742188 101.869140625 246.745117188 102.134765625 246.63671875 108.263671875 c 0
EndSplineSet
Validated: 524325
EndChar

StartChar: N
Encoding: 14 78 14
Width: 275
VWidth: 824
Flags: HW
LayerCount: 2
Fore
SplineSet
14.11328125 178.276367188 m 0
 15.77734375 199.084960938 15.6728515625 219.986328125 15.86328125 240.849609375 c 0
 17.0869140625 257.890625 17.58203125 274.934570312 17.03125 292.0078125 c 0
 17.11328125 309.099609375 17.1728515625 326.185546875 17.224609375 343.275390625 c 0
 16.9609375 359.611328125 17.0361328125 375.9140625 17.419921875 392.25390625 c 0
 16.97265625 442.862304688 26.8427734375 489.461914062 22.6845703125 540.01953125 c 0
 21.6650390625 557.012695312 22.265625 573.969726562 22.8876953125 590.958984375 c 0
 22.25 605.005859375 23.8583984375 619.012695312 23.6328125 633.052734375 c 0
 23.0380859375 650.723632812 23.9423828125 667.760742188 29.75 684.506835938 c 0
 51.4423828125 722.086914062 83.3662109375 712.83984375 101.618164062 681.052734375 c 0
 119.586914062 644.126953125 125.091796875 599.4296875 134.8203125 556.162109375 c 0
 142.553710938 518.7265625 151.75 481.259765625 158.125 442.5234375 c 0
 162.244140625 405.442382812 171.692382812 369.321289062 179.670898438 334.021484375 c 0
 184.603515625 313.928710938 188.680664062 293.642578125 193.37890625 273.498046875 c 0
 201.43359375 241.000976562 215.381835938 210.734375 226.002929688 180.094726562 c 0
 230.7265625 165.807617188 235.634765625 151.6640625 241.34375 137.727539062 c 1
 238.432617188 139.825195312 235.83984375 143.779296875 232.28125 143.555664062 c 0
 204.91796875 141.82421875 206.9765625 142.05078125 198.416992188 129.043945312 c 1
 195.15234375 111.057617188 198.20703125 143.553710938 198.149414062 145.498046875 c 0
 197.375976562 159.16015625 197.118164062 172.80078125 197.2265625 186.498046875 c 0
 195.209960938 255.374023438 201.951171875 317.831054688 201.168945312 385.529296875 c 0
 200.997070312 420.090820312 199.43359375 453.2734375 195.873046875 484.575195312 c 0
 185.34375 544.486328125 186.435546875 620.924804688 192.017578125 685.649414062 c 0
 192.703125 688.563476562 193.389648438 691.483398438 194.083984375 694.397460938 c 0
 198.193359375 734.489257812 261.196289062 728.026367188 257.083007812 687.934570312 c 1
 254.672851562 671.408203125 255.64453125 654.10546875 253.793945312 637.286132812 c 0
 253.70703125 605.765625 254.237304688 574.227539062 254.282226562 542.704101562 c 0
 255.99609375 526.629882812 255.685546875 510.306640625 259.2265625 494.442382812 c 0
 262.73046875 461.87109375 266.790039062 428.094726562 265.434570312 390.955078125 c 0
 265.971679688 374.9765625 264.994140625 358.903320312 265.166992188 342.924804688 c 0
 264.869140625 307.904296875 262.2578125 273.375976562 261.532226562 239.196289062 c 0
 260.1171875 222.655273438 262.296875 206.013671875 260.875 189.431640625 c 0
 260.296875 176.404296875 260.6875 163.502929688 261.1171875 150.498046875 c 0
 261.336914062 135.689453125 259.58203125 102.073242188 248.330078125 95.9521484375 c 0
 214.291015625 77.4169921875 198.763671875 85.1123046875 181.908203125 113.825195312 c 1
 169.91796875 143.208984375 160.29296875 173.475585938 148.640625 203.045898438 c 0
 127.926757812 256.157226562 114.586914062 315.069335938 103.943359375 377.895507812 c 0
 93.013671875 432.110351562 84.029296875 487.20703125 71.263671875 539.081054688 c 0
 61.119140625 577.40234375 54.2705078125 616.477539062 44.5126953125 654.697265625 c 0
 44.1533203125 659.380859375 49.7841796875 651.455078125 52.30078125 651.466796875 c 0
 68.6796875 651.5625 85.396484375 648.4296875 89.435546875 666.219726562 c 0
 87.705078125 672.944335938 87.48046875 641.814453125 87.2392578125 639.040039062 c 0
 87.9931640625 623.556640625 86.0927734375 608.21484375 87.1474609375 592.743164062 c 0
 86.3681640625 577.595703125 86.4111328125 562.520507812 86.7353515625 547.376953125 c 0
 87.44921875 530.76953125 89.560546875 514.202148438 88.58203125 497.567382812 c 0
 87.8857421875 448.228515625 80.3359375 400.685546875 81.8916015625 348.223632812 c 0
 82.365234375 331.211914062 81.2919921875 314.123046875 81.501953125 297.11328125 c 0
 81.5751953125 279.783203125 82.6044921875 262.458984375 81.4326171875 245.153320312 c 0
 82.203125 197.211914062 83.08984375 150.981445312 73.6728515625 108.76171875 c 1
 73.4248046875 68.24609375 9.759765625 68.638671875 10.0087890625 109.154296875 c 0
 9.8330078125 132.266601562 12.4189453125 155.262695312 14.11328125 178.276367188 c 0
EndSplineSet
Validated: 524325
EndChar

StartChar: Ntilde
Encoding: 15 209 15
Width: 374
VWidth: 824
Flags: HW
LayerCount: 2
Fore
SplineSet
199.797851562 709.313476562 m 0
 185.838867188 695.076171875 179.728515625 676.24609375 171.297851562 658.686523438 c 0
 164.997070312 644.000976562 153.502929688 632.916992188 143.438476562 620.772460938 c 0
 139.802734375 616.262695312 127.827148438 598.671875 119.659179688 601.737304688 c 0
 104.21484375 614.168945312 106.055664062 642.02734375 106.055664062 666.625976562 c 0
 106.756835938 706.858398438 43.5419921875 707.962890625 42.8369140625 667.731445312 c 1
 35.8291015625 622.171875 51.0595703125 577.060546875 76.9365234375 555.368164062 c 0
 103.9609375 534.375976562 124.530273438 534.584960938 156.000976562 549.235351562 c 0
 173.2265625 560.111328125 188.822265625 572.9609375 200.922851562 589.567382812 c 0
 213.565429688 605.2734375 225.852539062 621.2578125 233.215820312 640.262695312 c 0
 238.07421875 651.268554688 242.149414062 662.858398438 251.079101562 671.299804688 c 1
 248.282226562 670.075195312 242.353515625 667.834960938 239.627929688 667.221679688 c 0
 235.306640625 666.245117188 253.002929688 679.637695312 250.510742188 672.086914062 c 1
 259.1484375 676.526367188 271.637695312 655.282226562 275.981445312 650.797851562 c 0
 286.842773438 634.40234375 293.357421875 616.09375 302.995117188 599.110351562 c 1
 317.739257812 561.806640625 376.442382812 584.797851562 361.764648438 622.192382812 c 1
 348.88671875 668.8828125 321.029296875 713.083007812 277.659179688 729.768554688 c 0
 269.6171875 732.103515625 261.624023438 733.181640625 253.813476562 733.053710938 c 0
 233.854492188 732.729492188 215.094726562 724.529296875 199.797851562 709.313476562 c 0
251.079101562 671.299804688 m 1
 252.627929688 671.978515625 251.758789062 671.950195312 251.758789062 671.950195312 c 1
 251.524414062 671.739257812 251.307617188 671.515625 251.079101562 671.299804688 c 1
128.104492188 602.819335938 m 0
 128.512695312 602.696289062 126.166015625 601.561523438 123.418945312 601.327148438 c 1
 126.46484375 602.553710938 127.846679688 602.897460938 128.104492188 602.819335938 c 0
123.045898438 601.174804688 m 1
 119.845703125 599.168945312 116.44140625 597.548828125 112.791992188 596.524414062 c 1
 117.34375 598.728515625 120.663085938 600.202148438 123.045898438 601.174804688 c 1
299.209960938 512.688476562 m 0
 297.287109375 468.790039062 293.827148438 405.861328125 294.959960938 351.110351562 c 0
 294.213867188 286.504882812 289.854492188 222.950195312 285.334960938 161.473632812 c 1
 270.194335938 184.165039062 249.241210938 204.169921875 237.008789062 229.131835938 c 0
 229.874023438 244.028320312 221.724609375 258.432617188 215.069335938 273.569335938 c 0
 201.53125 307.583984375 188.029296875 341.451171875 174.172851562 375.108398438 c 0
 166.116210938 393.967773438 158.30078125 412.993164062 147.122070312 430.290039062 c 0
 128.489257812 458.6796875 73.7333984375 583.471679688 19.9833984375 511.475585938 c 1
 7.1455078125 484.245117188 10.681640625 450.895507812 10.6552734375 415.508789062 c 0
 10.986328125 401.64453125 9.4541015625 387.786132812 10.4541015625 373.924804688 c 0
 9.2392578125 305.965820312 10.892578125 237.212890625 10.4755859375 168.584960938 c 0
 10.515625 147.153320312 9.9326171875 125.393554688 13.8720703125 104.262695312 c 1
 16.279296875 64.51953125 78.9599609375 67.4169921875 76.9423828125 107.438476562 c 0
 78.0703125 129.470703125 77.123046875 151.477539062 76.6162109375 173.495117188 c 0
 76.8212890625 193.129882812 75.546875 212.75 76.5615234375 232.377929688 c 0
 74.99609375 265.678710938 76.3525390625 298.912109375 75.0634765625 331.954101562 c 0
 74.4365234375 346.880859375 73.9296875 361.719726562 74.4794921875 376.666992188 c 0
 73.185546875 391.73828125 74.9873046875 406.71484375 74.1708984375 421.809570312 c 0
 74.279296875 423.350585938 74.361328125 424.891601562 74.4365234375 426.432617188 c 1
 105.774414062 373.090820312 131.541015625 311.94921875 154.243164062 250.360351562 c 0
 161.139648438 233.526367188 170.330078125 217.782226562 178.666992188 201.655273438 c 0
 192.158203125 171.838867188 217.158203125 148.310546875 234.750976562 121.754882812 c 0
 244.053710938 105.944335938 254.978515625 91.517578125 270.383789062 81.3193359375 c 0
 300.890625 62.8857421875 328.083984375 78.203125 339.819335938 108.247070312 c 0
 345.065429688 124.56640625 348.556640625 141.608398438 349.860351562 158.698242188 c 0
 351.099609375 177.204101562 354.073242188 195.563476562 354.678710938 214.094726562 c 0
 355.155273438 230.768554688 355.006835938 247.409179688 355.866210938 264.083007812 c 0
 358.76171875 278.401367188 356.537109375 293.090820312 358.561523438 307.459960938 c 0
 359.462890625 322.720703125 358.22265625 337.973632812 359.374023438 353.227539062 c 0
 358.991210938 370.083007812 359.354492188 386.926757812 359.620117188 403.774414062 c 0
 361.951171875 418.743164062 359.4609375 433.94140625 361.276367188 448.913085938 c 0
 361.803710938 470.884765625 362.983398438 500.323242188 364.135742188 513.526367188 c 0
 363.870117188 534.185546875 347.498046875 544.305664062 331.262695312 544.096679688 c 0
 315.02734375 543.885742188 298.927734375 533.346679688 299.209960938 512.688476562 c 0
76.7685546875 486.397460938 m 1
 76.931640625 487.3125 77.5888671875 488.075195312 77.7451171875 488.647460938 c 1
 77.357421875 487.778320312 77.08984375 487.143554688 76.7685546875 486.397460938 c 1
306.653320312 133.135742188 m 1
 308.858398438 132.188476562 310.756835938 130.634765625 312.106445312 128.295898438 c 1
 310.239257812 129.87109375 308.424804688 131.485351562 306.653320312 133.135742188 c 1
EndSplineSet
Validated: 524325
EndChar

StartChar: O
Encoding: 16 79 16
Width: 309
VWidth: 824
Flags: HW
LayerCount: 2
Fore
SplineSet
213.807617188 708.958984375 m 1
 271.301757812 705.3984375 299.629882812 636.736328125 299.869140625 565.796875 c 0
 298.9921875 548.884765625 297.8125 532.046875 296.5234375 515.150390625 c 0
 289.26171875 467.338867188 286.630859375 419.1171875 282.333007812 368.657226562 c 0
 281.274414062 353.849609375 280.47265625 339.084960938 280.641601562 324.248046875 c 0
 281.440429688 306.720703125 282.836914062 289.235351562 281.400390625 271.68359375 c 0
 277.826171875 213.181640625 277.483398438 159.118164062 251.697265625 120.818359375 c 0
 235.772460938 97.52734375 217.943359375 83.4609375 189.510742188 77.1318359375 c 0
 143.764648438 69.7822265625 110.869140625 86.234375 87.1162109375 109.34765625 c 0
 72.4296875 122.884765625 58.50390625 137.380859375 49.46484375 155.443359375 c 0
 30.02734375 196.911132812 13.689453125 240.072265625 10.060546875 295.5 c 0
 10.0810546875 308.896484375 9.6845703125 322.254882812 10.6884765625 335.615234375 c 0
 10.0322265625 350.69140625 11.9365234375 365.609375 11.23828125 380.684570312 c 0
 13.6357421875 414.37890625 13.3671875 447.688476562 17.6201171875 480.185546875 c 0
 18.5068359375 496.303710938 19.8056640625 512.379882812 19.5771484375 528.524414062 c 0
 23.0546875 568.997070312 22.4013671875 604.405273438 35.2841796875 637.397460938 c 0
 45.08984375 656.915039062 56.7587890625 675.995117188 76.025390625 687.512695312 c 0
 114.174804688 708.208007812 168.168945312 720.01953125 214.53125 698.864257812 c 0
 248.185546875 681.069335938 220.223632812 628.186523438 186.567382812 645.982421875 c 1
 170.791992188 647.840820312 155.262695312 650.090820312 139.314453125 648.344726562 c 0
 136.50390625 648.41796875 111.922851562 639.870117188 111.922851562 639.870117188 c 1
 114.772460938 641.751953125 118.346679688 642.198242188 121.625 643.168945312 c 1
 121.625 643.168945312 117.883789062 641.780273438 116.009765625 641.084960938 c 0
 82.0478515625 628.61328125 83.5693359375 571.967773438 81.2236328125 529.014648438 c 0
 81.0341796875 495.859375 76.5673828125 463.229492188 75.4521484375 430.791992188 c 0
 74.69140625 414.188476562 73.40625 397.633789062 72.240234375 381.0546875 c 0
 72.4287109375 367.67578125 70.796875 354.359375 70.9013671875 340.98828125 c 0
 70.603515625 313.590820312 69.267578125 288.068359375 74.7685546875 264.686523438 c 0
 78.2587890625 250.591796875 83.8037109375 237.184570312 88.3505859375 223.434570312 c 0
 94.1748046875 209.336914062 98.5322265625 194.577148438 105.1953125 180.846679688 c 0
 111.805664062 169.142578125 122.016601562 160.260742188 132.087890625 151.62109375 c 0
 146.706054688 137.109375 166.736328125 127.544921875 191.041015625 137.395507812 c 1
 165.239257812 127.954101562 188.985351562 137.640625 196.37109375 147.212890625 c 0
 217.115234375 175.205078125 218.520507812 224.489257812 220.203125 270.265625 c 0
 220.431640625 286.279296875 220.353515625 302.26171875 219.75390625 318.266601562 c 0
 220.418945312 370.163085938 225.7890625 416.409179688 229.110351562 463.736328125 c 0
 232.83984375 496.771484375 236.776367188 530.138671875 238.633789062 564.5390625 c 0
 240.685546875 595.16015625 230.016601562 621.81640625 219.20703125 643.905273438 c 0
 216.59375 648.140625 210.682617188 654.641601562 205.099609375 652.6796875 c 0
 204.708984375 649.41015625 205.497070312 651.024414062 200.141601562 650.732421875 c 0
 163.086914062 659.4296875 176.75390625 717.65625 213.807617188 708.958984375 c 1
EndSplineSet
Validated: 524325
EndChar

StartChar: P
Encoding: 17 80 17
Width: 297
VWidth: 824
Flags: HW
LayerCount: 2
Fore
SplineSet
16.716796875 571.486328125 m 0
 16.8310546875 610.619140625 12.013671875 649.6640625 13.2333984375 688.841796875 c 0
 11.2099609375 728.994140625 74.3046875 732.169921875 76.326171875 692.018554688 c 1
 80.0390625 672.161132812 80.0400390625 651.794921875 80.181640625 631.64453125 c 0
 77.7490234375 557.759765625 89.3876953125 486.203125 90.908203125 411.640625 c 0
 92.1064453125 375.484375 92.7861328125 339 93.5478515625 302.131835938 c 0
 92.2353515625 268.200195312 94.2919921875 233.666992188 94.3818359375 198.87890625 c 0
 93.6865234375 166.286132812 92.07421875 134.490234375 89.599609375 103.56640625 c 0
 88.7431640625 62.48046875 91.1650390625 79.3388671875 25.6728515625 77.7802734375 c 1
 23.2158203125 92.828125 23.4990234375 108.104492188 23.5341796875 123.297851562 c 0
 21.5751953125 157.119140625 21.734375 190.915039062 20.451171875 224.561523438 c 0
 20.0400390625 243.374023438 22.0087890625 262.118164062 22.009765625 280.91796875 c 0
 21.505859375 297.079101562 21.19921875 313.206054688 21.330078125 329.383789062 c 0
 20.8994140625 358.716796875 18.4111328125 388.340820312 15.8212890625 417.258789062 c 0
 8.90234375 459.611328125 10.3017578125 505.736328125 10 553.090820312 c 0
 11.02734375 567.602539062 11.1484375 582.112304688 10.4970703125 596.638671875 c 0
 10.72265625 615.065429688 12.44921875 633.52734375 16.16796875 651.580078125 c 0
 32.6806640625 710.18359375 101.99609375 741.706054688 173.408203125 719.13671875 c 1
 230.888671875 711.358398438 269.442382812 666.059570312 283.969726562 614.37109375 c 0
 299.8125 545.215820312 264.944335938 493.704101562 230.920898438 459.622070312 c 0
 218.625976562 450.423828125 206.622070312 438.200195312 192.142578125 432.280273438 c 0
 169.336914062 422.94921875 140.79296875 415.494140625 109.627929688 418.591796875 c 0
 87.0498046875 422.28125 63.55859375 432.357421875 47.009765625 445.803710938 c 0
 16.9638671875 472.342773438 58.6650390625 519.556640625 88.7119140625 493.017578125 c 1
 101.65234375 489.139648438 112.568359375 481.037109375 126.494140625 480.49609375 c 0
 139.064453125 480.81640625 151.3828125 482.318359375 163.21875 486.801757812 c 1
 131.366210938 473.302734375 172.58984375 489.711914062 177.21875 495.879882812 c 0
 188.799804688 506.633789062 198.54296875 518.765625 208.423828125 531.111328125 c 0
 216.478515625 539.934570312 219.75 552.55078125 221.526367188 564.124023438 c 0
 222.536132812 575.228515625 225.443359375 585.65625 222.748046875 596.873046875 c 0
 220.236328125 607.334960938 216.146484375 617.626953125 209.887695312 626.416992188 c 0
 202.494140625 635.955078125 192.256835938 642.635742188 182.555664062 649.607421875 c 0
 171.1484375 656.13671875 157.689453125 657.451171875 145.212890625 661.043945312 c 0
 133.235351562 664.057617188 120.915039062 664.216796875 108.642578125 662.891601562 c 0
 102.188476562 661.365234375 85.5078125 655.336914062 111.662109375 665.59375 c 1
 111.662109375 665.59375 92.0234375 659.111328125 97.2021484375 659.67578125 c 1
 76.29296875 655.58984375 76.986328125 623.6640625 74.5439453125 601.84765625 c 0
 74.5439453125 572.30078125 75.19140625 542.228515625 73.2138671875 512.256835938 c 0
 74.7119140625 482.1015625 73.5810546875 453.204101562 79.2939453125 425.890625 c 0
 80.5966796875 409.7890625 82.8525390625 393.78125 83.0537109375 377.592773438 c 0
 82.462890625 362.541992188 84.802734375 347.669921875 85.359375 332.651367188 c 0
 84.9619140625 317.271484375 85.826171875 302.03125 86.7158203125 286.690429688 c 0
 87.6435546875 267.850585938 86.396484375 249.096679688 85.5791015625 230.26953125 c 0
 86.19140625 195.879882812 85.359375 161.06640625 87.6982421875 126.625976562 c 0
 87.3154296875 113.977539062 86.5029296875 101.169921875 87.892578125 88.5986328125 c 1
 20.005859375 73.6083984375 26.458984375 59.2646484375 25.7236328125 104.123046875 c 0
 28.591796875 132.90234375 27.6259765625 162.796875 29.7939453125 193.66796875 c 0
 29.2333984375 210.715820312 30.2001953125 227.836914062 29.658203125 244.885742188 c 0
 29.2041015625 262.401367188 27.5439453125 279.901367188 28.6142578125 297.416992188 c 0
 28.5751953125 334.875 28.9375 371.869140625 26.0986328125 407.215820312 c 0
 26.39453125 425.2421875 23.671875 443.072265625 22.7919921875 461.051757812 c 0
 22.7265625 498.655273438 19.3095703125 535.537109375 16.716796875 571.486328125 c 0
EndSplineSet
Validated: 524325
EndChar

StartChar: Q
Encoding: 18 81 18
Width: 321
VWidth: 824
Flags: HW
LayerCount: 2
Fore
SplineSet
309.049804688 347.821289062 m 0
 310.791992188 381.641601562 310.383789062 415.435546875 311.458007812 449.225585938 c 0
 311.073242188 467.13671875 308.6328125 484.897460938 309.072265625 502.825195312 c 0
 308.583984375 542.322265625 303.09765625 576.819335938 291.083984375 607.090820312 c 0
 284.608398438 621.153320312 276.845703125 634.291015625 267.91796875 646.807617188 c 1
 268.952148438 666.033203125 249.446289062 683.01953125 237.997070312 691.931640625 c 0
 215.830078125 709.168945312 182.498046875 723.647460938 145.7421875 717.91015625 c 0
 121.228515625 710.2421875 101.057617188 699.124023438 82.158203125 682.2109375 c 0
 51.68359375 656.192382812 33.4716796875 612.875 21.9091796875 569.796875 c 0
 9.22265625 519.078125 9.2880859375 458.55078125 10.5322265625 399.024414062 c 0
 11.0029296875 381.95703125 10.0087890625 364.819335938 10.5517578125 347.752929688 c 0
 11.0791015625 332.197265625 11.6201171875 316.727539062 11.029296875 301.157226562 c 0
 11.9482421875 285.081054688 12.9619140625 269.05078125 13.822265625 252.961914062 c 0
 14.2880859375 232.3125 19.6142578125 212.341796875 23.3994140625 192.17578125 c 0
 27.609375 171.349609375 37.23828125 152.247070312 48.3720703125 134.33984375 c 0
 59.5 116.913085938 76.6044921875 105.103515625 93.3427734375 93.6064453125 c 0
 130.721679688 69.8642578125 174.657226562 70.10546875 214.216796875 89.810546875 c 1
 218.529296875 81.1572265625 222.44140625 72.4130859375 228.053710938 64.48828125 c 0
 244.962890625 28.5810546875 301.412109375 55.1591796875 284.50390625 91.06640625 c 0
 279.388671875 105.818359375 272.102539062 119.801757812 265.874023438 134.072265625 c 1
 277.840820312 151.876953125 287.926757812 170.55859375 297.303710938 190.185546875 c 0
 304.528320312 209.171875 308.024414062 228.887695312 310.654296875 248.901367188 c 0
 311.89453125 265.87109375 309.794921875 282.79296875 310.624023438 299.76171875 c 0
 309.412109375 315.79296875 309.525390625 331.794921875 309.049804688 347.821289062 c 0
192.493164062 630.545898438 m 1
 231.944335938 610.111328125 244.07421875 557.515625 244.170898438 498.76171875 c 0
 244.400390625 481.090820312 246.115234375 463.489257812 246.037109375 445.8046875 c 0
 246.052734375 427.89453125 246.954101562 409.954101562 245.77734375 392.048828125 c 0
 245.896484375 375.622070312 245.073242188 359.239257812 245.125976562 342.813476562 c 0
 244.94140625 292.485351562 251.35546875 244.303710938 233.666015625 206.741210938 c 1
 230.036132812 214.443359375 226.203125 222.048828125 221.424804688 229.157226562 c 0
 206.736328125 266.581054688 147.9296875 243.48046875 162.618164062 206.057617188 c 0
 169.265625 185.471679688 178.228515625 165.66796875 187.959960938 146.348632812 c 1
 187.485351562 146.118164062 172.395507812 138.8046875 172.395507812 138.8046875 c 1
 176.756835938 139.44921875 180.548828125 142.344726562 184.86328125 143.26953125 c 0
 190.626953125 144.504882812 169.62890625 134.8671875 170.333007812 137.826171875 c 1
 157.916992188 138.120117188 146.400390625 136.153320312 135.119140625 143.1171875 c 0
 124.171875 150.153320312 112.162109375 156.49609375 104.578125 167.41015625 c 0
 96.724609375 179.063476562 89.5029296875 191.501953125 87.3779296875 205.592773438 c 0
 82.1630859375 236.9921875 75.375 267.973632812 75.150390625 303.75 c 0
 75.5244140625 320.157226562 75.5751953125 336.538085938 75.265625 352.94140625 c 0
 75.265625 424.002929688 69.5927734375 502.077148438 87.1640625 559.587890625 c 0
 96.2978515625 591.908203125 109.7734375 624.408203125 133.609375 643.318359375 c 0
 135.49609375 644.751953125 141.653320312 648.112304688 146.975585938 651.090820312 c 1
 152.090820312 633.026367188 175.165039062 620.880859375 192.493164062 630.545898438 c 1
190.942382812 631.354492188 m 1
 185.991210938 629.780273438 181.342773438 630.423828125 180.75 635.532226562 c 1
 184.317382812 634.376953125 187.6875 632.934570312 190.942382812 631.354492188 c 1
EndSplineSet
Validated: 524329
EndChar

StartChar: R
Encoding: 19 82 19
Width: 326
VWidth: 824
Flags: HW
LayerCount: 2
Fore
SplineSet
24.8681640625 481.70703125 m 0
 25.6650390625 514.026367188 23.7373046875 546.436523438 23.8271484375 578.759765625 c 0
 23.546875 595.661132812 22.08203125 612.259765625 24.9052734375 628.99609375 c 0
 33.173828125 662.323242188 52.9716796875 670.001953125 85.400390625 677.231445312 c 0
 102 679.705078125 118.905273438 677.540039062 135.444335938 679.95703125 c 0
 228.423828125 687.1328125 300.962890625 645.005859375 300.6015625 552.783203125 c 0
 299.201171875 510.327148438 266.517578125 483.98828125 238.693359375 464.713867188 c 0
 208.720703125 446.26953125 173.7265625 435.208007812 134.118164062 430.1640625 c 0
 120.815429688 427.545898438 107.383789062 423.606445312 93.7919921875 423.009765625 c 0
 63.525390625 415.962890625 109.423828125 481.344726562 109.5234375 481.37109375 c 0
 112.702148438 482.193359375 116.108398438 481.504882812 119.37109375 481.90625 c 0
 134.415039062 482.887695312 149.451171875 484.743164062 164.54296875 485.396484375 c 0
 212.43359375 486.090820312 241.069335938 448.53515625 257.544921875 414.2265625 c 0
 265.213867188 398.650390625 270.49609375 381.970703125 274.672851562 365.150390625 c 0
 279.655273438 336.49609375 278.087890625 307.219726562 286.87890625 281.532226562 c 0
 295.814453125 252.350585938 303.614257812 220.98828125 306.959960938 187.37109375 c 0
 310.130859375 145.077148438 313.754882812 100.01171875 315.999023438 55.9521484375 c 0
 316.734375 46.048828125 317.170898438 36.3154296875 315.467773438 26.490234375 c 0
 316.588867188 -13.2353515625 254.166015625 -14.99609375 253.044921875 24.7294921875 c 1
 251.506835938 47.6240234375 254.120117188 69.5419921875 250.66796875 91.1689453125 c 0
 249.70703125 121.814453125 245.178710938 149.734375 243.252929688 177.783203125 c 0
 241.772460938 191.45703125 241.556640625 205.185546875 237.422851562 218.47265625 c 0
 229.672851562 246.923828125 220.122070312 276.459960938 217.028320312 308.561523438 c 0
 215.02734375 321.901367188 214.0390625 335.376953125 212.801757812 348.787109375 c 0
 207.08203125 373.606445312 195.723632812 401.86328125 178.848632812 417.360351562 c 0
 172.112304688 422.866210938 162.435546875 422.379882812 154.20703125 421.926757812 c 0
 146.3359375 421.107421875 82.0966796875 417.489257812 82.341796875 423.423828125 c 0
 83.748046875 457.15625 80.03515625 481.288085938 99.87109375 485.618164062 c 0
 112.436523438 489.954101562 126.249023438 490.322265625 139.102539062 493.685546875 c 0
 151.87109375 496.870117188 164.846679688 499.157226562 177.411132812 503.16015625 c 0
 183.689453125 505.646484375 203.107421875 511.921875 176.506835938 502.111328125 c 1
 176.506835938 502.111328125 199.640625 510.495117188 193.471679688 509.794921875 c 1
 204.409179688 514.362304688 213.716796875 522.891601562 223.0859375 529.938476562 c 0
 238.831054688 538.669921875 240.560546875 563.330078125 231.918945312 581.866210938 c 0
 218.6640625 612.698242188 169.599609375 621.590820312 125.65234375 616.353515625 c 0
 111.266601562 615.791015625 96.6591796875 616.14453125 82.4638671875 613.716796875 c 0
 67.40625 610.661132812 82.548828125 613.325195312 91.626953125 618.74609375 c 1
 90.9208984375 622.034179688 91.0009765625 627.112304688 88.11328125 622.801757812 c 0
 83.7607421875 609.73046875 89.8837890625 594.872070312 88.28125 581.423828125 c 0
 87.3037109375 565.997070312 88.75390625 550.610351562 88.623046875 535.1796875 c 0
 87.4208984375 519.380859375 90.8134765625 503.559570312 89.2958984375 487.729492188 c 0
 89.77734375 455.213867188 95.2197265625 424.572265625 95.951171875 393.943359375 c 0
 99.8193359375 325.415039062 100.928710938 250.91015625 94.1904296875 185.172851562 c 0
 93.798828125 168.853515625 94.1396484375 152.407226562 91.4609375 136.274414062 c 0
 90.259765625 121.430664062 91.37109375 106.56640625 89.6171875 91.765625 c 0
 86.1171875 64.5771484375 90.4111328125 79.875 26.736328125 77.91796875 c 0
 25.794921875 77.888671875 22.9892578125 96.5078125 23.2939453125 98.1416015625 c 0
 21.6904296875 113.737304688 21.45703125 129.53515625 22.634765625 145.1640625 c 0
 21.9462890625 198.475585938 28.3017578125 248.829101562 28.783203125 302.819335938 c 0
 28.9580078125 338.74609375 29.291015625 373.426757812 25.0185546875 406.095703125 c 0
 20.978515625 447.418945312 17.060546875 489.538085938 14.77734375 531.637695312 c 0
 12.9580078125 553.5 10.0185546875 575.416992188 10.7939453125 597.391601562 c 1
 2.3408203125 636.641601562 64.0166015625 649.926757812 72.470703125 610.676757812 c 0
 78.3623046875 587.44921875 79.78125 563.45703125 81.1064453125 539.630859375 c 0
 86.6767578125 462.27734375 92.1513671875 388.71875 93.7001953125 307.3125 c 0
 92.8603515625 269.03515625 91.5146484375 232.836914062 88.65234375 197.643554688 c 0
 87.455078125 181.69140625 86.7275390625 165.771484375 86.8564453125 149.775390625 c 0
 86.2177734375 135.571289062 85.4326171875 121.333007812 86.5615234375 107.135742188 c 0
 86.705078125 100.989257812 87.7890625 94.546875 87.05078125 88.373046875 c 0
 84.66796875 68.447265625 23.8056640625 75.2119140625 27.2109375 94.98828125 c 0
 27.6982421875 108.102539062 26.875 121.208984375 27.0595703125 134.327148438 c 0
 28.7275390625 150.040039062 29.8955078125 165.744140625 29.787109375 181.547851562 c 0
 30.767578125 233.24609375 34.337890625 284.776367188 33.3447265625 338.21484375 c 0
 32.6923828125 369.698242188 32.78125 401.36328125 28.6298828125 431.09765625 c 0
 26.181640625 447.868164062 25.7958984375 464.810546875 24.8681640625 481.70703125 c 0
EndSplineSet
Validated: 524325
EndChar

StartChar: S
Encoding: 20 83 20
Width: 279
VWidth: 824
Flags: HW
LayerCount: 2
Fore
SplineSet
188.809570312 592.15234375 m 0
 185.473632812 607.018554688 177.911132812 620.069335938 170.73828125 633.315429688 c 0
 165.653320312 643.4921875 156.84765625 648.39453125 147.619140625 654.194335938 c 0
 141.969726562 658.005859375 131.616210938 663.43359375 125.495117188 657.568359375 c 0
 122.426757812 652.87890625 104.526367188 649.729492188 128.861328125 657.159179688 c 1
 128.861328125 657.159179688 117.274414062 651.034179688 116.348632812 650.391601562 c 0
 88.3984375 628.092773438 71.0693359375 598.5703125 72.7568359375 548.276367188 c 0
 73.7978515625 538.583984375 76.0517578125 528.877929688 81.427734375 520.647460938 c 0
 89.44140625 510.326171875 99.8154296875 502.190429688 109.975585938 494.10546875 c 0
 132.479492188 469.62109375 158.311523438 448.291992188 179.6640625 422.706054688 c 0
 221.161132812 375.54296875 251.547851562 318.331054688 265.55078125 244.954101562 c 0
 275.735351562 204.319335938 267.369140625 174.700195312 248.985351562 147.966796875 c 0
 239.24609375 135.87109375 227.447265625 125.724609375 216.997070312 114.259765625 c 0
 192.008789062 86.6298828125 141.350585938 55.3251953125 90.3681640625 80.529296875 c 0
 62.4482421875 95.494140625 45.0703125 127.028320312 29.6103515625 154.41015625 c 0
 14.09765625 186.73046875 6.1484375 233.228515625 11.841796875 279.228515625 c 0
 14.4560546875 318.00390625 75.3837890625 313.8984375 72.7705078125 275.124023438 c 1
 70.794921875 266.499023438 70.44921875 257.9453125 71.568359375 249.11328125 c 0
 70.9716796875 236.330078125 72.603515625 223.64453125 74.171875 210.993164062 c 0
 74.2607421875 200.939453125 79.765625 191.686523438 83.2529296875 182.502929688 c 0
 89.44921875 171.350585938 95.9306640625 160.296875 103.522460938 150.034179688 c 0
 108.766601562 142.723632812 114.423828125 135.266601562 122.86328125 131.51171875 c 0
 131.051757812 128.80859375 154.811523438 136.357421875 131.400390625 128.62109375 c 1
 143.295898438 133.295898438 155.2890625 135.524414062 164.311523438 145.647460938 c 0
 173.571289062 156.033203125 183.029296875 166.54296875 194.3671875 174.712890625 c 0
 200.282226562 182.172851562 207.283203125 188.671875 209.063476562 198.372070312 c 0
 210.66796875 209.610351562 209.079101562 221.311523438 206.418945312 232.262695312 c 0
 198.51953125 279.556640625 178.655273438 318.53125 156.03125 352.475585938 c 0
 132.1875 390.0234375 98.0869140625 420.521484375 66.3388671875 450.413085938 c 0
 30.7734375 480.706054688 0.7607421875 523.3125 14.0087890625 593.547851562 c 0
 18.353515625 611.149414062 22.4580078125 628.811523438 32.2353515625 644.379882812 c 0
 51.3564453125 678.353515625 87.3232421875 712.033203125 132.270507812 717.376953125 c 0
 152.118164062 717.322265625 170.920898438 713.006835938 186.96875 700.609375 c 0
 202.171875 689.858398438 216.474609375 678.18359375 225.075195312 661.202148438 c 0
 241.211914062 631.887695312 260.8828125 593.614257812 259.93359375 552.078125 c 1
 267.940429688 514.896484375 209.517578125 502.3125 201.508789062 539.493164062 c 0
 197.15234375 557.004882812 194.57421875 575.017578125 188.809570312 592.15234375 c 0
EndSplineSet
Validated: 524325
EndChar

StartChar: T
Encoding: 21 84 21
Width: 367
VWidth: 824
Flags: HW
LayerCount: 2
Fore
SplineSet
202.030273438 653.936523438 m 0
 245.192382812 655.793945312 285.7265625 653.463867188 325.885742188 660.142578125 c 1
 358.622070312 659.043945312 366.153320312 700.6328125 346.217773438 716.9921875 c 0
 341.622070312 720.770507812 335.559570312 723.224609375 328.004882812 723.477539062 c 0
 320.200195312 720.014648438 311.92578125 721.888671875 303.704101562 720.348632812 c 0
 288.986328125 720.474609375 274.46484375 718.5859375 259.985351562 716.541015625 c 0
 244.682617188 716.670898438 229.405273438 715.79296875 214.083984375 717.200195312 c 0
 179.9609375 713.400390625 144.762695312 723.1875 109.857421875 719.938476562 c 0
 87.3818359375 717.36328125 64.5205078125 718.279296875 42.345703125 713.067382812 c 1
 2.294921875 715.899414062 -2.1376953125 652.961914062 37.9130859375 650.130859375 c 0
 66.197265625 650.66796875 94.4404296875 654.76171875 122.336914062 655.993164062 c 1
 122.155273438 639.80859375 122.502929688 623.625 122.90234375 607.444335938 c 0
 122.290039062 588.404296875 122.524414062 569.323242188 121.7578125 550.275390625 c 0
 122.877929688 532.390625 123.038085938 514.5703125 123.642578125 496.694335938 c 0
 123.106445312 480.0234375 122.126953125 463.424804688 123.203125 446.759765625 c 0
 121.126953125 394.1796875 127.435546875 345.225585938 132.555664062 298.360351562 c 0
 142.139648438 229.999023438 163.393554688 170.77734375 161.125976562 93.94140625 c 0
 161.249023438 92.279296875 161.4453125 90.6376953125 161.641601562 88.9775390625 c 0
 162.956054688 49.6630859375 224.749023438 51.767578125 223.41015625 91.0810546875 c 0
 226.78125 105.444335938 224.775390625 123.86328125 223.71484375 139.349609375 c 0
 219.633789062 197.598632812 203.524414062 250.639648438 196.27734375 308.05859375 c 0
 192.838867188 341.001953125 188.758789062 374.30859375 187.1328125 407.32421875 c 0
 186.493164062 439.11328125 188.306640625 470.549804688 187.923828125 501.709960938 c 0
 188.078125 518.810546875 187.572265625 535.87890625 187.439453125 552.978515625 c 0
 187.80859375 572.78515625 187.567382812 592.563476562 189.0859375 612.34375 c 0
 189.038085938 626.349609375 189.169921875 640.5078125 188.202148438 654.525390625 c 1
 192.814453125 654.375 197.41015625 653.970703125 202.030273438 653.936523438 c 0
EndSplineSet
Validated: 524329
EndChar

StartChar: U
Encoding: 22 85 22
Width: 324
VWidth: 824
Flags: HW
LayerCount: 2
Fore
SplineSet
311.909179688 686.254882812 m 1
 311.310546875 669.182617188 313.924804688 651.9765625 312.1484375 635.0390625 c 0
 312.333984375 603.213867188 315.932617188 571.396484375 313.227539062 540.1640625 c 0
 313.15234375 522.856445312 313.114257812 505.544921875 313.782226562 488.237304688 c 0
 311.264648438 434.880859375 309.4453125 381.467773438 302.296875 331.834960938 c 0
 298.05078125 297.532226562 298.477539062 264.112304688 291.323242188 233.34375 c 0
 285.559570312 193.064453125 272.124023438 157.466796875 248.375976562 132.4453125 c 0
 229.549804688 112.111328125 211.10546875 96.50390625 182.7890625 90.7412109375 c 0
 134.563476562 82.990234375 99.7763671875 100.3828125 75.4931640625 125.509765625 c 0
 60.6533203125 140.274414062 47.0625 156.258789062 39.7109375 176.198242188 c 0
 33.5546875 193.887695312 28.267578125 211.76171875 25.8154296875 230.38671875 c 0
 21.6767578125 276.260742188 8.943359375 319.162109375 10.0703125 369.965820312 c 0
 11.123046875 386.840820312 10.0263671875 403.705078125 10.3720703125 420.586914062 c 0
 9.6416015625 461.170898438 12.984375 499.66015625 16.1474609375 537.728515625 c 0
 17.615234375 558.712890625 17.0283203125 579.751953125 18.3701171875 600.741210938 c 0
 19.1015625 623.474609375 17.3125 646.30078125 20.646484375 668.884765625 c 1
 18.623046875 709.03515625 81.7177734375 712.211914062 83.7392578125 672.059570312 c 1
 93.634765625 587.862304688 74.4072265625 509.197265625 74.8818359375 425.284179688 c 0
 75.1826171875 391.583984375 74.3154296875 358.251953125 76.66015625 326.181640625 c 0
 79.552734375 297.166992188 85.2490234375 268.956054688 89.69140625 241.061523438 c 0
 91.99609375 226.142578125 95.73828125 211.69140625 100.573242188 197.403320312 c 0
 105.369140625 185.623046875 114.8515625 177.045898438 124.091796875 168.711914062 c 0
 138.861328125 153.365234375 159.533203125 144.270507812 184.426757812 154.399414062 c 1
 157.495117188 146.323242188 173.754882812 150.784179688 179.044921875 154.198242188 c 0
 216.868164062 178.572265625 227.818359375 226.345703125 233.845703125 281.955078125 c 0
 235.032226562 299.024414062 235.422851562 316.12109375 236.904296875 333.173828125 c 0
 241.942382812 365.482421875 246.290039062 399.245117188 247.063476562 433.940429688 c 0
 246.688476562 451.52734375 248.0078125 469.080078125 248.86328125 486.635742188 c 0
 248.7421875 503.143554688 248.657226562 519.639648438 248.674804688 536.149414062 c 0
 250.453125 567.381835938 248.962890625 598.427734375 247.611328125 629.76171875 c 0
 248.354492188 649.549804688 245.772460938 671.7109375 248.892578125 689.50390625 c 0
 250.963867188 729.606445312 313.977539062 726.357421875 311.909179688 686.254882812 c 1
EndSplineSet
Validated: 524325
EndChar

StartChar: V
Encoding: 23 86 23
Width: 321
VWidth: 824
Flags: HW
LayerCount: 2
Fore
SplineSet
68.599609375 654.251953125 m 1
 87.3955078125 616.62890625 97.7978515625 572.49609375 109.435546875 529.84765625 c 0
 119.185546875 491.0078125 128.18359375 451.665039062 135.551757812 410.6796875 c 0
 142.296875 382.099609375 141.288085938 352.57421875 146.62109375 321.651367188 c 0
 153.514648438 267.713867188 165.461914062 217.099609375 174.1171875 165.14453125 c 0
 177.15234375 153.34375 180.85546875 141.64453125 184.602539062 130.0234375 c 0
 191.735351562 116.268554688 181.80078125 137.024414062 172.39453125 135.102539062 c 0
 164.610351562 133.508789062 157.990234375 128.381835938 150.788085938 125.021484375 c 1
 154.290039062 133.1171875 155.497070312 142.111328125 157.318359375 150.717773438 c 0
 169.204101562 221.063476562 185.46875 288.8515625 199.06640625 357.334960938 c 0
 211.405273438 431.551757812 226.846679688 505.229492188 236.088867188 582.84765625 c 0
 239.702148438 613.459960938 248.586914062 643.2421875 252.861328125 673.669921875 c 1
 252.958007812 710.725585938 311.188476562 710.568359375 311.087890625 673.512695312 c 1
 312.6015625 656.84375 308.352539062 640.7109375 305.233398438 624.623046875 c 0
 302.502929688 609.8671875 299.37890625 595.287109375 296.264648438 580.600585938 c 0
 290.365234375 535.080078125 283.591796875 489.4921875 276.470703125 445.79296875 c 0
 272.446289062 413.551757812 262.627929688 382.41796875 259.46875 350.795898438 c 0
 255.634765625 334.26171875 254.001953125 317.271484375 250.591796875 300.63671875 c 0
 237.247070312 249.998046875 226.947265625 196.157226562 217.420898438 143.243164062 c 0
 212.92578125 125.912109375 211.087890625 107.688476562 199.49609375 93.115234375 c 0
 190.381835938 87.8427734375 182.181640625 80.5078125 172.153320312 77.298828125 c 0
 152.881835938 71.1337890625 132.891601562 95.5654296875 127.666015625 111.286132812 c 0
 119.067382812 138.305664062 112.751953125 166.189453125 106.276367188 196.084960938 c 0
 102.521484375 215.139648438 97.1669921875 233.854492188 93.6474609375 252.969726562 c 0
 89.0400390625 286.420898438 86.126953125 320 83.16796875 355.479492188 c 0
 79.6123046875 388.653320312 69.193359375 419.413085938 64.54296875 451.264648438 c 0
 54.6904296875 491.5390625 45.59375 531.989257812 32.275390625 569.78515625 c 0
 24.1767578125 591.943359375 16.138671875 614.23046875 11.333984375 637.380859375 c 0
 0.59765625 673.82421875 57.8623046875 690.6953125 68.599609375 654.251953125 c 1
EndSplineSet
Validated: 524325
EndChar

StartChar: W
Encoding: 24 87 24
Width: 341
VWidth: 824
Flags: HW
LayerCount: 2
Fore
SplineSet
300.109375 702.263671875 m 0
 276.022460938 703.891601562 263.5234375 678.606445312 267.586914062 657.51953125 c 1
 265.647460938 611.690429688 266.322265625 565.78515625 261.098632812 520.133789062 c 0
 252.998046875 456.7265625 253.497070312 392.755859375 254.799804688 328.987304688 c 0
 254.620117188 285.553710938 253.6796875 242.127929688 253.755859375 198.693359375 c 1
 239.404296875 234.4609375 237.338867188 277.8125 208.396484375 305.999023438 c 1
 182.29296875 324.19140625 151.212890625 299.202148438 142.059570312 273.9296875 c 0
 134.67578125 263.754882812 128.6796875 224.248046875 128.232421875 255.65625 c 1
 120.443359375 302.099609375 119.192382812 349.299804688 112.469726562 395.883789062 c 1
 109.922851562 446.583984375 97.189453125 496.03125 93.1767578125 546.610351562 c 0
 88.185546875 585.587890625 82.5234375 625.356445312 68.939453125 662.2265625 c 1
 54.0546875 689.040039062 5.3984375 674.000976562 10.3525390625 642.868164062 c 0
 16.67578125 580.658203125 30.0166015625 519.360351562 40.2392578125 457.689453125 c 0
 48.57421875 421.451171875 47.5478515625 383.931640625 53.6064453125 347.32421875 c 1
 55.2783203125 310.821289062 60.654296875 274.712890625 65.6611328125 238.581054688 c 1
 66.296875 200.673828125 72.7041015625 163.171875 84.2841796875 127.108398438 c 0
 87.5712890625 106.157226562 96.5234375 76.587890625 121.145507812 75.38671875 c 0
 150.123046875 73.0107421875 164.969726562 96.236328125 167.963867188 121.943359375 c 1
 175.58984375 147.55859375 180.931640625 173.797851562 185.88671875 200.013671875 c 1
 198.482421875 163.610351562 209.998046875 126.10546875 231.044921875 93.498046875 c 0
 246.83984375 68.853515625 282.986328125 61.771484375 305.383789062 81.3046875 c 1
 325.045898438 111.846679688 317.338867188 149.883789062 318.385742188 184.165039062 c 0
 318.275390625 234.340820312 319.775390625 284.505859375 318.99609375 334.677734375 c 0
 316.625976562 404.416015625 320.811523438 474.196289062 327.639648438 543.559570312 c 0
 330.935546875 587.424804688 330.42578125 631.459960938 331.94140625 675.346679688 c 0
 330.998046875 691.482421875 315.5859375 702.719726562 300.109375 702.263671875 c 0
209.98828125 265.564453125 m 1
 206.686523438 254.68359375 205.190429688 269.690429688 209.98828125 265.564453125 c 1
286.53125 128.09765625 m 1
 291.655273438 125.385742188 292.458984375 119.626953125 286.53125 128.09765625 c 1
EndSplineSet
Validated: 524329
EndChar

StartChar: X
Encoding: 25 88 25
Width: 385
VWidth: 824
Flags: HW
LayerCount: 2
Fore
SplineSet
287.984375 711.274414062 m 0
 258.448242188 710.450195312 257.495117188 674.66015625 243.094726562 655.696289062 c 1
 216.020507812 594.927734375 193.953125 532.05078125 170.06640625 469.98828125 c 1
 138.493164062 525.467773438 119.7578125 586.873046875 90.03125 643.271484375 c 0
 76.1337890625 663.903320312 68.392578125 700.365234375 37.9677734375 699.631835938 c 0
 -2.07421875 695.245117188 7.9736328125 650.854492188 24.494140625 627.90234375 c 1
 49.619140625 579.091796875 72.6484375 529.279296875 94.443359375 478.913085938 c 0
 110.3671875 450.295898438 124.750976562 420.860351562 139.484375 391.623046875 c 1
 115.8984375 326.227539062 101.004882812 258.168945312 82.0546875 191.415039062 c 0
 71.9345703125 159.552734375 48.9326171875 133.079101562 40.8427734375 100.623046875 c 1
 37.203125 64.6376953125 94.5107421875 57.4111328125 102.125976562 91.818359375 c 1
 129.044921875 131.823242188 145.60546875 177.794921875 154.967773438 224.887695312 c 0
 162.725585938 254.00390625 171.116210938 282.952148438 178.34375 312.18359375 c 1
 198.477539062 272.111328125 223.137695312 234.748046875 247.801757812 197.405273438 c 0
 267.264648438 162.840820312 293.506835938 132.975585938 316.18359375 100.596679688 c 1
 327.943359375 72.74609375 378.994140625 80.166015625 374.881835938 114.912109375 c 1
 361.276367188 156.892578125 325.072265625 186.0078125 304.15234375 224.09765625 c 0
 282.33203125 261.556640625 257.3125 297.015625 236.963867188 335.365234375 c 0
 224.923828125 361.21875 197.955078125 389.174804688 216.013671875 417.653320312 c 1
 238.9609375 476.944335938 259.484375 537.37109375 285.150390625 595.6484375 c 1
 292.920898438 625.161132812 313.833984375 649.375976562 320.234375 679.21484375 c 0
 322.907226562 697.66015625 305.323242188 711.897460938 287.984375 711.274414062 c 0
EndSplineSet
Validated: 524329
EndChar

StartChar: Y
Encoding: 26 89 26
Width: 364
VWidth: 824
Flags: HW
LayerCount: 2
Fore
SplineSet
270.028320312 646.46484375 m 0
 255.672851562 619.482421875 243.001953125 591.645507812 225.358398438 566.54296875 c 0
 211.4609375 544.608398438 202.791015625 519.956054688 189.901367188 497.5546875 c 1
 158.610351562 540.576171875 122.15234375 580.069335938 96.306640625 626.944335938 c 1
 79.6337890625 647.166015625 68.0224609375 684.65625 36.2587890625 680.965820312 c 0
 -3.0947265625 673.290039062 8.3515625 629.217773438 28.109375 607.790039062 c 1
 53.9130859375 567.053710938 81.658203125 527.610351562 113.430664062 491.278320312 c 0
 127.201171875 474.841796875 138.944335938 456.645507812 153.870117188 441.23046875 c 1
 146.927734375 374.776367188 155.797851562 307.780273438 149.631835938 241.259765625 c 0
 147.997070312 187.334960938 146.864257812 133.3828125 149.702148438 79.517578125 c 1
 140.801757812 48.2294921875 176.951171875 17.6689453125 203.549804688 42.0615234375 c 1
 221.774414062 65.9541015625 209.491210938 98.796875 212.284179688 126.502929688 c 0
 213.010742188 230.125976562 217.064453125 333.702148438 218.032226562 437.32421875 c 1
 255.033203125 463.322265625 261.756835938 512.041992188 288.716796875 546.055664062 c 0
 306.323242188 572.848632812 318.465820312 602.66015625 333.939453125 630.650390625 c 1
 342.564453125 655.13671875 370.775390625 691.140625 340.598632812 711.36328125 c 0
 334.994140625 714.676757812 328.443359375 716.33984375 321.940429688 716.1875 c 0
 288.788085938 711.404296875 285.840820312 670.619140625 270.028320312 646.46484375 c 0
195.665039062 490.990234375 m 1
 206.670898438 484.352539062 201.124023438 478.467773438 195.665039062 490.990234375 c 1
EndSplineSet
Validated: 524329
EndChar

StartChar: Z
Encoding: 27 90 27
Width: 356
VWidth: 824
Flags: HW
LayerCount: 2
Fore
SplineSet
161.772460938 701.98828125 m 0
 124.909179688 700.614257812 88.083984375 702.768554688 51.177734375 703.26953125 c 1
 18.5234375 718.935546875 -7.6494140625 663.09765625 24.970703125 647.685546875 c 1
 67.4228515625 633.630859375 112.940429688 641.749023438 156.806640625 640.677734375 c 0
 190.015625 639.887695312 222.979492188 643.7890625 255.875 647.7890625 c 1
 231.405273438 582.901367188 205.004882812 518.736328125 175.559570312 455.926757812 c 0
 161.551757812 434.849609375 160.66796875 396.020507812 137.612304688 388.090820312 c 0
 115.735351562 383.1171875 90.5078125 385.834960938 71.708984375 373.033203125 c 1
 45.5556640625 345.76953125 79.736328125 307.235351562 111.611328125 321.529296875 c 0
 137.387695312 329.390625 110.39453125 291.28515625 109.466796875 277.34375 c 1
 92.3349609375 235.6796875 87.580078125 189.071289062 60.8837890625 151.651367188 c 1
 49.900390625 127.868164062 29.2158203125 100.557617188 43.7470703125 73.91796875 c 0
 60.8759765625 43.515625 100.059570312 45.234375 129.90234375 50.111328125 c 0
 167.098632812 57.3037109375 204.784179688 60.8642578125 242.677734375 60.560546875 c 0
 271.278320312 62.8984375 300.513671875 58.9306640625 328.79296875 63.4736328125 c 1
 363.358398438 76.849609375 339.765625 128.434570312 314.271484375 120.967773438 c 1
 277.583984375 123.795898438 240.703125 121.1015625 203.916015625 120.947265625 c 0
 171.647460938 119.139648438 140.26953125 111.432617188 108.3359375 107.22265625 c 1
 123.56640625 137.116210938 142.329101562 165.750976562 149.185546875 199.203125 c 0
 162.854492188 243.38671875 178.19921875 287.018554688 193.140625 330.78125 c 1
 218.942382812 328.190429688 256.224609375 336.767578125 247.790039062 371.317382812 c 1
 249.583984375 391.145507812 217.741210938 390.555664062 219.159179688 398.09765625 c 0
 249.018554688 466.686523438 279.912109375 534.876953125 306.2734375 604.875976562 c 0
 315.73046875 633.669921875 330.98828125 671.622070312 306.809570312 697.4296875 c 0
 297.283203125 708.404296875 283.153320312 710.602539062 269.408203125 710.55859375 c 1
 233.68359375 706.739257812 197.966796875 699.911132812 161.772460938 701.98828125 c 0
EndSplineSet
Validated: 524329
EndChar

StartChar: Aacute
Encoding: 29 193 29
Width: 381
VWidth: 824
Flags: HW
LayerCount: 2
Fore
SplineSet
274.853515625 720.727539062 m 0
 292.328125 746.98828125 251.060546875 773.858398438 233.872070312 747.997070312 c 1
 213.668945312 730.329101562 195.756835938 708.11328125 180.03515625 686.161132812 c 0
 164.03125 659.954101562 205.212890625 634.806640625 221.21484375 661.014648438 c 1
 234.754882812 672.813476562 245.72265625 687.211914062 256.641601562 701.380859375 c 0
 262.677734375 707.868164062 268.97265625 714.096679688 274.853515625 720.727539062 c 0
236.392578125 600.977539062 m 1
 208.583984375 616.765625 181.5234375 617.661132812 154.689453125 599.518554688 c 0
 123.936523438 575.76953125 101.498046875 543.9296875 84.1875 507.178710938 c 0
 70.623046875 476.700195312 55.986328125 444.543945312 48.537109375 408.963867188 c 0
 36.5322265625 363.192382812 30.2138671875 313.040039062 24.70703125 262.043945312 c 0
 20.7021484375 228.732421875 23.763671875 194.758789062 20.9375 160.145507812 c 0
 20.138671875 121.034179688 7.94140625 82.02734375 10.302734375 42.0126953125 c 0
 12.326171875 1.8603515625 75.4306640625 5.0322265625 73.408203125 45.1806640625 c 1
 77.7412109375 65.333984375 79.7900390625 86.1181640625 81.107421875 106.692382812 c 0
 83.302734375 125.228515625 85.3505859375 143.786132812 86.224609375 162.456054688 c 0
 88.4921875 180.051757812 84.958984375 197.702148438 86.0859375 215.290039062 c 0
 86.0732421875 225.623046875 86.4326171875 236.0625 87.443359375 246.422851562 c 1
 122.844726562 250.788085938 158.358398438 257.813476562 194.9140625 261.225585938 c 0
 222.859375 263.717773438 250.51953125 268.1640625 277.41015625 271.655273438 c 1
 284.165039062 249.66015625 290.053710938 225.62109375 293.560546875 201.709960938 c 0
 300.62109375 175.73046875 296.354492188 145.513671875 299.142578125 115.836914062 c 0
 299.004882812 100.62890625 304.114257812 86.251953125 307.67578125 71.6689453125 c 1
 298.419921875 39.3671875 348.697265625 17.0810546875 364.814453125 50.3505859375 c 0
 369.328125 62.2021484375 372.90625 71.9228515625 370.2578125 84.7177734375 c 0
 367.130859375 97.7802734375 362.546875 110.58203125 362.828125 124.194335938 c 0
 360.899414062 154.80859375 363.51171875 186.595703125 356.154296875 214.149414062 c 0
 352.12890625 237.37890625 347.150390625 260.698242188 341.234375 282.651367188 c 1
 358.9296875 298.3984375 355.171875 332.450195312 325.76171875 336.514648438 c 1
 321.232421875 355.055664062 316.668945312 372.858398438 310.697265625 390.692382812 c 0
 291.078125 463.881835938 295.508789062 566.272460938 236.46484375 600.977539062 c 1
 236.392578125 600.977539062 l 1
205.404296875 555.231445312 m 2
 205.41015625 555.231445312 l 2
 206.555664062 554.831054688 201.360351562 553.759765625 193.646484375 551.250976562 c 1
 196.124023438 553.086914062 198.754882812 554.731445312 201.673828125 555.916992188 c 1
 203.71484375 555.584960938 204.935546875 555.393554688 205.404296875 555.231445312 c 2
191.745117188 549.690429688 m 1
 214.71484375 551.243164062 221.145507812 516.95703125 224.461914062 498.520507812 c 0
 233.384765625 457.798828125 239.875976562 415.504882812 248.579101562 374.493164062 c 0
 252.53515625 360.278320312 257.500976562 346.317382812 260.811523438 331.932617188 c 1
 223.7109375 325.056640625 183.328125 326.692382812 143.979492188 320.500976562 c 0
 127.845703125 319.030273438 111.6796875 316.916992188 95.7998046875 313.583007812 c 1
 97.4873046875 325.43359375 99.9365234375 337.173828125 101.956054688 348.983398438 c 0
 110.275390625 381.59375 112.53125 413.915039062 126.438476562 442.204101562 c 0
 140.961914062 472.66015625 150.546875 505.163085938 171.954101562 529.073242188 c 0
 178.598632812 535.63671875 184.452148438 543.677734375 191.745117188 549.690429688 c 1
308.142578125 69.5390625 m 1
 308.6484375 69.392578125 308.888671875 66.6083984375 308.6796875 66.328125 c 0
 307.583007812 64.8134765625 307.73046875 66.806640625 308.142578125 69.5390625 c 1
EndSplineSet
Validated: 524329
EndChar

StartChar: Eacute
Encoding: 30 201 30
Width: 293
VWidth: 824
Flags: HW
LayerCount: 2
Fore
SplineSet
179.158203125 748.989257812 m 0
 175.958984375 746.477539062 173.141601562 743.553710938 170.314453125 740.630859375 c 0
 159.108398438 727.911132812 147.203125 715.427734375 139.895507812 699.920898438 c 1
 127.936523438 673.97265625 168.708984375 655.181640625 180.66796875 681.12890625 c 0
 190.575195312 693.383789062 200.967773438 705.234375 211.13671875 717.284179688 c 0
 215.497070312 722.024414062 218.166992188 727.696289062 220.448242188 733.619140625 c 0
 226.715820312 750.452148438 212.021484375 762.809570312 198.079101562 762.609375 c 0
 190.2578125 762.49609375 182.673828125 758.431640625 179.158203125 748.989257812 c 0
186.959960938 322.51171875 m 1
 166.521484375 317.235351562 139.346679688 315.244140625 115.997070312 314.927734375 c 0
 104.379882812 315.100585938 92.5625 315.297851562 80.8193359375 314.787109375 c 1
 84.6181640625 368.510742188 85.544921875 424.10546875 84.3017578125 479.923828125 c 0
 83.3564453125 509.833007812 77.3623046875 540.655273438 79.9658203125 570.98828125 c 0
 79.921875 577.420898438 79.6298828125 584.112304688 81.6162109375 590.23046875 c 1
 134.473632812 591.991210938 178.486328125 572.588867188 229.532226562 573.666015625 c 1
 264.625976562 559.54296875 287.642578125 610.375 259.538085938 629.193359375 c 1
 259.508789062 629.204101562 l 2
 257.630859375 630.452148438 255.529296875 631.56640625 253.198242188 632.504882812 c 0
 216.135742188 642.875976562 176.094726562 643.875 136.512695312 649.583007812 c 0
 124.146484375 651.627929688 111.666992188 652.763671875 99.1591796875 652.883789062 c 0
 58.611328125 653.263671875 42.2421875 646.641601562 24.3818359375 616.6015625 c 0
 17.162109375 600.859375 17.0185546875 584.206054688 16.6318359375 567.326171875 c 0
 12.818359375 536.745117188 19.4443359375 504.881835938 20.0224609375 474.443359375 c 0
 18.85546875 419.2734375 18.1181640625 368.494140625 16.1357421875 313.51171875 c 0
 16.640625 306.40625 16.6171875 299.319335938 16.5458984375 292.2109375 c 0
 13.46875 284.251953125 12.857421875 275.37890625 15.8583984375 267.541015625 c 0
 14.7001953125 250.129882812 13.869140625 232.126953125 14.1318359375 214.58984375 c 0
 14.6103515625 178.458984375 8.2900390625 142.12109375 10.4521484375 105.189453125 c 0
 11.484375 90.232421875 12.337890625 75.3759765625 12.0029296875 60.37109375 c 0
 12.17578125 37.1796875 22.22265625 18.9609375 39.5048828125 4.25390625 c 0
 53.34375 -5.9794921875 70.2353515625 -7.87890625 86.6220703125 -10.83203125 c 0
 103.197265625 -13.9736328125 120.071289062 -15.0869140625 136.915039062 -14.43359375 c 0
 177.506835938 -15.0126953125 224.629882812 -9.3203125 251.639648438 -4.181640625 c 1
 291.692382812 -6.55078125 295.439453125 56.3984375 255.387695312 58.765625 c 0
 244.329101562 56.4462890625 217.391601562 53.3984375 199.061523438 51.560546875 c 0
 182.776367188 49.078125 166.208984375 50.310546875 149.854492188 48.171875 c 0
 136.635742188 48.1513671875 123.518554688 46.7587890625 110.334960938 48.904296875 c 0
 100.633789062 50.9130859375 89.62890625 52.4677734375 80.9189453125 51.482421875 c 0
 80.369140625 47.681640625 72.1923828125 61.8828125 75.9580078125 63.830078125 c 0
 76.0009765625 79.7431640625 75.6044921875 95.6044921875 74.8388671875 111.490234375 c 0
 74.3837890625 147.291992188 79.1767578125 183.021484375 78.7978515625 218.890625 c 0
 78.9384765625 229.03125 79.314453125 239.159179688 79.6103515625 249.296875 c 1
 116.231445312 250.287109375 149.538085938 254.069335938 182.583007812 258.65625 c 1
 223.223632812 255.858398438 227.598632812 319.713867188 186.959960938 322.51171875 c 1
84.4462890625 595.9296875 m 0
 85.4755859375 595.522460938 83.0146484375 592.927734375 82.3876953125 592.693359375 c 1
 82.4501953125 592.819335938 82.4541015625 592.940429688 82.4501953125 593.08984375 c 0
 83.01171875 594.00390625 83.509765625 595.01953125 84.1845703125 595.865234375 c 1
 84.2900390625 595.818359375 l 2
 84.3603515625 595.911132812 84.4111328125 595.943359375 84.4462890625 595.9296875 c 0
76.3134765625 590.09765625 m 1
 60.0400390625 583.272460938 74.0029296875 590.030273438 74.0029296875 590.030273438 c 1
 74.7978515625 590.017578125 75.541015625 590.083007812 76.3134765625 590.09765625 c 1
EndSplineSet
Validated: 524329
EndChar

StartChar: Iacute
Encoding: 31 205 31
Width: 247
VWidth: 824
Flags: HW
LayerCount: 2
Fore
SplineSet
144.090820312 754.512695312 m 0
 129.833007812 741.124023438 116.887695312 724.858398438 105.432617188 708.865234375 c 1
 105.4296875 708.865234375 l 1
 91.8623046875 686.646484375 126.776367188 665.32421875 140.34375 687.54296875 c 1
 151.822265625 697.546875 161.12109375 709.755859375 170.37890625 721.768554688 c 0
 174.619140625 725.596679688 177.6015625 730.439453125 180.532226562 735.26953125 c 0
 188.950195312 751.213867188 174.356445312 765.291015625 160.434570312 764.99609375 c 0
 154.106445312 764.864257812 147.916992188 761.759765625 144.090820312 754.512695312 c 0
139.778320312 650.830078125 m 1
 128.176757812 662.454101562 106.11328125 662.114257812 93.7294921875 650.66796875 c 1
 79.0419921875 651.11328125 64.3505859375 651.385742188 49.7373046875 650.748046875 c 1
 10.9013671875 662.291992188 -7.24609375 601.249023438 31.5908203125 589.705078125 c 0
 49.3876953125 585.853515625 67.5888671875 585.133789062 85.7685546875 585.0390625 c 1
 89.6728515625 540.579101562 86.15625 489.224609375 87.1533203125 442.69921875 c 0
 84.6728515625 409.935546875 87.34375 377.241210938 85.0478515625 345.013671875 c 0
 85.349609375 327.392578125 84.935546875 309.80078125 84.6416015625 292.1875 c 0
 86.2412109375 276.000976562 84.6376953125 259.846679688 85.6416015625 243.634765625 c 0
 87.5048828125 186.013671875 105.607421875 142.54296875 104.245117188 81.89453125 c 1
 89.3525390625 81.7548828125 74.4697265625 81.78515625 59.5751953125 81.1953125 c 1
 20.4541015625 90.45703125 5.8876953125 28.9765625 45.0087890625 19.71484375 c 0
 65.9345703125 15.7373046875 87.3740234375 17.255859375 108.540039062 17.412109375 c 0
 140.504882812 16.9267578125 172.135742188 20.939453125 201.377929688 23.140625 c 1
 240.817382812 15.3349609375 253.051757812 77.3203125 213.612304688 85.125 c 0
 198.254882812 85.576171875 183.033203125 84.2529296875 168.293945312 82.748046875 c 1
 169.588867188 145.252929688 150.524414062 190.090820312 149.278320312 250.1875 c 0
 148.904296875 265.2734375 150.36328125 280.350585938 149.348632812 295.43359375 c 0
 149.635742188 312.541015625 149.973632812 329.625976562 149.952148438 346.736328125 c 0
 151.39453125 400.240234375 151.541015625 450.41015625 153.612304688 502.4609375 c 0
 153.797851562 531.419921875 154.365234375 561.0078125 152.579101562 588.5859375 c 1
 164.515625 590.046875 177.600585938 590.389648438 190.204101562 591.3359375 c 0
 224.862304688 585.37890625 237.370117188 632.3046875 213.424804688 648.685546875 c 0
 210.009765625 651.016601562 205.875 652.739257812 200.934570312 653.587890625 c 0
 190.954101562 653.25390625 180.975585938 653.223632812 171.000976562 653.474609375 c 0
 160.577148438 652.797851562 150.182617188 651.688476562 139.778320312 650.830078125 c 1
EndSplineSet
Validated: 524329
EndChar

StartChar: Oacute
Encoding: 32 211 32
Width: 284
VWidth: 824
Flags: HW
LayerCount: 2
Fore
SplineSet
128.028320312 751.08984375 m 0
 119.241210938 741.54296875 110.931640625 731.46875 103.592773438 720.762695312 c 1
 103.595703125 720.762695312 l 1
 89.9052734375 697.602539062 126.301757812 676.086914062 139.990234375 699.249023438 c 1
 150.182617188 708.309570312 158.872070312 718.953125 166.844726562 729.975585938 c 0
 176.083007812 746.958984375 160.625 762.245117188 145.694335938 762.11328125 c 0
 138.90625 762.052734375 132.228515625 758.80859375 128.028320312 751.08984375 c 0
199.176757812 633.700195312 m 0
 155.65625 659.342773438 95.4560546875 662.6796875 59.1201171875 626.838867188 c 0
 34.580078125 600.786132812 28.388671875 563.436523438 18.5439453125 524.766601562 c 0
 16.0703125 507.305664062 13.484375 489.971679688 11.7607421875 472.409179688 c 0
 9.1572265625 455.217773438 10.189453125 437.772460938 10.2626953125 420.444335938 c 0
 9.3974609375 386.065429688 15.4921875 352.138671875 16.3408203125 318.368164062 c 0
 18.529296875 302.8984375 17.115234375 287.340820312 18.2392578125 271.797851562 c 0
 18.2724609375 256.272460938 18.4296875 240.79296875 18.3759765625 225.260742188 c 0
 21.4287109375 187.15625 29.0048828125 151.651367188 43.7705078125 122.950195312 c 0
 61.5595703125 90.3701171875 99.3232421875 74.015625 137.975585938 63.3486328125 c 0
 166.194335938 55.529296875 193.038085938 60.2587890625 217.666992188 76.7099609375 c 0
 259.362304688 106.840820312 278.854492188 155.573242188 273.385742188 228.555664062 c 0
 271.055664062 262.583007812 268.518554688 295.169921875 265.344726562 327.309570312 c 0
 264.657226562 343.034179688 263.301757812 358.741210938 264.092773438 374.499023438 c 0
 263.978515625 391.323242188 261.928710938 408.048828125 262.614257812 424.879882812 c 0
 262.586914062 441.671875 260.385742188 458.28515625 259.081054688 474.983398438 c 0
 257.970703125 530.723632812 243.165039062 589.278320312 211.430664062 617.323242188 c 0
 209.737304688 623.411132812 205.848632812 629.153320312 199.176757812 633.700195312 c 0
117.541992188 592.188476562 m 1
 117.541992188 592.188476562 117.467773438 591.704101562 113.846679688 590.516601562 c 1
 117.21875 591.180664062 119.501953125 591.252929688 118.100585938 589.768554688 c 1
 122.4765625 590.2890625 126.7578125 590.034179688 130.991210938 589.372070312 c 0
 136.924804688 582.834960938 146.251953125 580.631835938 156.221679688 578.377929688 c 0
 165.528320312 577.209960938 171.546875 566.897460938 176.311523438 559.885742188 c 0
 182.5546875 546.649414062 185.674804688 532.038085938 187.905273438 517.649414062 c 0
 193.823242188 487.578125 198.040039062 455.978515625 197.887695312 421.420898438 c 0
 198.149414062 386.657226562 198.598632812 351.825195312 201.758789062 318.012695312 c 0
 206.380859375 271.739257812 210.403320312 227.572265625 209.155273438 177.989257812 c 0
 206.860351562 152.765625 190.076171875 133.1640625 172.305664062 122.190429688 c 0
 161.70703125 117.918945312 174.87109375 123.37890625 182.397460938 124.639648438 c 1
 182.397460938 124.639648438 153.615234375 113.544921875 163.360351562 122.819335938 c 1
 149.318359375 124.791015625 136.541992188 130.951171875 123.217773438 135.491210938 c 0
 99.408203125 141.385742188 95.3291015625 166.34375 88.4736328125 188.780273438 c 0
 76.54296875 227.797851562 86.0986328125 278.439453125 80.7119140625 324.092773438 c 0
 79.04296875 371.756835938 70.025390625 422.875976562 76.4521484375 471.797851562 c 0
 78.927734375 503.0859375 84.4609375 534.60546875 94.3427734375 560.793945312 c 0
 98.046875 571.026367188 102.346679688 581.904296875 110.440429688 589.461914062 c 1
 112.877929688 590.068359375 116.336914062 592.146484375 117.541992188 592.188476562 c 1
111.129882812 589.920898438 m 1
 110.956054688 589.822265625 110.7734375 589.729492188 110.608398438 589.625976562 c 1
 110.78515625 589.678710938 110.958984375 589.873046875 111.129882812 589.920898438 c 1
EndSplineSet
Validated: 524325
EndChar

StartChar: Uacute
Encoding: 33 218 33
Width: 316
VWidth: 824
Flags: HW
LayerCount: 2
Fore
SplineSet
194.578125 749.251953125 m 0
 180.86328125 736.768554688 167.859375 720.71875 159.501953125 703.737304688 c 1
 159.50390625 703.737304688 l 1
 149.4765625 681.98046875 183.663085938 666.224609375 193.690429688 687.981445312 c 0
 202.502929688 699.034179688 211.293945312 710.03515625 220.422851562 720.848632812 c 0
 224.272460938 725.034179688 226.81640625 729.9921875 229.037109375 735.153320312 c 0
 234.786132812 749.202148438 222.709960938 760.037109375 210.927734375 760.245117188 c 0
 204.319335938 760.361328125 197.802734375 757.133789062 194.578125 749.251953125 c 0
18.615234375 659.282226562 m 1
 8.73046875 622.575195312 14.919921875 583.782226562 10.8125 546.186523438 c 0
 11.056640625 530.759765625 10.1298828125 515.389648438 10.14453125 499.997070312 c 0
 9.6513671875 484.36328125 10.609375 468.686523438 10.212890625 453.028320312 c 0
 12.443359375 418.2890625 10.779296875 384.150390625 12.947265625 351.301757812 c 0
 13.3125 318.918945312 12.6474609375 286.2734375 15.6015625 254.491210938 c 0
 17.787109375 236.670898438 22.3095703125 219.134765625 26.9609375 201.805664062 c 0
 32.236328125 185.439453125 41.08203125 170.61328125 48.91015625 155.416992188 c 0
 65.3203125 119.97265625 97.482421875 91.5703125 135.83984375 78.8740234375 c 0
 166.052734375 72.4462890625 194.561523438 81.21484375 219.783203125 98.6767578125 c 0
 255.14453125 123.17578125 270.448242188 164.345703125 285.099609375 208.538085938 c 0
 291.662109375 239.611328125 294.442382812 272.9375 293.498046875 309.159179688 c 0
 293.046875 324.1171875 292.59765625 338.989257812 293.18359375 353.961914062 c 0
 290.901367188 384.096679688 294.14453125 415.203125 296.384765625 444.522460938 c 0
 298.813476562 479.559570312 305.943359375 515.592773438 305.572265625 552.848632812 c 0
 306.96484375 567.922851562 306.688476562 582.997070312 306.828125 598.122070312 c 0
 305.013671875 612.625 304.657226562 627.104492188 303.857421875 641.635742188 c 0
 304.678710938 650.182617188 302.8515625 658.453125 301.154296875 666.758789062 c 0
 291.6875 706.196289062 229.716796875 691.321289062 239.18359375 651.883789062 c 0
 240.524414062 646.392578125 240.541015625 640.876953125 240.4140625 635.217773438 c 0
 240.8671875 621.455078125 241.913085938 607.817382812 243.056640625 594.096679688 c 0
 243.24609375 541.470703125 233.8671875 494.838867188 232.15234375 444.129882812 c 0
 230.171875 413.95703125 227.618164062 382.850585938 229.185546875 351.356445312 c 0
 228.2265625 306.09375 233.422851562 258.461914062 221.3359375 221.221679688 c 0
 211.416992188 190.793945312 199.245117188 158.6484375 172.955078125 143.692382812 c 0
 160.573242188 137.42578125 172.766601562 143.900390625 179.568359375 145.131835938 c 0
 181.326171875 145.448242188 176.5859375 143.159179688 175.005859375 142.334960938 c 0
 157.69140625 133.348632812 144.34765625 142.231445312 131.115234375 152.995117188 c 0
 112.189453125 170.202148438 98.6630859375 193.684570312 88.90234375 219.223632812 c 0
 85.2587890625 233.626953125 81.962890625 248.186523438 79.474609375 262.823242188 c 0
 77.5361328125 294.3125 78.501953125 326.161132812 76.646484375 358.100585938 c 0
 75.693359375 390.750976562 77.0244140625 423.969726562 75.060546875 457.379882812 c 0
 73.8935546875 504.240234375 72.5439453125 554.63671875 78.43359375 598.706054688 c 0
 79.62890625 619.946289062 82.59765625 641.19140625 81.70703125 662.458007812 c 0
 79.6826171875 702.6484375 16.5947265625 699.39453125 18.615234375 659.282226562 c 1
EndSplineSet
Validated: 524329
EndChar

StartChar: Udieresis
Encoding: 34 220 34
Width: 284
VWidth: 824
Flags: HW
LayerCount: 2
Fore
SplineSet
257.786132812 748.6875 m 1
 250.3046875 756.080078125 238.329101562 756.2578125 232.431640625 746.59765625 c 0
 223.095703125 736.502929688 220.997070312 723.745117188 224.336914062 710.764648438 c 0
 232.55078125 692.870117188 251.876953125 690.349609375 266.693359375 703.16015625 c 0
 281.3984375 718.030273438 274.4765625 744.627929688 257.786132812 748.6875 c 1
87.0166015625 744.994140625 m 1
 83.7197265625 755.935546875 71.70703125 766.748046875 58.8486328125 763.262695312 c 0
 54.0478515625 761.9609375 49.5556640625 759.705078125 44.9111328125 757.924804688 c 0
 35.6064453125 750.232421875 31.9130859375 740.203125 32.0703125 728.434570312 c 0
 31.78515625 707.485351562 51.3779296875 693.057617188 73.71484375 697.237304688 c 0
 89.896484375 703.654296875 96.740234375 710.484375 97.697265625 727.732421875 c 0
 96.19140625 736.685546875 93.9521484375 742.604492188 87.0166015625 744.994140625 c 1
260.396484375 726.163085938 m 1
 260.826171875 724.801757812 261.262695312 724.686523438 260.87890625 723.563476562 c 1
 260.79296875 724.40625 260.633789062 725.2734375 260.396484375 726.163085938 c 1
255.874023438 721.584960938 m 1
 256.134765625 720.794921875 256.161132812 720.010742188 255.854492188 719.284179688 c 1
 255.7265625 720.080078125 255.749023438 720.844726562 255.874023438 721.584960938 c 1
264.361328125 379.337890625 m 0
 264.647460938 413.268554688 265.34375 446.697265625 268.103515625 478.90625 c 0
 267.630859375 496.067382812 269.880859375 513.040039062 269.3359375 530.201171875 c 0
 270.047851562 544.665039062 270.124023438 559.19140625 271.7421875 573.623046875 c 0
 271.540039062 593.416992188 275.094726562 614.872070312 271.65234375 632.697265625 c 0
 268.552734375 649.364257812 255.711914062 656.9453125 242.453125 657.173828125 c 0
 224.282226562 657.482421875 205.325195312 643.987304688 209.57421875 621.1484375 c 0
 209.592773438 620.27734375 209.564453125 619.420898438 209.57421875 618.529296875 c 0
 209.340820312 603.555664062 207.124023438 588.689453125 207.201171875 573.69921875 c 0
 206.302734375 557.579101562 205.930664062 541.412109375 205.349609375 525.283203125 c 0
 205.139648438 509.547851562 202.946289062 493.909179688 203.119140625 478.154296875 c 0
 200.642578125 425.78515625 197.75390625 373.439453125 201.50390625 320.77734375 c 0
 204.653320312 264.655273438 198.237304688 217.82421875 175.640625 183.71875 c 0
 166.639648438 167.985351562 157.815429688 152.168945312 141.396484375 143.1953125 c 0
 139.940429688 142.3984375 136.86328125 141.150390625 136.86328125 141.150390625 c 1
 142.786132812 142.55078125 146.486328125 143.518554688 148.6640625 144.130859375 c 1
 146.877929688 143.481445312 144.55078125 142.497070312 142.662109375 141.19140625 c 0
 123.581054688 137.853515625 100.026367188 149.967773438 92.462890625 163.482421875 c 0
 72.5166015625 208.616210938 78.68359375 277.556640625 77.087890625 340.171875 c 0
 76.7177734375 393.638671875 76.5703125 446.27734375 74.935546875 498.7421875 c 0
 75.4140625 516.827148438 75.89453125 534.921875 77.2578125 552.96484375 c 0
 79.818359375 575.70703125 83.2216796875 598.434570312 82.6875 621.390625 c 1
 82.669921875 621.400390625 l 1
 82.919921875 661.915039062 19.2529296875 662.307617188 19.005859375 621.79296875 c 1
 9.7373046875 583.012695312 10.7314453125 541.122070312 10 495.751953125 c 0
 11.1767578125 478.680664062 11.30859375 461.561523438 11.375 444.46484375 c 0
 10.8310546875 407.330078125 10.494140625 370.500976562 12.12890625 334.517578125 c 0
 12.140625 316.495117188 11.341796875 298.537109375 12.693359375 280.548828125 c 0
 13.94140625 265.788085938 14.83984375 251.125976562 14.521484375 236.30078125 c 0
 15.3271484375 199.543945312 21.400390625 167.505859375 32.875 139.12890625 c 0
 47.974609375 105.779296875 85.4013671875 83.9462890625 127.3515625 78.9921875 c 0
 157.24609375 77.2001953125 182.520507812 92.4111328125 203.6015625 111.853515625 c 0
 217.563476562 125.522460938 226.056640625 143.640625 236.025390625 160.25390625 c 0
 261.288085938 202.123046875 272.263671875 262.3203125 265.810546875 329.17578125 c 0
 265.059570312 345.89453125 264.490234375 362.595703125 264.361328125 379.337890625 c 0
EndSplineSet
Validated: 524329
EndChar

StartChar: exclamdown
Encoding: 35 161 35
Width: 146
VWidth: 824
Flags: HW
LayerCount: 2
Fore
SplineSet
62.4228515625 706.711914062 m 0
 29.8984375 706.094726562 3.8173828125 666.123046875 21.63671875 637.03515625 c 0
 32.3251953125 615.051757812 60.69140625 602.703125 83.0771484375 614.653320312 c 0
 107.401367188 624.2109375 122.35546875 654.352539062 110.649414062 678.8359375 c 0
 104.381835938 697.888671875 81.7431640625 706.375976562 62.4228515625 706.711914062 c 0
112.201171875 493.6015625 m 0
 111.80078125 524.166015625 106.279296875 566.543945312 65.0869140625 567.041015625 c 0
 30.23046875 564.013671875 11.802734375 526.421875 10.3388671875 495.068359375 c 0
 8.22265625 459.348632812 16.4755859375 424.446289062 22.0791015625 389.470703125 c 1
 22.8173828125 358.610351562 27.1123046875 327.91015625 23.9365234375 297.034179688 c 0
 22.0986328125 266.827148438 21.25 236.501953125 25.3369140625 206.388671875 c 0
 26.322265625 172.107421875 13.2587890625 133.30078125 34.431640625 102.604492188 c 0
 52.0732421875 80.9130859375 86.8837890625 71.3056640625 111.833007812 85.607421875 c 1
 128.137695312 100.232421875 138.009765625 120.2734375 136.75 142.500976562 c 0
 138.08984375 188.748046875 133.416015625 234.80859375 126.08203125 280.396484375 c 0
 122.240234375 314.58203125 115.048828125 348.51171875 116.708007812 383.02734375 c 0
 117.276367188 420.000976562 111.504882812 456.635742188 112.201171875 493.6015625 c 0
EndSplineSet
Validated: 524329
EndChar

StartChar: exclam
Encoding: 36 33 36
Width: 140
VWidth: 824
Flags: HW
LayerCount: 2
Fore
SplineSet
80.4931640625 716.533203125 m 0
 41.4912109375 716.721679688 11.310546875 679.974609375 10.2783203125 642.626953125 c 0
 8.6640625 617.408203125 14.5263671875 592.53125 16.0244140625 567.4296875 c 0
 18.9326171875 494.015625 28.505859375 422.604492188 32.9794921875 351.326171875 c 0
 33.8740234375 315.434570312 37.87890625 295.572265625 44.2607421875 260.26953125 c 1
 25.509765625 233.428710938 58.2861328125 193.021484375 88.5986328125 204.962890625 c 0
 110.3828125 211.134765625 123.375 249.625 116.698242188 253.48046875 c 1
 122.59765625 298.100585938 118.189453125 327.282226562 120.098632812 372.15234375 c 0
 121.133789062 405.435546875 125.563476562 438.622070312 122.100585938 471.9453125 c 0
 116.916015625 505.447265625 125.15625 538.764648438 124.807617188 572.32421875 c 0
 127.375 609.918945312 136.551757812 649.434570312 122.602539062 685.86328125 c 0
 115.384765625 702.477539062 99.0048828125 715.767578125 80.4931640625 716.533203125 c 0
45.7470703125 240.095703125 m 1
 49.671875 229.470703125 42.84765625 228.888671875 45.7470703125 240.095703125 c 1
92.9013671875 172.806640625 m 1
 65.3408203125 184.606445312 36.177734375 159.291992188 30.8720703125 136.5234375 c 1
 31.154296875 117.5703125 32.3544921875 94.17578125 50.9462890625 83.21484375 c 0
 73.3427734375 68.8515625 103.716796875 80.646484375 117.041992188 101.958984375 c 0
 135.529296875 125.454101562 122.17578125 165.290039062 92.9013671875 172.806640625 c 1
EndSplineSet
Validated: 524329
EndChar

StartChar: zero
Encoding: 37 48 37
Width: 301
VWidth: 824
Flags: HW
LayerCount: 2
Fore
SplineSet
264.806640625 625.833984375 m 0
 246.895507812 654.029296875 219.841796875 674.83203125 189.749023438 690.778320312 c 0
 167.23046875 702.71875 143.6875 705.220703125 119.014648438 700.290039062 c 0
 34.638671875 681.634765625 14.2421875 584.676757812 10 485.916015625 c 0
 10.8427734375 469.900390625 10.7158203125 453.859375 10.5087890625 437.836914062 c 0
 15.9228515625 366.290039062 12.0576171875 286.838867188 29.31640625 224.193359375 c 0
 33.4833984375 209.491210938 36.9228515625 194.633789062 40.7080078125 179.834960938 c 0
 52.3427734375 137.515625 80.83984375 105.250976562 117.142578125 86.8017578125 c 0
 163.352539062 64.0673828125 211.69921875 77.4443359375 245.051757812 104.854492188 c 0
 274.7109375 129.534179688 286.094726562 172.84765625 288.41796875 220.9375 c 0
 289.055664062 237.006835938 289.041015625 253.038085938 290.075195312 269.103515625 c 0
 289.098632812 302.375976562 291.158203125 335.3203125 290.604492188 368.080078125 c 0
 288.721679688 382.875 289.397460938 397.799804688 289.940429688 412.670898438 c 0
 289.91015625 430.018554688 290.764648438 447.309570312 290.85546875 464.639648438 c 0
 291.849609375 480.661132812 290.108398438 496.650390625 289.75390625 512.672851562 c 0
 290.109375 532.252929688 285.551757812 551.306640625 282.5234375 570.5078125 c 0
 279.763671875 590.194335938 274.438476562 608.407226562 264.806640625 625.833984375 c 0
179.920898438 619.076171875 m 1
 167.784179688 581.05078125 162.547851562 540.814453125 152.053710938 502.573242188 c 0
 136.227539062 452.102539062 127.872070312 397.936523438 114.756835938 345.142578125 c 0
 104.916015625 312.421875 97.0830078125 278.83984375 91.091796875 243.021484375 c 1
 82.2265625 271.859375 83.0458984375 306.918945312 81.396484375 340.706054688 c 0
 79.708984375 359.295898438 79.01171875 377.920898438 78.17578125 396.563476562 c 0
 76.58984375 411.487304688 75.380859375 426.458007812 74.9248046875 441.4609375 c 0
 74.9248046875 456.799804688 74.7353515625 472.111328125 74.2734375 487.443359375 c 0
 76.5009765625 534.443359375 81.2744140625 592.05078125 106.411132812 619.07421875 c 0
 112.873046875 626.087890625 120.185546875 634.678710938 129.654296875 638.263671875 c 1
 126.802734375 637.42578125 123.958984375 636.545898438 121.119140625 635.671875 c 1
 124.671875 638.188476562 128.241210938 639.463867188 131.838867188 640.208984375 c 0
 135.657226562 633.46484375 142.276367188 628.147460938 152.100585938 626.18359375 c 0
 167.223632812 627.096679688 171.33984375 625.951171875 179.920898438 619.076171875 c 1
129.66796875 638.286132812 m 1
 130.223632812 638.430664062 130.758789062 638.672851562 131.353515625 638.80859375 c 1
 131.353515625 638.80859375 132.1015625 639.22265625 129.66796875 638.286132812 c 1
224.06640625 520.186523438 m 1
 230.2578125 470.939453125 221.400390625 415.686523438 226.392578125 363.311523438 c 0
 226.896484375 331.783203125 225.594726562 300.116210938 225.896484375 268.237304688 c 0
 223.05859375 214.484375 225.748046875 158.0625 184.86328125 139.92578125 c 0
 183.31640625 139.240234375 180.1015625 138.236328125 180.1015625 138.236328125 c 1
 207.451171875 143.784179688 188.17578125 140.651367188 182.63671875 138.256835938 c 0
 164.44921875 134.580078125 146.185546875 141.48828125 135.390625 149.76953125 c 1
 142.190429688 160.578125 145.094726562 178.481445312 147.166992188 192.154296875 c 0
 151.56640625 223.08203125 157.16015625 253.297851562 164.9375 282.037109375 c 0
 169.490234375 300.39453125 175.217773438 318.475585938 179.515625 336.905273438 c 0
 191.0625 389.104492188 201.94921875 443.419921875 216.733398438 492.198242188 c 0
 219.317382812 501.498046875 221.627929688 510.857421875 224.06640625 520.186523438 c 1
EndSplineSet
Validated: 524325
EndChar

StartChar: nine
Encoding: 38 57 38
Width: 278
VWidth: 824
Flags: HW
LayerCount: 2
Fore
SplineSet
213.59375 615.97265625 m 1
 191.697265625 627.276367188 170.815429688 647.278320312 136.466796875 641.2578125 c 1
 147.682617188 641.87109375 106.752929688 632.985351562 121.12890625 636.4140625 c 0
 147.25 642.643554688 129.272460938 638.228515625 121.474609375 634.8203125 c 0
 99.4208984375 624.482421875 77.5791015625 603.551757812 75.33984375 574.537109375 c 0
 73.5478515625 561.802734375 75.70703125 551.719726562 83.0166015625 541.40625 c 0
 88.4462890625 535.048828125 95.26953125 535.862304688 102.672851562 534.659179688 c 0
 113.723632812 535.056640625 124.719726562 537.014648438 135.8671875 537.534179688 c 1
 135.8671875 537.534179688 159.40234375 545.428710938 150.211914062 543.424804688 c 0
 129.565429688 538.922851562 140.98828125 540.297851562 149.581054688 545.123046875 c 0
 176.674804688 562.3515625 199.950195312 593.340820312 202.709960938 633.830078125 c 1
 269.688476562 623.142578125 261.852539062 639.129882812 257.028320312 598.065429688 c 0
 252.65625 542.000976562 247.959960938 490.079101562 243.646484375 434.510742188 c 0
 240.829101562 384.159179688 239.055664062 332.854492188 238.098632812 280.826171875 c 0
 237.284179688 248.748046875 238.145507812 216.022460938 240.677734375 184.59765625 c 0
 241.231445312 167.814453125 241.375 150.987304688 243.030273438 134.265625 c 0
 244.896484375 125.715820312 245.991210938 117.198242188 246.418945312 108.467773438 c 0
 250.749023438 69.6494140625 189.752929688 62.8466796875 185.422851562 101.6640625 c 1
 185.13671875 89.9990234375 179.391601562 124.1328125 179.391601562 124.1328125 c 1
 177.0625 141.868164062 175.919921875 159.822265625 175.938476562 177.702148438 c 0
 175.383789062 194.985351562 174.740234375 212.2265625 174.184570312 229.499023438 c 0
 176.03515625 262.612304688 172.204101562 295.947265625 173.825195312 329.017578125 c 0
 175.55078125 344.224609375 175.604492188 359.547851562 175.958007812 374.809570312 c 0
 174.130859375 416.521484375 179.73828125 457.16796875 182.931640625 496.709960938 c 0
 187.46875 531.053710938 191.65234375 566.627929688 193.322265625 601.8984375 c 1
 203.349609375 652.305664062 180.360351562 643.075195312 262.624023438 642.282226562 c 1
 269.579101562 630.5390625 262.96484375 611.934570312 261.33984375 599.780273438 c 0
 251.288085938 556.322265625 227.32421875 524.9375 196.724609375 500.713867188 c 0
 175.69140625 485.96484375 151.41796875 476.009765625 125.55078125 474.721679688 c 0
 79.1728515625 469.80859375 46.8681640625 481.52734375 26.8896484375 509.143554688 c 0
 2.9931640625 549.413085938 4.4921875 600.926757812 31.14453125 639.521484375 c 0
 55.232421875 672.994140625 96.8193359375 701.44921875 148.4375 704.041992188 c 0
 198.084960938 702.85546875 234.712890625 685.489257812 260.85546875 657.765625 c 0
 287.453125 627.689453125 240.190429688 585.89453125 213.59375 615.97265625 c 1
EndSplineSet
Validated: 524325
EndChar

StartChar: eight
Encoding: 39 56 39
Width: 276
VWidth: 824
Flags: HW
LayerCount: 2
Fore
SplineSet
143.2265625 643.471679688 m 1
 147.706054688 648.346679688 122.490234375 637.9453125 122.490234375 637.9453125 c 1
 141.265625 641.544921875 134.543945312 642.932617188 123.182617188 635.77734375 c 0
 107.526367188 624.3203125 91.3271484375 607.35546875 100.204101562 578.776367188 c 0
 106.03125 564.52734375 115.21484375 552.038085938 122.588867188 538.615234375 c 0
 139.725585938 509.60546875 156.505859375 481.366210938 176.008789062 454.903320312 c 0
 183.717773438 440.24609375 193.88671875 427.231445312 203.674804688 413.951171875 c 0
 225.797851562 384.04296875 239.827148438 347.534179688 252.740234375 309.356445312 c 0
 266.05859375 271.473632812 270.719726562 226.4296875 262.233398438 180.934570312 c 0
 253.17578125 139.615234375 226.44140625 104.3984375 189.95703125 89.30859375 c 0
 168.400390625 82.052734375 146.899414062 75.494140625 124.09375 75.9345703125 c 0
 103.751953125 74.263671875 85.9853515625 83.103515625 68.826171875 92.83984375 c 0
 31.2060546875 118.815429688 7.107421875 167.234375 10.279296875 230.728515625 c 0
 10.060546875 246.40234375 13.80859375 261.568359375 16.6728515625 276.850585938 c 0
 20.7578125 292.997070312 24.7333984375 309.233398438 29.8134765625 325.108398438 c 0
 42.779296875 362.8671875 67.3779296875 395.44140625 88.728515625 426.188476562 c 0
 114.171875 468.212890625 135.234375 515.442382812 153.057617188 564.55859375 c 0
 159.568359375 578.870117188 164.971679688 593.267578125 168.811523438 608.49609375 c 0
 170.922851562 618.325195312 173.793945312 628.088867188 168.731445312 637.255859375 c 0
 166.60546875 639.407226562 160.032226562 642.657226562 159.76171875 637.478515625 c 1
 154.129882812 636.999023438 150.171875 635.548828125 144.373046875 635.022460938 c 0
 104.384765625 640.423828125 112.873046875 703.2578125 152.861328125 697.856445312 c 1
 210.1953125 705.1640625 246.958984375 659.897460938 232.90234375 598.810546875 c 0
 228.290039062 582.015625 224.134765625 565.034179688 215.78515625 549.610351562 c 0
 203.229492188 517.546875 190.139648438 486.080078125 177.171875 454.5078125 c 0
 161.80859375 416.448242188 137.517578125 384.284179688 116.232421875 351.936523438 c 0
 107.720703125 338.7578125 99.13671875 325.530273438 92.6884765625 311.189453125 c 0
 87.3486328125 297.984375 85.1357421875 284.02734375 80.4130859375 270.63671875 c 0
 77.662109375 257.206054688 73.8349609375 243.94140625 74.1455078125 230.12109375 c 0
 72.2646484375 218.6796875 73.5576171875 206.668945312 76.181640625 195.463867188 c 0
 80.9052734375 164.920898438 100.095703125 135.462890625 136.383789062 138.485351562 c 0
 142.716796875 139.576171875 185.756835938 150.452148438 151.7734375 140.296875 c 1
 153.739257812 140.973632812 155.708984375 141.654296875 157.6796875 142.325195312 c 0
 167.055664062 140.947265625 170.672851562 150.916015625 178.345703125 153.430664062 c 1
 187.284179688 163.560546875 193.69921875 175.170898438 197.747070312 188.137695312 c 0
 206.866210938 223.298828125 198.2734375 259.078125 190.611328125 289.499023438 c 0
 181.317382812 322.442382812 166.883789062 353.19140625 148.950195312 378.873046875 c 0
 139.612304688 392.310546875 130.159179688 405.661132812 121.704101562 419.6796875 c 0
 101.375976562 448.109375 83.484375 477.74609375 65.0322265625 508.3046875 c 0
 48.037109375 536.86328125 24.865234375 572.721679688 36.2001953125 619.430664062 c 0
 48.42578125 669.120117188 99.2802734375 707.935546875 156.578125 708.462890625 c 0
 178.498046875 709.399414062 200.750976562 709.118164062 222.380859375 705.188476562 c 0
 261.3515625 695.3125 245.83203125 634.075195312 206.862304688 643.952148438 c 1
 185.62890625 644.185546875 164.453125 643.567382812 143.2265625 643.471679688 c 1
EndSplineSet
Validated: 524325
EndChar

StartChar: seven
Encoding: 40 55 40
Width: 274
VWidth: 824
Flags: HW
LayerCount: 2
Fore
SplineSet
264.59765625 631.1640625 m 0
 263.966796875 657.641601562 252.6015625 678.270507812 229.51171875 685.864257812 c 0
 213.204101562 690.563476562 197.161132812 689.524414062 180.42578125 688.131835938 c 0
 160.18359375 689.41796875 139.966796875 689.530273438 119.698242188 689.604492188 c 0
 95.8564453125 689.23046875 71.9912109375 690.296875 48.1259765625 689.899414062 c 1
 9.15625 699.775390625 -6.3779296875 638.532226562 32.591796875 628.65625 c 0
 74.9560546875 619.884765625 119.1640625 624.834960938 164.565429688 625.252929688 c 0
 176.48046875 625.755859375 188.6328125 625.489257812 200.541015625 626.74609375 c 1
 184.041992188 563.077148438 169.922851562 496.875976562 157.211914062 431.375976562 c 1
 147.037109375 430.616210938 136.885742188 429.657226562 126.952148438 428.13671875 c 0
 87.982421875 438.013671875 72.447265625 376.76953125 111.41796875 366.892578125 c 0
 122.345703125 365.803710938 133.33203125 365.509765625 144.317382812 365.584960938 c 1
 140.245117188 342.860351562 136.151367188 317.38671875 133.951171875 293.452148438 c 0
 132.31640625 274.571289062 128.850585938 255.884765625 127.845703125 236.966796875 c 0
 123.887695312 204.376953125 119.556640625 169.470703125 119.784179688 134.7734375 c 1
 119.563476562 147.544921875 119.063476562 110.286132812 119.063476562 110.286132812 c 1
 112.532226562 71.740234375 173.091796875 61.462890625 179.623046875 100.0078125 c 0
 182.676757812 112.623046875 184.526367188 125.111328125 183.845703125 138.163085938 c 0
 186.653320312 208.836914062 199.05859375 278.184570312 206.866210938 344.3515625 c 0
 208.327148438 352.864257812 209.700195312 361.426757812 211.21875 369.934570312 c 0
 212.365234375 370.247070312 213.5625 370.403320312 214.666992188 370.8359375 c 0
 253.1640625 360.901367188 268.767578125 421.393554688 230.271484375 431.328125 c 0
 228.458007812 431.701171875 226.59375 431.711914062 224.764648438 431.987304688 c 1
 234.307617188 481.424804688 244.57421875 531.114257812 255.776367188 580.686523438 c 0
 259.150390625 597.419921875 263.374023438 614.099609375 264.59765625 631.1640625 c 0
EndSplineSet
Validated: 524329
EndChar

StartChar: six
Encoding: 41 54 41
Width: 310
VWidth: 824
Flags: HW
LayerCount: 2
Fore
SplineSet
177.75390625 543.7109375 m 0
 149.331054688 523.301757812 128.837890625 496.53515625 114.161132812 462.75 c 0
 96.755859375 416.799804688 83.3525390625 369.240234375 76.3994140625 313.588867188 c 0
 74.3759765625 298.010742188 75.1416015625 282.30859375 74.666015625 266.659179688 c 0
 72.5185546875 234.897460938 80.345703125 202.698242188 91.4541015625 178.999023438 c 0
 103.37890625 156.336914062 130.052734375 145.000976562 156.416992188 137.826171875 c 0
 167.158203125 136.428710938 176.54296875 137.724609375 186.66015625 141.484375 c 1
 153.879882812 128.1875 194.534179688 149.391601562 200.208007812 152.96484375 c 0
 220.215820312 165.0625 233.794921875 191.637695312 236.3671875 219.366210938 c 0
 235.873046875 247.59765625 223.500976562 272.8125 205.62890625 285.805664062 c 0
 197.92578125 291.219726562 187.974609375 294.938476562 178.469726562 293.552734375 c 1
 179.908203125 291.40234375 167.883789062 287.90234375 167.883789062 287.90234375 c 1
 192.94921875 296.357421875 176.50390625 290.4609375 171.4375 287.982421875 c 0
 150.826171875 275.981445312 139.409179688 253.823242188 133.4140625 228.327148438 c 0
 127.818359375 205.388671875 133.896484375 180.353515625 125.452148438 159.495117188 c 1
 118.221679688 122.12890625 59.505859375 133.4921875 66.7373046875 170.858398438 c 1
 66.25390625 170.055664062 65.9755859375 168.147460938 65.9755859375 168.147460938 c 1
 64.916015625 175.081054688 65.96484375 182.014648438 65.5634765625 188.990234375 c 0
 69.7373046875 226.276367188 69.02734375 261.466796875 87.2451171875 287.368164062 c 0
 97.6376953125 304.822265625 108.365234375 321.379882812 125.716796875 332.844726562 c 0
 165.2578125 359.586914062 215.216796875 362.055664062 250.85546875 331.662109375 c 0
 291.307617188 297.216796875 318.448242188 223.521484375 286.806640625 160.192382812 c 0
 277.288085938 140.986328125 265.384765625 122.720703125 247.83984375 109.899414062 c 0
 218.2265625 88.46484375 179.470703125 64.58203125 128.569335938 79.8125 c 0
 86.1337890625 92.2041015625 50.251953125 115.990234375 32.2802734375 153.357421875 c 0
 7.1484375 210.235351562 3.9052734375 297.104492188 19.390625 367.909179688 c 0
 25.3564453125 407.678710938 38.837890625 445.723632812 51.6044921875 480.267578125 c 0
 59.8115234375 499.421875 67.4794921875 518.611328125 79.7197265625 535.712890625 c 0
 105.583007812 574.434570312 144.458984375 602.030273438 185.7890625 625.043945312 c 1
 214.16015625 653.739257812 259.25 609.165039062 230.881835938 580.46875 c 1
 214.609375 566.216796875 195.536132812 555.860351562 177.75390625 543.7109375 c 0
EndSplineSet
Validated: 524325
EndChar

StartChar: five
Encoding: 42 53 42
Width: 298
VWidth: 824
Flags: HW
LayerCount: 2
Fore
SplineSet
191.302734375 641.428710938 m 0
 170.985351562 639.986328125 150.560546875 642.041992188 130.286132812 640.358398438 c 0
 123.834960938 643.317382812 76.3330078125 628.506835938 107.975585938 637.9296875 c 1
 100.036132812 636.8359375 96.7646484375 626.7890625 94.3349609375 620.354492188 c 0
 89.0576171875 608.2734375 88.0595703125 595.26953125 86.2412109375 582.404296875 c 0
 85.447265625 569.977539062 82.822265625 557.38671875 83.8017578125 544.920898438 c 0
 86.6103515625 539.407226562 76.5478515625 555.159179688 74.8720703125 557.053710938 c 1
 75.947265625 557.725585938 78.0419921875 559.096679688 78.0419921875 559.096679688 c 1
 73.8427734375 558.29296875 70.0185546875 555.848632812 65.7734375 555.314453125 c 1
 65.7734375 555.314453125 86.548828125 564.068359375 91.017578125 566.24609375 c 0
 110.056640625 575.458007812 130.364257812 581.020507812 150.55859375 587.073242188 c 0
 195.671875 596.733398438 232.939453125 568.091796875 253.77734375 543.110351562 c 0
 282.942382812 510.842773438 285.767578125 462.80859375 288.415039062 404.385742188 c 0
 287.954101562 389.984375 287.873046875 375.6015625 288.455078125 361.205078125 c 0
 290.071289062 277.701171875 269.970703125 201.12109375 237.997070312 147.311523438 c 0
 219.702148438 118.919921875 191.15625 97.427734375 158.209960938 84.3896484375 c 0
 135.651367188 75.6796875 113.973632812 73.4072265625 90.533203125 78.1767578125 c 0
 70.166015625 83.2958984375 54.30859375 96.7412109375 40.3056640625 111.684570312 c 0
 19.326171875 137.196289062 15.4990234375 167.258789062 10.486328125 207.850585938 c 0
 4.0654296875 245.474609375 63.1875 255.565429688 69.6083984375 217.940429688 c 1
 73.2626953125 190.982421875 72.7265625 166.66796875 87.2060546875 150.120117188 c 0
 94.0166015625 143.204101562 101.744140625 136.208984375 111.637695312 134.578125 c 0
 119.375976562 133.92578125 149.880859375 140.157226562 122.729492188 132.815429688 c 1
 130.166015625 135.493164062 137.451171875 138.657226562 145.047851562 140.8515625 c 0
 149.116210938 142.030273438 137.32421875 137.3671875 133.35546875 135.88671875 c 0
 121.213867188 131.3515625 145.266601562 141.181640625 149.0078125 143.282226562 c 0
 174.677734375 158.158203125 191.743164062 182.368164062 203.037109375 211.009765625 c 0
 208.564453125 226.713867188 210.596679688 243.21875 215.424804688 259.127929688 c 0
 222.02734375 289.690429688 226.595703125 322.209960938 228.096679688 356.633789062 c 0
 228.146484375 370.625 227.26953125 384.607421875 228.176757812 398.56640625 c 0
 227.024414062 427.28125 225.5234375 454.634765625 221.579101562 480.022460938 c 0
 215.147460938 499.442382812 198.975585938 519.135742188 179.654296875 525.734375 c 0
 169.6640625 529.145507812 160.616210938 530.4140625 150.491210938 526.45703125 c 0
 147.900390625 525.796875 142.719726562 524.477539062 142.719726562 524.477539062 c 1
 146.076171875 526.49609375 150.186523438 526.887695312 153.78515625 528.435546875 c 0
 169.076171875 535.002929688 139.096679688 523.8984375 135.611328125 522.581054688 c 0
 115.333984375 514.928710938 94.3388671875 500.064453125 71.318359375 498.499023438 c 0
 46.87890625 499.34765625 28.890625 511.81640625 23.79296875 536.866210938 c 0
 22.232421875 553.680664062 24.6669921875 569.978515625 26.078125 586.7421875 c 0
 29.1259765625 602.311523438 28.591796875 618.654296875 35.125 633.462890625 c 0
 42.330078125 654.802734375 52.0107421875 673.952148438 71.7958984375 686.380859375 c 1
 94.517578125 694.153320312 116.5078125 701.162109375 140.766601562 701.194335938 c 0
 161.512695312 702.17578125 182.268554688 702.591796875 203.028320312 703.147460938 c 0
 222.978515625 704.796875 242.755859375 708.189453125 262.77734375 708.8359375 c 0
 300.424804688 705.578125 295.303710938 646.421875 257.657226562 649.6796875 c 1
 236.177734375 643.836914062 213.553710938 641.638671875 191.302734375 641.428710938 c 0
EndSplineSet
Validated: 524325
EndChar

StartChar: three
Encoding: 43 51 43
Width: 299
VWidth: 824
Flags: HW
LayerCount: 2
Fore
SplineSet
116.708007812 664.803710938 m 0
 137.8125 665.944335938 158.923828125 667.713867188 180.047851562 668.379882812 c 0
 197.26171875 670.5390625 215.430664062 671.264648438 232.392578125 667.322265625 c 0
 262.311523438 654.779296875 266.319335938 630.000976562 253.40625 603.001953125 c 0
 245.778320312 587.3515625 233.41015625 575.270507812 221.4453125 562.98046875 c 0
 197.081054688 535.97265625 170.6953125 510.841796875 147.671875 482.552734375 c 0
 134.618164062 465.295898438 143.830078125 477.4296875 131.662109375 495.62890625 c 1
 118.438476562 504.263671875 130.094726562 503.685546875 138.510742188 504.959960938 c 0
 158.672851562 508.077148438 125.15625 504.91015625 153.1953125 507.137695312 c 0
 199.73046875 508.263671875 234.985351562 478.654296875 257.771484375 452.1015625 c 0
 277.998046875 424.700195312 284.774414062 390.181640625 286.240234375 346.092773438 c 0
 286.610351562 329.643554688 287.830078125 313.258789062 289.107421875 296.861328125 c 0
 291.060546875 255.860351562 284.141601562 224.348632812 273.69921875 193.325195312 c 0
 267.509765625 174.41015625 255.21875 158.650390625 243.319335938 143.037109375 c 0
 230.723632812 128.116210938 216.03515625 115.217773438 200.200195312 103.872070312 c 0
 165.719726562 83.439453125 159.14453125 84.025390625 134.05078125 76.390625 c 1
 83.0029296875 69.6259765625 47.8642578125 114.838867188 31.1171875 150.630859375 c 0
 21.1103515625 171.830078125 14.830078125 194.427734375 11.1513671875 219.4296875 c 0
 0.9306640625 258.205078125 61.8583984375 274.265625 72.080078125 235.4921875 c 1
 78.3017578125 214.950195312 81.00390625 195.891601562 90.048828125 177.451171875 c 0
 96.29296875 164.958007812 104.55078125 153.256835938 114.821289062 143.75390625 c 0
 120.91796875 138.763671875 127.04296875 137.280273438 134.588867188 140.345703125 c 0
 138.580078125 141.827148438 142.590820312 143.583007812 146.663085938 144.8203125 c 1
 146.663085938 144.8203125 138.825195312 141.255859375 134.765625 139.8515625 c 0
 128.205078125 137.59375 160.502929688 149.3671875 153.592773438 148.736328125 c 1
 165.922851562 154.638671875 175.615234375 164.275390625 185.8984375 173.088867188 c 0
 194.673828125 184.06640625 204.84375 194.52734375 210.173828125 207.694335938 c 0
 215.3203125 220.872070312 220.086914062 234.342773438 223.609375 248.008789062 c 0
 224.8515625 261.619140625 225.544921875 275.155273438 225.287109375 288.810546875 c 0
 223.896484375 306.327148438 221.533203125 323.75390625 221.0859375 341.348632812 c 0
 221.443359375 370.012695312 219.645507812 396.180664062 206.61328125 413.2578125 c 0
 193.623046875 427.823242188 171.064453125 447.901367188 144.534179688 443.545898438 c 0
 121.127929688 440.209960938 95.224609375 439.62890625 83.7734375 458.622070312 c 0
 72.63671875 477.0859375 79.505859375 496.984375 89.912109375 513.6171875 c 0
 102.602539062 529.629882812 115.583984375 545.456054688 130.104492188 559.8671875 c 0
 142.872070312 572.331054688 156.061523438 584.120117188 167.3828125 598 c 0
 176.682617188 607.434570312 187.200195312 615.521484375 194.741210938 626.481445312 c 0
 200.125976562 632.396484375 197.965820312 627.967773438 200.657226562 621.893554688 c 0
 204.3515625 613.583984375 206.296875 612.817382812 211.510742188 607.391601562 c 1
 197.548828125 605.443359375 183.153320312 606.862304688 169.240234375 603.942382812 c 0
 147.947265625 601.61328125 126.565429688 600.19921875 105.177734375 599.084960938 c 0
 83.322265625 598.193359375 61.3193359375 595.924804688 39.5087890625 598.342773438 c 0
 0.537109375 608.219726562 16.0576171875 669.456054688 55.02734375 659.580078125 c 1
 75.181640625 663.709960938 96.14453125 663.241210938 116.708007812 664.803710938 c 0
EndSplineSet
Validated: 524325
EndChar

StartChar: four
Encoding: 44 52 44
Width: 287
VWidth: 824
Flags: HW
LayerCount: 2
Fore
SplineSet
249.319335938 528.208007812 m 0
 240.547851562 528.083007812 231.904296875 526.609375 224.884765625 525.233398438 c 1
 225.921875 545.58203125 227.334960938 565.951171875 226.168945312 586.330078125 c 0
 224.78125 626.509765625 161.6484375 624.328125 163.036132812 584.149414062 c 1
 159.05859375 560.952148438 158.959960938 537.572265625 158.18359375 513.7890625 c 1
 130.932617188 509.211914062 102.314453125 506.1875 75.142578125 499.571289062 c 1
 81.376953125 539.561523438 85.36328125 579.571289062 91.2294921875 619.24609375 c 0
 93.87109375 643.232421875 97.3310546875 667.323242188 95.8798828125 691.514648438 c 1
 95.2080078125 710.975585938 80.0498046875 720.499023438 64.7529296875 720.578125 c 0
 48.46875 720.666992188 32.02734375 710.047851562 32.7431640625 689.330078125 c 1
 23.83203125 645.62890625 23.0048828125 600.171875 16.1875 555.266601562 c 0
 15.861328125 536.887695312 11.9208984375 518.909179688 10.0341796875 500.731445312 c 0
 9.333984375 472.05859375 19.3662109375 454.416992188 45.2861328125 441.791992188 c 0
 67.71484375 435.25 91.205078125 438.215820312 114.038085938 440.637695312 c 0
 128.901367188 442.12109375 143.526367188 445.06640625 158.103515625 448.244140625 c 1
 158.715820312 436.430664062 159.055664062 424.64453125 158.624023438 412.776367188 c 0
 159.966796875 398.0390625 159.814453125 383.352539062 160.188476562 368.619140625 c 0
 159.6328125 353.985351562 161.428710938 339.428710938 161.836914062 324.799804688 c 0
 160.48046875 310.094726562 163.791992188 295.39453125 162.456054688 280.721679688 c 0
 163.10546875 265.796875 162.16796875 250.947265625 162.086914062 236.059570312 c 0
 162.296875 220.778320312 161.1328125 205.434570312 161.466796875 190.151367188 c 0
 161.31640625 173.943359375 162.486328125 157.659179688 164.752929688 141.604492188 c 0
 164.743164062 129.120117188 169.819335938 116.84765625 169.284179688 104.379882812 c 0
 171.111328125 64.3173828125 234.063476562 67.1884765625 232.235351562 107.250976562 c 0
 232.611328125 135.633789062 225.313476562 164.297851562 225.704101562 194.854492188 c 0
 225.60546875 224.11328125 226.279296875 253.194335938 226.634765625 282.174804688 c 0
 227.013671875 298.659179688 225.625976562 315.109375 225.64453125 331.602539062 c 0
 224.50390625 345.485351562 223.376953125 359.3984375 223.836914062 373.340820312 c 0
 223.817382812 387.365234375 223.18359375 401.3046875 222.657226562 415.317382812 c 0
 222.946289062 430.838867188 222.772460938 446.313476562 222.329101562 461.819335938 c 1
 230.811523438 463.373046875 238.546875 465.4453125 246.688476562 466.932617188 c 0
 285.685546875 465.2578125 288.31640625 526.533203125 249.319335938 528.208007812 c 0
EndSplineSet
Validated: 524329
EndChar

StartChar: one
Encoding: 45 49 45
Width: 268
VWidth: 824
Flags: HW
LayerCount: 2
Fore
SplineSet
185.5390625 414.890625 m 0
 185.185546875 453.78515625 183.939453125 492.0703125 183.1171875 529.959960938 c 0
 183.944335938 568.041015625 185.55078125 604.327148438 188.852539062 639.618164062 c 0
 189.837890625 655.96875 190.442382812 673.111328125 182.330078125 687.92578125 c 1
 172.885742188 695.33984375 169.921875 704.981445312 154.546875 704.6953125 c 0
 132.71875 704.283203125 119.494140625 685.283203125 108.692382812 669.135742188 c 0
 96.21875 654.23828125 83.1845703125 639.765625 68.5322265625 626.955078125 c 0
 51.3876953125 612.202148438 32.5927734375 599.282226562 16.9462890625 582.891601562 c 1
 16.95703125 582.8515625 l 1
 -8.2080078125 551.46484375 41.109375 511.922851562 66.2744140625 543.30859375 c 1
 85.412109375 554.857421875 102.625976562 568.814453125 118.958984375 583.958007812 c 1
 117.868164062 565.254882812 118.216796875 546.486328125 117.376953125 527.737304688 c 0
 123.610351562 433.62109375 118.629882812 337.235351562 115.567382812 243.047851562 c 0
 115.854492188 226.633789062 118.234375 210.354492188 117.528320312 193.92578125 c 0
 117.548828125 177.467773438 119.5859375 161.159179688 120.677734375 144.771484375 c 0
 120.873046875 144.750976562 121.044921875 144.4453125 121.196289062 143.9296875 c 1
 99.1669921875 142.334960938 77.0322265625 142.904296875 55.1533203125 139.3125 c 1
 16.18359375 149.188476562 0.6640625 87.951171875 39.634765625 78.07421875 c 0
 86.228515625 71.01171875 133.30078125 79.9755859375 176.75390625 83.5625 c 0
 184.047851562 84.1220703125 214.712890625 82.130859375 217.046875 82.7880859375 c 0
 252.079101562 67.630859375 275.895507812 122.6796875 240.862304688 137.836914062 c 0
 227.966796875 147.685546875 202.073242188 147.016601562 185.235351562 147.2265625 c 1
 183.158203125 162.743164062 182.090820312 180.724609375 182.104492188 197.334960938 c 0
 181.922851562 213.286132812 180.16015625 229.165039062 180.474609375 245.131835938 c 0
 181.916992188 283.048828125 183.698242188 320.905273438 184.884765625 358.756835938 c 0
 185.12109375 377.466796875 184.392578125 396.189453125 185.5390625 414.890625 c 0
177.563476562 658.094726562 m 1
 177.625976562 658.2109375 177.630859375 658.279296875 177.630859375 658.279296875 c 1
 177.633789062 658.26953125 177.61328125 658.208984375 177.563476562 658.094726562 c 1
EndSplineSet
Validated: 524325
EndChar

StartChar: two
Encoding: 46 50 46
Width: 271
VWidth: 824
Flags: HW
LayerCount: 2
Fore
SplineSet
19.79296875 586.147460938 m 0
 28.615234375 627.209960938 51.814453125 658.520507812 80.39453125 681.458007812 c 0
 115.440429688 707.448242188 158.296875 717.264648438 204.134765625 699.671875 c 1
 276.7421875 663.338867188 247.10546875 540.49609375 227.4140625 469.416992188 c 0
 201.296875 391.309570312 169.8125 319.83203125 143.487304688 241.862304688 c 0
 135.828125 211.512695312 124.555664062 182.211914062 111.66015625 155.663085938 c 0
 105.65234375 142.168945312 100.548828125 128.3515625 95.0380859375 114.669921875 c 1
 92.9189453125 120.448242188 97.8955078125 110.763671875 93.279296875 120.9609375 c 0
 89.67578125 128.919921875 89.634765625 124.052734375 89.849609375 127.836914062 c 0
 89.396484375 128.567382812 87.759765625 129.412109375 88.439453125 129.965820312 c 0
 88.646484375 130.142578125 107.8125 132.338867188 109.198242188 132.404296875 c 0
 120.551757812 134.358398438 131.970703125 136.796875 143.515625 137.811523438 c 0
 156.015625 141.90234375 169.123046875 140.728515625 181.970703125 142.108398438 c 0
 195.432617188 142.658203125 208.85546875 142.620117188 222.34375 141.705078125 c 0
 226.80078125 142.158203125 231.112304688 142.942382812 235.274414062 144.591796875 c 0
 271.510742188 142.836914062 268.754882812 85.8984375 232.518554688 87.6513671875 c 1
 213.490234375 84.8017578125 192.896484375 87.4716796875 172.256835938 85.708984375 c 0
 136.677734375 84.654296875 94.0625 65.8984375 60.091796875 80.9921875 c 0
 42.390625 92.1953125 35.0703125 109.526367188 40.08203125 130.032226562 c 0
 44.8154296875 145.19140625 50.8896484375 159.654296875 56.51171875 174.51953125 c 0
 63.5771484375 187.29296875 69.515625 200.514648438 73.4521484375 214.623046875 c 0
 79.826171875 227.16796875 84.45703125 240.149414062 86.583984375 254.142578125 c 0
 102.90234375 299.94921875 119.048828125 345.907226562 136.365234375 390.419921875 c 0
 141.912109375 406.375976562 150.595703125 421.084960938 155.443359375 437.3671875 c 0
 167.751953125 464.087890625 175.140625 495.875976562 181.385742188 526.697265625 c 0
 189.018554688 550.321289062 195.418945312 575.021484375 194.134765625 605.159179688 c 0
 195.016601562 623.302734375 190.548828125 644.159179688 175.91796875 648.827148438 c 0
 164.635742188 652.51953125 153.75390625 653.00390625 141.993164062 650.952148438 c 0
 131.443359375 648.497070312 142.80078125 650.952148438 148.413085938 653.811523438 c 0
 157.33203125 658.337890625 117.375 643.114257812 125.889648438 644.17578125 c 1
 114.807617188 635.940429688 103.221679688 628.520507812 95.3876953125 616.791992188 c 0
 77.4462890625 593.81640625 74.4619140625 558.079101562 66.966796875 526.16015625 c 1
 68.2138671875 490.083007812 11.5224609375 488.123046875 10.2763671875 524.202148438 c 0
 8.580078125 545.341796875 15.048828125 565.790039062 19.79296875 586.147460938 c 0
EndSplineSet
Validated: 524325
EndChar

StartChar: udieresis
Encoding: 47 252 47
Width: 227
VWidth: 824
Flags: HW
LayerCount: 2
Fore
SplineSet
82.1396484375 454.63671875 m 0
 74.1689453125 473.076171875 62.890625 480.173828125 42.4990234375 478.196289062 c 0
 36.5830078125 474.709960938 30.294921875 471.7890625 24.751953125 467.736328125 c 0
 8.1826171875 455.622070312 16.1552734375 427.268554688 25.4482421875 418.104492188 c 1
 32.970703125 392.734375 62.9541015625 395.411132812 78.126953125 413.588867188 c 0
 86.0224609375 426.530273438 86.2724609375 440.477539062 82.1396484375 454.63671875 c 0
182.676757812 477.442382812 m 1
 154.158203125 486.122070312 144.001953125 442.849609375 156.1015625 418.619140625 c 1
 170.2109375 399.489257812 193.1796875 401.909179688 208.528320312 419.291015625 c 0
 229.163085938 444.158203125 210.021484375 484.235351562 182.676757812 477.442382812 c 1
34.1982421875 331.544921875 m 1
 19.2275390625 311.440429688 13.982421875 287.416992188 10.5068359375 263.162109375 c 0
 7.728515625 237.688476562 16.6298828125 215.53515625 30.8388671875 195.030273438 c 0
 45.3076171875 175.43359375 66.099609375 163.798828125 88.5537109375 155.7109375 c 0
 124.194335938 147.076171875 137.181640625 151.815429688 170.770507812 166.905273438 c 1
 216.111328125 196.390625 230.485351562 269.001953125 205.827148438 329.92578125 c 0
 192.109375 368.439453125 131.590820312 346.8828125 145.310546875 308.369140625 c 0
 147.935546875 298.653320312 150.940429688 289.047851562 153.163085938 279.240234375 c 0
 156.866210938 252.57421875 146.701171875 223.12890625 127.258789062 214.177734375 c 1
 155.649414062 224.646484375 129.205078125 210.8828125 117.883789062 213.856445312 c 0
 98.162109375 218.19140625 70.509765625 232.958007812 76.2177734375 258.46875 c 0
 79.88671875 277.16796875 87.6083984375 294.33203125 94.2314453125 312.13671875 c 1
 106.598632812 350.393554688 46.529296875 369.685546875 34.1982421875 331.544921875 c 1
EndSplineSet
Validated: 524329
EndChar

StartChar: uacute
Encoding: 48 250 48
Width: 236
VWidth: 824
Flags: HW
LayerCount: 2
Fore
SplineSet
169.41796875 517.33203125 m 0
 160.8046875 510.462890625 152.922851562 502.771484375 145.780273438 494.369140625 c 0
 130.115234375 477.890625 112.90625 462.806640625 98.666015625 445.063476562 c 1
 77.837890625 410.736328125 131.775390625 378.0078125 152.602539062 412.333984375 c 1
 172.291992188 424.53515625 187.893554688 442.51171875 203.12890625 459.735351562 c 0
 209.890625 467.484375 216.498046875 475.499023438 221.666015625 484.423828125 c 0
 236.391601562 507.8046875 214.931640625 531.016601562 193.610351562 531.178710938 c 0
 184.610351562 531.248046875 175.634765625 527.204101562 169.41796875 517.33203125 c 0
92.7412109375 292.65625 m 0
 105.109375 330.913085938 45.0380859375 350.20703125 32.708984375 312.065429688 c 1
 15.685546875 277.694335938 3.3408203125 236.180664062 13.9296875 188.889648438 c 0
 23.6220703125 149.28125 61.892578125 122.219726562 105.813476562 117.237304688 c 0
 159.31640625 112.330078125 200.548828125 149.989257812 216.112304688 191.046875 c 0
 229.354492188 225.57421875 227.833984375 265.87890625 221.00390625 304.438476562 c 0
 211.89453125 344.284179688 149.282226562 329.969726562 158.391601562 290.123046875 c 0
 164.5 263.080078125 163.905273438 231.065429688 154.319335938 207.936523438 c 0
 148.012695312 196.927734375 140.02734375 185.19140625 126.905273438 180.641601562 c 1
 129.143554688 181.153320312 132.262695312 181.813476562 137.139648438 182.708984375 c 1
 137.139648438 182.708984375 116.818359375 175.708007812 120.755859375 179.630859375 c 1
 100.200195312 174.720703125 80.3505859375 190.016601562 76.2314453125 205.434570312 c 0
 67.443359375 237.606445312 86.126953125 267.5859375 92.7412109375 292.65625 c 0
126.905273438 180.641601562 m 1
 120.952148438 179.279296875 122.891601562 179.247070312 126.905273438 180.641601562 c 1
EndSplineSet
Validated: 524329
EndChar

StartChar: oacute
Encoding: 49 243 49
Width: 251
VWidth: 824
Flags: HW
LayerCount: 2
Fore
SplineSet
219.385742188 499.852539062 m 0
 243.20703125 533.079101562 190.986328125 569.897460938 167.455078125 537.080078125 c 1
 152.2734375 525.790039062 121.486328125 501.5390625 102.5 480.887695312 c 0
 77.927734375 449.041015625 127.969726562 410.424804688 152.545898438 442.272460938 c 1
 177.213867188 457.793945312 206.141601562 484.737304688 219.385742188 499.852539062 c 0
236.274414062 243.41015625 m 0
 221.473632812 290.029296875 187.01953125 337.002929688 123.348632812 324.692382812 c 1
 75.681640625 323.28125 54.421875 304.65625 30.2138671875 274.258789062 c 0
 15.19921875 253.8984375 10.904296875 231.416992188 10 206.764648438 c 0
 10.66796875 185.209960938 18.40625 164.79296875 29.44921875 146.549804688 c 0
 52.1728515625 114.493164062 90.525390625 96.3525390625 143.244140625 98.240234375 c 0
 172.8125 100.646484375 199.684570312 114.37890625 218.483398438 136.990234375 c 0
 241.497070312 163.743164062 247.33203125 202.556640625 236.274414062 243.41015625 c 0
126.708984375 261.262695312 m 0
 133.186523438 261.262695312 139.700195312 260.508789062 146.32421875 258.986328125 c 1
 150.974609375 255.8359375 155.6640625 254.150390625 160.203125 253.639648438 c 0
 177.608398438 232.8359375 187.868164062 193.747070312 164.012695312 171.315429688 c 0
 158.391601562 167.484375 143.727539062 161.295898438 150.1640625 162.826171875 c 0
 152.508789062 163.3828125 154.139648438 163.799804688 155.78515625 164.217773438 c 1
 129.173828125 152.991210938 98.2373046875 165.877929688 84.2802734375 179.647460938 c 0
 77.5888671875 186.387695312 75.662109375 199.373046875 74.8525390625 208.500976562 c 0
 75.9765625 227.942382812 85.82421875 244.775390625 99.5029296875 254.918945312 c 1
 107.157226562 253.500976562 115.40625 255.11328125 122.920898438 261.172851562 c 0
 124.182617188 261.22265625 125.4453125 261.262695312 126.708984375 261.262695312 c 0
107.813476562 259.047851562 m 0
 108.133789062 259.017578125 107.723632812 258.724609375 106.333984375 258.338867188 c 1
 107.090820312 258.595703125 107.606445312 259.065429688 107.813476562 259.047851562 c 0
96.49609375 255.635742188 m 0
 96.8681640625 255.526367188 97.2421875 255.42578125 97.6171875 255.331054688 c 1
 96.8564453125 255.123046875 96.08984375 254.942382812 95.3056640625 254.831054688 c 1
 95.3056640625 254.831054688 95.087890625 255.078125 96.49609375 255.635742188 c 0
EndSplineSet
Validated: 524329
EndChar

StartChar: iacute
Encoding: 50 237 50
Width: 158
VWidth: 824
Flags: HW
LayerCount: 2
Fore
SplineSet
141.7109375 489.763671875 m 0
 165.392578125 520.286132812 117.389648438 556.706054688 94.1064453125 526.701171875 c 0
 84.7880859375 519.958007812 75.330078125 513.530273438 67.501953125 504.927734375 c 0
 51.5966796875 488.6171875 34.00390625 473.567382812 20.9365234375 454.7890625 c 0
 0.1083984375 420.462890625 54.048828125 387.734375 74.876953125 422.060546875 c 1
 92.751953125 436.532226562 108.998046875 452.6484375 124.471679688 469.646484375 c 0
 129.677734375 476.443359375 137.80859375 483.224609375 141.7109375 489.763671875 c 0
73.328125 287.724609375 m 0
 71.1904296875 327.919921875 8.1103515625 324.469726562 10.244140625 284.369140625 c 0
 9.4169921875 262.094726562 10.7158203125 239.659179688 13.7587890625 217.580078125 c 0
 16.8759765625 193.3046875 18.501953125 168.874023438 21.6884765625 144.81640625 c 1
 15.06640625 106.025390625 76.021484375 95.619140625 82.6435546875 134.41015625 c 0
 90.42578125 163.784179688 82.21875 197.669921875 79.078125 228.670898438 c 0
 76.8681640625 248.323242188 76.943359375 268.268554688 73.328125 287.724609375 c 0
EndSplineSet
Validated: 524329
EndChar

StartChar: eacute
Encoding: 51 233 51
Width: 262
VWidth: 824
Flags: HW
LayerCount: 2
Fore
SplineSet
196.70703125 503.588867188 m 0
 223.58203125 535.928710938 172.658203125 577.016601562 146.391601562 545.401367188 c 1
 131.8359375 535.487304688 117.197265625 525.045898438 105.412109375 511.866210938 c 0
 80.837890625 480.017578125 130.879882812 441.403320312 155.455078125 473.250976562 c 1
 169.827148438 482.583007812 183.59765625 492.52734375 196.70703125 503.588867188 c 0
152.2890625 358.515625 m 0
 96.265625 372.029296875 50.533203125 329.83984375 29.0986328125 294.295898438 c 0
 8.8232421875 263.969726562 3.9541015625 222.56640625 18.052734375 183.663085938 c 0
 26.5966796875 163.838867188 37.5966796875 145.6953125 52.701171875 130.256835938 c 0
 78.1572265625 105.333007812 115.126953125 92.9912109375 160.028320312 91.1181640625 c 0
 178.673828125 91.716796875 195.802734375 96.6171875 213.157226562 103.760742188 c 0
 218.283203125 105.872070312 222.686523438 109.495117188 227.787109375 111.663085938 c 0
 251.599609375 124.760742188 254.2421875 136.633789062 251.432617188 162.737304688 c 1
 242.426757812 193.885742188 200.349609375 187.524414062 192.321289062 163.05859375 c 0
 188.857421875 161.440429688 177.671875 156.509765625 174.54296875 155.403320312 c 0
 170.259765625 154.203125 167.98828125 153.305664062 172.708984375 153.752929688 c 1
 160.190429688 151.752929688 146.905273438 154.442382812 134.8828125 157.940429688 c 0
 122.96484375 161.040039062 111.159179688 163.764648438 101.791015625 172.403320312 c 0
 94.904296875 178.879882812 89.685546875 186.654296875 84.9384765625 194.743164062 c 1
 105.33203125 196.493164062 125.2109375 202.361328125 145.091796875 207.032226562 c 0
 178.900390625 214.662109375 197.891601562 226.125976562 214.005859375 255.321289062 c 0
 223.077148438 278.314453125 217.4765625 300.487304688 206.448242188 321.463867188 c 0
 193.514648438 341.151367188 174.359375 352.041015625 152.2890625 358.515625 c 0
125.780273438 300.278320312 m 1
 134.459960938 298.421875 142.6015625 297.185546875 149.67578125 291.200195312 c 0
 154.993164062 283.486328125 157.86328125 278.473632812 149.44921875 274.420898438 c 1
 154.529296875 276.16796875 159.15234375 277.701171875 146.69921875 273.116210938 c 0
 125.629882812 267.893554688 104.046875 265.180664062 83.7041015625 257.306640625 c 1
 83.0283203125 257.356445312 82.3642578125 257.375976562 81.7080078125 257.385742188 c 1
 89.744140625 272.595703125 104.048828125 287.284179688 118.650390625 295.708007812 c 0
 130.388671875 301.204101562 118.323242188 295.314453125 111.176757812 293.956054688 c 0
 103.129882812 292.42578125 123.138671875 300.887695312 126.146484375 301.112304688 c 0
 126.702148438 301.15625 126.674804688 300.916992188 125.780273438 300.278320312 c 1
149.44921875 274.420898438 m 1
 148.874023438 274.223632812 148.297851562 273.858398438 147.741210938 273.638671875 c 1
 148.383789062 273.91015625 148.915039062 274.163085938 149.44921875 274.420898438 c 1
EndSplineSet
Validated: 524325
EndChar

StartChar: aacute
Encoding: 52 225 52
Width: 312
VWidth: 824
Flags: HW
LayerCount: 2
Fore
SplineSet
181.723632812 532.696289062 m 0
 181.147460938 532.529296875 180.57421875 532.362304688 179.99609375 532.196289062 c 0
 164.309570312 520.39453125 148.415039062 508.59375 135.635742188 493.536132812 c 1
 111.05859375 461.688476562 161.104492188 423.0703125 185.680664062 454.91796875 c 1
 205.381835938 469.51953125 226 483.381835938 238.500976562 505.538085938 c 0
 255.841796875 541.79296875 198.93359375 568.676757812 181.723632812 532.696289062 c 0
170.484375 354.212890625 m 0
 105.537109375 371.638671875 63.5205078125 330.139648438 34.865234375 294.958984375 c 0
 15.6904296875 265.224609375 1.212890625 225.158203125 16.2255859375 182.2578125 c 0
 31.8203125 144.450195312 75.005859375 123.197265625 122.250976562 118.766601562 c 0
 153.44921875 116.97265625 182.071289062 135.483398438 201.314453125 157.325195312 c 1
 207.77734375 140.916992188 218.26171875 126.702148438 231.208007812 114.477539062 c 0
 242.534179688 103.544921875 255.611328125 100.15234375 270.682617188 98.375 c 0
 308.256835938 95.31640625 313.809570312 152.922851562 278.178710938 158.493164062 c 1
 259.171875 173.13671875 257.190429688 197.048828125 251.51953125 224.272460938 c 0
 247.899414062 245.868164062 244.620117188 268.9453125 237.48828125 288.416015625 c 1
 239.455078125 296.078125 238.268554688 304.655273438 232.228515625 312.923828125 c 0
 216.934570312 334.3984375 195.080078125 346.422851562 170.484375 354.212890625 c 0
118.01953125 291.698242188 m 1
 121.975585938 292.84765625 134.6796875 295.947265625 141.594726562 295.077148438 c 0
 152.241210938 292.21875 161.950195312 289.119140625 170.840820312 283.608398438 c 1
 160.770507812 243.291992188 169.252929688 197.333007812 131.053710938 180.833984375 c 1
 110.28125 181.423828125 85.244140625 190.889648438 75.8427734375 204.952148438 c 0
 71.5703125 213.293945312 74.0771484375 223.279296875 75.529296875 232.09765625 c 0
 78.7890625 243.49609375 84.4384765625 254.265625 92.1416015625 263.298828125 c 0
 101.823242188 274.619140625 111.797851562 286.294921875 125.314453125 293.130859375 c 0
 137.810546875 297.805664062 124.639648438 292.6953125 118.01953125 291.698242188 c 1
145.092773438 184.772460938 m 1
 144.197265625 184.591796875 137.0703125 180.743164062 131.844726562 180.823242188 c 1
 141.774414062 183.544921875 145.092773438 184.772460938 145.092773438 184.772460938 c 1
280.41015625 157.188476562 m 1
 284.435546875 155.649414062 284.15625 155.123046875 280.41015625 157.188476562 c 1
EndSplineSet
Validated: 524325
EndChar

StartChar: g
Encoding: 53 103 53
Width: 255
VWidth: 824
Flags: HW
LayerCount: 2
Fore
SplineSet
146.989257812 202.397460938 m 1
 161.583007812 219.043945312 164.922851562 246.061523438 161.344726562 275.302734375 c 0
 162.250976562 278.180664062 156.0546875 290.69921875 160.09375 284.858398438 c 0
 169.436523438 275.264648438 185.02734375 267.635742188 200.09765625 277.341796875 c 0
 205.935546875 281.1015625 218.194335938 295.764648438 215.02734375 304.849609375 c 1
 214.513671875 298.510742188 215.715820312 292.055664062 216.536132812 285.763671875 c 0
 223.776367188 224.961914062 234.106445312 166.5546875 241.859375 107.427734375 c 0
 248.26953125 64.517578125 245.728515625 16.1162109375 226.344726562 -10.5205078125 c 0
 220.577148438 -18.447265625 214.087890625 -25.8232421875 207.959960938 -33.4755859375 c 0
 163.73046875 -71.005859375 80.8798828125 -63.095703125 34.5546875 -34.041015625 c 0
 25.9453125 -28.4619140625 20.0185546875 -20.6474609375 15.021484375 -11.890625 c 0
 -5.693359375 24.3740234375 51.2900390625 56.923828125 72.0048828125 20.66015625 c 1
 71.32421875 21.11328125 68.388671875 22.7470703125 70.8974609375 20.6025390625 c 0
 94.17578125 5.75 153.168945312 -4.9423828125 172.22265625 21.5654296875 c 1
 169.54296875 17.8837890625 166.541015625 14.4169921875 164.184570312 10.521484375 c 1
 164.184570312 10.521484375 166.697265625 12.9365234375 167.810546875 14.271484375 c 0
 181.336914062 30.4912109375 182.087890625 63.0419921875 178.442382812 90.546875 c 0
 173.017578125 135.262695312 163.239257812 179.466796875 158.634765625 224.39453125 c 0
 155.482421875 248.171875 151.452148438 272.235351562 149.947265625 296.405273438 c 0
 149.42578125 311.436523438 151.16796875 322.975585938 166.576171875 333.758789062 c 0
 183.501953125 345.60546875 200.5546875 336.1796875 211.155273438 326.081054688 c 0
 237.248046875 289.862304688 231.420898438 214.7734375 208.013671875 178.260742188 c 0
 201.858398438 170.736328125 195.97265625 162.983398438 189.548828125 155.6875 c 0
 162.28515625 124.720703125 106.137695312 114.037109375 62.3505859375 137.458984375 c 0
 29.3408203125 155.11328125 2.68359375 192.307617188 11.8134765625 245.28125 c 0
 22.8330078125 293.640625 63.7900390625 350.157226562 134.307617188 336.5625 c 0
 143.700195312 334.889648438 153.0859375 332.861328125 161.887695312 329.072265625 c 0
 199.352539062 310.618164062 170.35546875 251.748046875 132.889648438 270.201171875 c 1
 123.30078125 272.869140625 109.534179688 276.048828125 99.5556640625 271.178710938 c 0
 92.8896484375 267.1640625 87.3525390625 261.596679688 82.615234375 255.48046875 c 0
 81.6611328125 254.047851562 79.75390625 251.18359375 79.75390625 251.18359375 c 1
 81.3876953125 252.790039062 83.17578125 254.575195312 84.6142578125 256.36328125 c 1
 76.5751953125 244.810546875 71.96875 226.80859375 78.669921875 209.5703125 c 0
 87.7958984375 191.955078125 112.75390625 184.240234375 136.38671875 193.072265625 c 0
 142.747070312 196.198242188 147.607421875 201.240234375 151.8515625 206.80859375 c 0
 153.064453125 208.399414062 155.33984375 211.690429688 155.33984375 211.690429688 c 1
 152.254882812 208.892578125 149.772460938 205.495117188 146.989257812 202.397460938 c 1
EndSplineSet
Validated: 524325
EndChar

StartChar: b
Encoding: 54 98 54
Width: 263
VWidth: 824
Flags: HW
LayerCount: 2
Fore
SplineSet
86.873046875 508.639648438 m 0
 85.4462890625 498.654296875 85.5009765625 488.575195312 85.59765625 478.516601562 c 0
 88.626953125 362.768554688 79.099609375 252.762695312 77.6474609375 135.9375 c 0
 77.4736328125 99.3408203125 69.595703125 109.514648438 15.2099609375 113.349609375 c 0
 10.0390625 113.712890625 9.84375 142.899414062 10.05078125 149.014648438 c 0
 11.9658203125 207.5625 39.787109375 243.37109375 76.5146484375 267.875 c 0
 105.979492188 286.25 144.219726562 291.400390625 182.583984375 279.055664062 c 0
 231.250976562 263.055664062 270.02734375 211.188476562 246.625 148.540039062 c 0
 229.479492188 107.955078125 192.763671875 78.169921875 146.931640625 66.3056640625 c 0
 99.0537109375 55.5478515625 60.763671875 76.224609375 35.6455078125 98.5224609375 c 0
 4.447265625 126.286132812 48.07421875 175.309570312 79.2734375 147.545898438 c 0
 92.84375 134.920898438 113.735351562 123.346679688 139.91796875 131.5546875 c 0
 153.512695312 136.30859375 165.993164062 143.463867188 175.65625 153.704101562 c 1
 160.99609375 136.092773438 182.176757812 160.908203125 182.176757812 160.908203125 c 1
 190.700195312 174.897460938 193.84765625 189.374023438 182.334960938 202.837890625 c 0
 171.327148438 214.623046875 151.62890625 224.880859375 129.116210938 219.783203125 c 0
 93.98046875 211.411132812 74.3603515625 186.520507812 74.455078125 142.780273438 c 1
 73.482421875 143.252929688 73.5751953125 145.412109375 72.4951171875 145.365234375 c 0
 53.2900390625 144.537109375 4.2353515625 157.37890625 12.6591796875 124.662109375 c 1
 13.9482421875 218.955078125 18.2294921875 309.112304688 20.2705078125 401.453125 c 0
 20.6513671875 423.478515625 21.4306640625 445.509765625 20.8974609375 467.538085938 c 0
 20.689453125 479.794921875 20.1806640625 492.064453125 21.392578125 504.2890625 c 0
 18.6240234375 545.9609375 84.1044921875 550.311523438 86.873046875 508.639648438 c 0
EndSplineSet
Validated: 524325
EndChar

StartChar: h
Encoding: 55 104 55
Width: 228
VWidth: 824
Flags: HW
LayerCount: 2
Fore
SplineSet
13.974609375 464.041015625 m 0
 17.927734375 437.065429688 18.072265625 406.266601562 18.521484375 376.515625 c 0
 18.4794921875 322.172851562 14.544921875 268.842773438 12.490234375 216.279296875 c 0
 11.328125 195.306640625 11.767578125 173.73828125 10 153.1796875 c 1
 13.9794921875 113.178710938 74.6171875 117.704101562 75.470703125 155.158203125 c 0
 77.7138671875 159.661132812 78.8896484375 165.03125 78.546875 171.255859375 c 0
 82.5166015625 204.125 83.427734375 229.811523438 99.576171875 250.154296875 c 0
 105.368164062 256.26171875 103.466796875 254.264648438 97.248046875 246.328125 c 1
 103.708007812 253.705078125 126.583984375 275.239257812 137.158203125 263.548828125 c 0
 155.75 237.95703125 153.47265625 186.350585938 153.689453125 149.2578125 c 1
 160.440429688 108.043945312 225.202148438 118.651367188 218.451171875 159.865234375 c 1
 218.004882812 222.60546875 213.680664062 279.6484375 181.16015625 312.236328125 c 0
 163.2890625 327.88671875 146.692382812 336.221679688 119.998046875 331.78515625 c 0
 106.874023438 329.602539062 92.748046875 323.5078125 81.89453125 316.23046875 c 1
 83.875 371.709960938 83.4677734375 429.436523438 77.59375 480.138671875 c 1
 67.341796875 520.651367188 3.7353515625 504.504882812 13.974609375 464.041015625 c 0
EndSplineSet
Validated: 524329
EndChar

StartChar: f
Encoding: 56 102 56
Width: 201
VWidth: 824
Flags: HW
LayerCount: 2
Fore
SplineSet
113.590820312 239.826171875 m 0
 113.689453125 238.239257812 131.15625 218.318359375 129.032226562 217.75390625 c 1
 148.025390625 180.55859375 206.470703125 210.40234375 187.477539062 247.59765625 c 0
 174.487304688 274.463867188 152.919921875 305.147460938 114.149414062 304.83984375 c 0
 85.90625 304.615234375 67.9072265625 285.30859375 54.7666015625 267.767578125 c 0
 24.6416015625 227.884765625 16.1650390625 169.233398438 14.3193359375 101.64453125 c 1
 8.4599609375 91.2919921875 8.673828125 77.5537109375 14.2841796875 66.98828125 c 1
 14.8056640625 30.2197265625 16.154296875 -4.7470703125 20.3466796875 -38.388671875 c 1
 30.5908203125 -78.8759765625 94.2099609375 -62.7783203125 83.9658203125 -22.291015625 c 1
 82.359375 3.2353515625 79.798828125 29.1298828125 79.2919921875 56.576171875 c 1
 89.0185546875 57.720703125 98.6513671875 58.60546875 108.268554688 59.8984375 c 0
 149.944335938 57.1875 154.204101562 122.673828125 112.528320312 125.384765625 c 0
 101.692382812 124.90234375 90.833984375 123.196289062 79.7783203125 122.048828125 c 1
 81.7529296875 168.5390625 88.5185546875 214.520507812 113.200195312 239.662109375 c 0
 113.24609375 239.66015625 113.287109375 239.788085938 113.323242188 239.7890625 c 1
 113.282226562 239.747070312 113.2421875 239.704101562 113.200195312 239.662109375 c 1
 113.267578125 239.638671875 113.3359375 239.616210938 113.395507812 239.587890625 c 0
 113.8359375 240.123046875 114.33984375 240.826171875 114.829101562 241.328125 c 1
 114.322265625 240.708007812 114.05859375 240.395507812 113.590820312 239.826171875 c 0
113.395507812 239.587890625 m 0
 112.669921875 238.704101562 112.0859375 237.981445312 111.459960938 237.22265625 c 1
 114.166992188 238.609375 114.053710938 239.274414062 113.395507812 239.587890625 c 0
111.383789062 237.146484375 m 1
 106.401367188 232.334960938 96.8017578125 219.477539062 111.383789062 237.146484375 c 1
EndSplineSet
Validated: 524325
EndChar

StartChar: e
Encoding: 57 101 57
Width: 287
VWidth: 824
Flags: HW
LayerCount: 2
Fore
SplineSet
185 270.497070312 m 0
 183.228515625 283.875 176.3515625 317.243164062 160.712890625 312.290039062 c 1
 149.91796875 315.09375 140.4140625 310.6796875 130.150390625 308.846679688 c 0
 124.888671875 305.21484375 104.94140625 302.161132812 129.985351562 308.048828125 c 1
 102.361328125 294.521484375 70.1708984375 277.715820312 76.255859375 234.505859375 c 0
 79.1826171875 207.71875 89.5869140625 177.147460938 107.88671875 163.861328125 c 0
 118.154296875 154.68359375 130.344726562 151.592773438 143.126953125 147.958984375 c 0
 154.296875 147.465820312 166.920898438 143.051757812 177.44140625 148.389648438 c 0
 180.185546875 148.948242188 203.287109375 154.690429688 203.287109375 154.690429688 c 1
 190.788085938 151.287109375 169.666992188 143.448242188 215.150390625 159.475585938 c 1
 184.915039062 145.328125 217.61328125 162.814453125 218.142578125 162.030273438 c 0
 218.877929688 160.944335938 217.358398438 159.530273438 216.965820312 158.282226562 c 1
 228.848632812 195.620117188 287.51953125 176.948242188 275.63671875 139.609375 c 1
 264.756835938 114.095703125 244.387695312 103.299804688 218.037109375 95.7158203125 c 1
 256.423828125 110.150390625 180.443359375 82.375 172.7578125 84.572265625 c 0
 125.765625 80.9755859375 86.8427734375 95.576171875 61.3359375 119.311523438 c 0
 25.8203125 153.151367188 -6.7509765625 226.458984375 19.58203125 291.18359375 c 0
 30.408203125 312.806640625 43.20703125 332.556640625 64.6875 345.0234375 c 0
 97.583984375 364.504882812 141.064453125 384.985351562 189.451171875 369.348632812 c 0
 224.954101562 354.123046875 247.954101562 319.065429688 247.993164062 270.073242188 c 0
 245.942382812 249.83984375 241.928710938 231.546875 225.321289062 217.852539062 c 0
 216.6328125 214.333984375 208.092773438 210.424804688 199.255859375 207.298828125 c 0
 184.513671875 202.083007812 167.755859375 204.036132812 152.55078125 201.547851562 c 0
 131.188476562 200.479492188 109.497070312 199.395507812 88.341796875 203.196289062 c 0
 49.193359375 212.345703125 63.5712890625 273.860351562 102.71875 264.7109375 c 1
 122.821289062 266.020507812 143.052734375 264.458007812 163.106445312 266.399414062 c 0
 173.791015625 267.461914062 185.375976562 266.336914062 195.80859375 269.375 c 1
 191.83984375 268.029296875 187.916015625 267.012695312 183.959960938 265.629882812 c 1
 183.68359375 258.6484375 184.72265625 266.572265625 185 270.497070312 c 0
EndSplineSet
Validated: 524325
EndChar

StartChar: d
Encoding: 58 100 58
Width: 268
VWidth: 824
Flags: HW
LayerCount: 2
Fore
SplineSet
258.4375 521.184570312 m 1
 258.463867188 398.7734375 243.0390625 280.20703125 251.73828125 155.611328125 c 0
 254.658203125 120.32421875 254.978515625 95.236328125 225.251953125 83.509765625 c 0
 218.264648438 80.75390625 209.908203125 83.2451171875 202.831054688 85.76171875 c 0
 188.700195312 90.78515625 182.810546875 108.78125 183.283203125 125.470703125 c 0
 192.1640625 196.176757812 177.364257812 254.987304688 140.759765625 288.84375 c 0
 137.1875 292.04296875 126.06640625 302.434570312 121.190429688 296.469726562 c 0
 120.880859375 296.090820312 117.696289062 294.318359375 117.598632812 294.26171875 c 0
 112.083984375 289.815429688 106.875976562 285.037109375 102.264648438 279.637695312 c 0
 99.0107421875 274.569335938 87.162109375 261.673828125 105.0703125 282.13671875 c 1
 85.4873046875 255.98046875 67.2294921875 223.206054688 79.7685546875 179.9296875 c 0
 83.9697265625 165.827148438 91.6943359375 142.853515625 106.223632812 138.627929688 c 0
 131.889648438 136.734375 153.154296875 150.50390625 171.35546875 159.76171875 c 0
 181.38671875 164.916015625 190.946289062 171.037109375 199.873046875 177.91796875 c 0
 200.171875 178.338867188 200.469726562 178.758789062 200.768554688 179.178710938 c 0
 238.873046875 196.274414062 265.736328125 136.400390625 227.631835938 119.303710938 c 1
 200.661132812 101.890625 168.545898438 83.2119140625 132.928710938 76.490234375 c 0
 113.38671875 73.4306640625 93.7646484375 72.4462890625 75.244140625 80.775390625 c 0
 47.35546875 95.4609375 29.2978515625 122.028320312 19.3330078125 154.350585938 c 0
 10.1064453125 183.375976562 6.1318359375 214.307617188 14.8515625 247.375 c 0
 26.09765625 283.459960938 45.4287109375 314.774414062 71.216796875 337.453125 c 0
 89.7529296875 352.791992188 117.831054688 370.693359375 151.909179688 358.067382812 c 0
 203.685546875 337.10546875 235.717773438 282.69140625 246.78125 221.951171875 c 0
 250.970703125 197.544921875 252.373046875 174.46875 250.990234375 146.884765625 c 0
 250.62109375 140.635742188 250.341796875 134.293945312 248.8515625 128.193359375 c 1
 247.139648438 128.633789062 248.67578125 125.465820312 247.969726562 125.547851562 c 0
 247.516601562 125.600585938 243.82421875 136.356445312 241.90234375 136.52734375 c 0
 234.37109375 142.282226562 222.647460938 152.69921875 209.112304688 147.119140625 c 0
 202.64453125 144.453125 182.009765625 131.16015625 187.026367188 118.671875 c 1
 189.752929688 125.737304688 187.551757812 134.1796875 187.646484375 141.510742188 c 0
 180.40625 237.581054688 183.455078125 341.0703125 190.642578125 434.80859375 c 0
 191.90234375 460.079101562 193.35546875 484.864257812 193.620117188 510.918945312 c 1
 187.086914062 552.16796875 251.904296875 562.43359375 258.4375 521.184570312 c 1
EndSplineSet
Validated: 524325
EndChar

StartChar: a
Encoding: 59 97 59
Width: 277
VWidth: 824
Flags: HW
LayerCount: 2
Fore
SplineSet
133.4375 294.669921875 m 1
 142.716796875 303.96484375 113.174804688 290.321289062 113.174804688 290.321289062 c 1
 121.010742188 292.016601562 132.58203125 298.322265625 121.693359375 292.631835938 c 0
 92.1494140625 272.748046875 66.87890625 228.635742188 78.80859375 180.314453125 c 0
 83.28515625 166.529296875 105.881835938 153.662109375 124.625 162.080078125 c 0
 125.8203125 162.896484375 128.19921875 164.53515625 128.19921875 164.53515625 c 1
 123.78125 163.709960938 119.749023438 161.413085938 115.3828125 160.35546875 c 1
 115.3828125 160.35546875 117.869140625 160.579101562 124.990234375 165.798828125 c 0
 154.681640625 187.567382812 166.729492188 222.815429688 173.69140625 265.955078125 c 0
 177.748046875 281.310546875 177.258789062 297.314453125 179.891601562 312.831054688 c 0
 188.063476562 341.905273438 190.33203125 332.733398438 244.071289062 322.361328125 c 0
 247.21484375 321.75390625 247.62890625 301.768554688 247.897460938 298.643554688 c 0
 248.89453125 283.486328125 248.166015625 268.311523438 248.391601562 253.135742188 c 0
 251.21875 218.880859375 251.18359375 185.380859375 256.623046875 153.811523438 c 0
 257.524414062 147.727539062 257.883789062 141.478515625 260.25 135.7265625 c 0
 260.25 135.71484375 262.184570312 131.483398438 262.184570312 131.483398438 c 1
 260.806640625 132.5 260.234375 134.30078125 259.259765625 135.708984375 c 0
 256.6171875 137.5703125 253.977539062 139.434570312 251.333984375 141.294921875 c 1
 285.91796875 125.184570312 260.602539062 70.8408203125 226.01953125 86.951171875 c 1
 222.477539062 89.0625 218.931640625 91.16796875 215.390625 93.2783203125 c 0
 203.075195312 106.719726562 194.950195312 121.484375 194.016601562 140.211914062 c 0
 185.299804688 185.670898438 181.720703125 238.345703125 185.525390625 290.389648438 c 1
 182.522460938 328.482421875 231.555664062 278.678710938 242.905273438 311.780273438 c 1
 243.150390625 295.249023438 242.18359375 278.583984375 239.09375 262.333007812 c 0
 232.55859375 213.268554688 219.647460938 168.166992188 189.942382812 139.354492188 c 0
 170.002929688 118.64453125 148.228515625 101.333984375 118.1171875 98.1689453125 c 0
 46.658203125 95.4384765625 1.3671875 148.829101562 11.3828125 224.404296875 c 0
 24.1494140625 292.103515625 71.505859375 369.48828125 154.513671875 356.4375 c 0
 178.987304688 351.778320312 202.364257812 342.849609375 222.052734375 327.192382812 c 0
 252.71484375 300.743164062 211.153320312 252.5625 180.4921875 279.01171875 c 1
 164.78515625 283.97265625 150.358398438 294.578125 133.4375 294.669921875 c 1
EndSplineSet
Validated: 524325
EndChar

StartChar: c
Encoding: 60 99 60
Width: 221
VWidth: 824
Flags: HW
LayerCount: 2
Fore
SplineSet
94.6923828125 299.598632812 m 0
 93.103515625 298.840820312 89.9267578125 297.327148438 89.9267578125 297.327148438 c 1
 93.310546875 297.913085938 96.5732421875 299.2578125 99.845703125 300.326171875 c 1
 84.458984375 292.389648438 77.794921875 271.458007812 75.21484375 253.07421875 c 0
 72.1513671875 237.499023438 76.03125 222.329101562 78.7841796875 207.069335938 c 0
 81.7646484375 191.231445312 88.3583984375 176.5078125 94.7880859375 161.837890625 c 0
 98.572265625 153.669921875 106.07421875 149.486328125 113.90234375 146.053710938 c 0
 123.029296875 144.588867188 132.10546875 146.157226562 141.375976562 146.166992188 c 0
 152.184570312 149.311523438 164.422851562 146.985351562 174.259765625 153.17578125 c 1
 169.20703125 151.21484375 164.154296875 149.252929688 159.102539062 147.291015625 c 1
 188.591796875 174.51171875 231.365234375 128.171875 201.874023438 100.952148438 c 1
 193.294921875 97.12890625 184.71484375 93.3056640625 176.134765625 89.482421875 c 0
 142.202148438 82.6630859375 106.1015625 79.6474609375 76.8876953125 94.2060546875 c 0
 43.7666015625 113.659179688 22.9423828125 150.127929688 14.955078125 193.233398438 c 0
 6.2314453125 239.748046875 7.8037109375 282.4453125 29.60546875 317.909179688 c 0
 50.0078125 344.4765625 67.431640625 361.455078125 104.08203125 364.256835938 c 0
 129.345703125 364.95703125 155.178710938 362.337890625 177.08203125 348.607421875 c 0
 210.295898438 325.404296875 173.834960938 273.213867188 140.622070312 296.416992188 c 1
 125.670898438 299.291992188 109.795898438 303.03515625 94.6923828125 299.598632812 c 0
EndSplineSet
Validated: 524325
EndChar

StartChar: k
Encoding: 61 107 61
Width: 287
VWidth: 824
Flags: HW
LayerCount: 2
Fore
SplineSet
91.853515625 238.833007812 m 1
 114.442382812 242.911132812 139.254882812 248.25 163.629882812 249.180664062 c 0
 173.509765625 248.119140625 184.26953125 252.37109375 193.9921875 250.470703125 c 0
 196.791015625 249.450195312 199.390625 241.711914062 201.041992188 237.83203125 c 0
 208.017578125 215.149414062 210.420898438 188.73828125 211.885742188 160.732421875 c 0
 211.311523438 160.3515625 212.538085938 135.047851562 213.3671875 129.0390625 c 0
 208.11328125 99.7275390625 253.221679688 79.2763671875 269.498046875 109.955078125 c 0
 283.272460938 138.014648438 274.869140625 184.579101562 271.3203125 217.51953125 c 0
 264.174804688 254.087890625 253.784179688 289.095703125 225.010742188 305.508789062 c 0
 208.118164062 312.627929688 192.408203125 314.172851562 174.39453125 312.271484375 c 1
 186.681640625 323.723632812 198.76953125 335.39453125 210.80859375 347.08984375 c 0
 228.444335938 365.17578125 290.698242188 412.224609375 246.021484375 439.33203125 c 0
 232.537109375 447.514648438 213.844726562 447.137695312 203.431640625 429.974609375 c 1
 185.555664062 415.502929688 169.331054688 399.373046875 153.857421875 382.375 c 0
 130.65234375 360.84765625 107.88671875 339.294921875 83.830078125 318.5625 c 1
 81.6220703125 345.168945312 78.1591796875 371.145507812 72.4462890625 396.95703125 c 0
 63.8798828125 436.18359375 2.248046875 422.743164062 10.814453125 383.516601562 c 1
 9.947265625 360.11328125 13.8662109375 336.848632812 16.029296875 313.603515625 c 0
 18.037109375 294.953125 39.3798828125 104.198242188 39.3798828125 104.198242188 c 1
 40.9775390625 79.6015625 77.779296875 62.703125 94.6572265625 88.9755859375 c 1
 99.560546875 104.1875 103.10546875 115.918945312 100.329101562 131.623046875 c 0
 98.044921875 168.3359375 95.783203125 204.012695312 91.853515625 238.833007812 c 1
EndSplineSet
Validated: 524329
EndChar

StartChar: n
Encoding: 62 110 62
Width: 221
VWidth: 824
Flags: HW
LayerCount: 2
Fore
SplineSet
121.525390625 387.421875 m 0
 74.0078125 379.65234375 36.17578125 340.407226562 21.103515625 295.928710938 c 0
 3.5751953125 242.899414062 11.001953125 186.142578125 15.2490234375 131.657226562 c 0
 17.271484375 115.641601562 15.9873046875 95.15625 31.3369140625 85.2236328125 c 0
 50.306640625 72.6748046875 82.1240234375 85.78515625 81.5654296875 110.004882812 c 0
 84.4228515625 165.58984375 68.001953125 220.53515625 82.6298828125 274.369140625 c 0
 87.9833984375 289.850585938 94.60546875 306.633789062 108.322265625 316.515625 c 1
 123.833007812 320.490234375 135.584960938 303.32421875 137.401367188 289.66015625 c 0
 148.693359375 246.676757812 149.111328125 201.790039062 146.166992188 157.7109375 c 0
 145.475585938 137.092773438 144.124023438 116.161132812 147.610351562 95.7470703125 c 0
 155.24609375 70.9443359375 195.4921875 68.5615234375 205.936523438 92.365234375 c 0
 212.326171875 113.106445312 209.235351562 135.295898438 210.846679688 156.694335938 c 0
 214.353515625 240.487304688 211.927734375 344.227539062 151.206054688 379.68359375 c 0
 142.055664062 384.458007812 131.78515625 386.8125 121.525390625 387.421875 c 0
EndSplineSet
Validated: 524329
EndChar

StartChar: m
Encoding: 63 109 63
Width: 323
VWidth: 824
Flags: HW
LayerCount: 2
Fore
SplineSet
11.5791015625 115.607421875 m 0
 7.001953125 176.149414062 13.2109375 239.288085938 19.544921875 295.916992188 c 0
 21.48828125 312.6953125 23.1416015625 329.524414062 26.7373046875 346.04296875 c 0
 32.5703125 365.893554688 44.58984375 381.41796875 59.97265625 394.743164062 c 0
 86.833984375 413.93359375 114.061523438 411.075195312 140.32421875 395.563476562 c 0
 169.884765625 373.466796875 179.389648438 334.016601562 176.758789062 285.564453125 c 0
 175.514648438 272.416015625 176.13671875 259.2421875 176.228515625 246.071289062 c 0
 174.930664062 214.377929688 174.573242188 220.018554688 114.173828125 228.598632812 c 0
 114.029296875 228.627929688 113.13671875 238.8125 112.881835938 241.663085938 c 0
 109.911132812 305.225585938 131.262695312 351.256835938 163.42578125 384.282226562 c 0
 182.625976562 402.103515625 206.284179688 414.32421875 233.004882812 414.404296875 c 0
 256.473632812 412.678710938 274.381835938 398.841796875 288.356445312 380.9140625 c 0
 309.314453125 354.786132812 311.638671875 317.911132812 313.329101562 276.846679688 c 0
 313.032226562 237.033203125 311.884765625 200.595703125 307.71484375 164.852539062 c 0
 305.604492188 150.412109375 305.665039062 135.903320312 306.216796875 121.372070312 c 0
 306.256835938 113.022460938 303.963867188 105.67578125 301.880859375 97.6953125 c 0
 292.580078125 60.0498046875 233.42578125 74.6640625 242.7265625 112.309570312 c 1
 241.76171875 102.015625 242.223632812 113.245117188 242.447265625 115.3359375 c 0
 240.536132812 170.375976562 248.469726562 217.36328125 249.1328125 271.716796875 c 0
 249.18359375 285.760742188 249.3671875 299.953125 246.0078125 313.66796875 c 0
 244.229492188 326.372070312 238.940429688 354.721679688 222.495117188 351.568359375 c 1
 222.495117188 351.568359375 232.203125 355.206054688 234.369140625 356.231445312 c 1
 234.369140625 356.231445312 231.63671875 356.032226562 230.388671875 355.525390625 c 0
 211.69921875 347.953125 200.252929688 332.959960938 191.063476562 316.254882812 c 0
 185.3671875 305.419921875 179.63671875 294.392578125 178.830078125 281.938476562 c 0
 178.020507812 270.859375 176.034179688 259.872070312 174.776367188 248.890625 c 0
 175.936523438 225.37890625 160.03125 245.620117188 115.125 234.448242188 c 0
 113.208007812 233.97265625 116.865234375 229.370117188 115.075195312 228.522460938 c 0
 114.51171875 228.256835938 113.431640625 236.13671875 113.279296875 237.149414062 c 0
 109.1015625 267.293945312 116.234375 297.104492188 110.520507812 325.250976562 c 0
 109.743164062 332.2734375 107.862304688 339.598632812 102.478515625 344.57421875 c 0
 94.40234375 348.413085938 79.99609375 341.252929688 109.184570312 351.206054688 c 1
 108.575195312 351.639648438 107.963867188 352.067382812 107.359375 352.505859375 c 0
 86.373046875 348.732421875 87.046875 317.068359375 83.9423828125 295.97265625 c 0
 81.9384765625 259.7421875 76.9384765625 222.166992188 78.126953125 184.375976562 c 0
 78.4990234375 162.650390625 77.9248046875 140.380859375 74.662109375 118.962890625 c 1
 76.7978515625 78.8173828125 13.71484375 75.4619140625 11.5791015625 115.607421875 c 0
EndSplineSet
Validated: 524325
EndChar

StartChar: l
Encoding: 64 108 64
Width: 128
VWidth: 824
Flags: HW
LayerCount: 2
Fore
SplineSet
44.2705078125 534.75 m 0
 24.935546875 535.91796875 6.2734375 517.903320312 10.6416015625 498.20703125 c 0
 13.556640625 461.965820312 13.9541015625 425.545898438 16.041015625 389.240234375 c 0
 18.603515625 334.4140625 15.46875 279.584960938 14.998046875 224.763671875 c 0
 15.1552734375 188.026367188 18 151.194335938 15.6416015625 114.509765625 c 1
 6.8330078125 99.76171875 35.0927734375 91.4453125 48.439453125 85.9208984375 c 0
 65.0673828125 79.3046875 85.7509765625 77.9013671875 102.86328125 83.94921875 c 0
 125.008789062 96.3466796875 124.298828125 135.565429688 98.9169921875 143.8125 c 0
 88.216796875 145.818359375 76.71875 144.303710938 81.16015625 159.418945312 c 1
 80.1181640625 206.272460938 79.0849609375 253.133789062 81.4765625 299.969726562 c 0
 83.166015625 369.536132812 78.7275390625 439.022460938 75.4580078125 508.47265625 c 0
 73.728515625 523.97265625 59.6240234375 535.216796875 44.2705078125 534.75 c 0
59.7216796875 81.103515625 m 1
 46.8408203125 79.5859375 63.98046875 79.3359375 59.7216796875 81.103515625 c 1
14.6611328125 112.216796875 m 1
 14.6630859375 113.98046875 l 1
 14.6611328125 112.216796875 l 1
EndSplineSet
Validated: 524325
EndChar

StartChar: i
Encoding: 65 105 65
Width: 92
VWidth: 824
Flags: HW
LayerCount: 2
Fore
SplineSet
55.8251953125 480.81640625 m 1
 45.39453125 487.524414062 33.0986328125 485.635742188 26.548828125 474.841796875 c 0
 14.76171875 462.359375 9.068359375 447.936523438 10.1240234375 430.819335938 c 0
 16.041015625 400.477539062 44.2021484375 398.193359375 66.6982421875 411.728515625 c 0
 80.2255859375 419.864257812 82.482421875 438.504882812 81.3193359375 452.376953125 c 0
 77.267578125 468.732421875 69.525390625 478.186523438 55.8251953125 480.81640625 c 1
12.216796875 301.520507812 m 1
 8.65234375 278.91015625 10.658203125 256.109375 11.7451171875 233.409179688 c 0
 14.3681640625 188.168945312 12.0087890625 143.421875 20.2548828125 102.426757812 c 0
 24.43359375 62.72265625 86.8232421875 69.2900390625 82.642578125 108.995117188 c 0
 82.703125 111.479492188 82.755859375 113.961914062 82.810546875 116.446289062 c 0
 81.8544921875 157.41015625 79.9482421875 198.569335938 77.6494140625 239.393554688 c 0
 77.2685546875 261.209960938 77.98046875 283.220703125 75.2998046875 304.875976562 c 1
 74.2646484375 324.321289062 58.9326171875 333.560546875 43.63671875 333.356445312 c 0
 27.35546875 333.141601562 11.1162109375 322.220703125 12.216796875 301.520507812 c 1
EndSplineSet
Validated: 524329
EndChar

